<svg width="24" height="24" viewBox="0 0 24 24" fill="none" xmlns="http://www.w3.org/2000/svg">
<g clip-path="url(#clip0_17_46)">
<path d="M12 24C14.3734 24 16.6934 23.2962 18.6668 21.9776C20.6402 20.6591 22.1783 18.7849 23.0865 16.5922C23.9948 14.3995 24.2324 11.9867 23.7694 9.65892C23.3064 7.33115 22.1635 5.19295 20.4853 3.51472C18.807 1.83649 16.6689 0.693605 14.3411 0.230582C12.0133 -0.232441 9.60051 0.00519943 7.4078 0.913451C5.21509 1.8217 3.34094 3.35977 2.02236 5.33316C0.703788 7.30655 0 9.62663 0 12C0.00389639 15.1814 1.26943 18.2314 3.51902 20.481C5.76861 22.7306 8.8186 23.9961 12 24ZM12 1.81841C14.0137 1.81841 15.9822 2.41555 17.6566 3.53432C19.3309 4.65309 20.6359 6.24323 21.4066 8.10368C22.1772 9.96412 22.3788 12.0113 21.986 13.9863C21.5931 15.9614 20.6234 17.7756 19.1995 19.1995C17.7755 20.6234 15.9614 21.5931 13.9863 21.986C12.0113 22.3788 9.96411 22.1772 8.10367 21.4066C6.24323 20.6359 4.65308 19.3309 3.53431 17.6566C2.41554 15.9822 1.8184 14.0137 1.8184 12C1.8223 9.30087 2.89625 6.71341 4.80483 4.80483C6.7134 2.89626 9.30087 1.8223 12 1.81841Z" fill="#F08233"/>
<path d="M9.58501 15.965C9.67598 16.0182 9.77963 16.0458 9.88501 16.045C10.0023 16.0441 10.1169 16.0094 10.215 15.945L16.11 12.245C16.2014 12.187 16.2762 12.1063 16.327 12.0108C16.3778 11.9153 16.403 11.8082 16.4 11.7C16.3931 11.5952 16.3591 11.4939 16.3012 11.4063C16.2434 11.3186 16.1637 11.2475 16.07 11.2L10.18 8.02499C10.0871 7.97194 9.98199 7.94403 9.87501 7.94403C9.76804 7.94403 9.66291 7.97194 9.57001 8.02499C9.47761 8.07892 9.40116 8.15638 9.34846 8.24949C9.29576 8.34259 9.26869 8.44801 9.27002 8.55499V15.405C9.26522 15.5184 9.29216 15.6309 9.34781 15.7298C9.40346 15.8288 9.48561 15.9102 9.58501 15.965ZM10.5 9.60499L14.545 11.765L10.5 14.305V9.60499Z" fill="#F08233"/>
</g>
<defs>
<clipPath id="clip0_17_46">
<rect width="24" height="24" fill="white"/>
</clipPath>
</defs>
</svg>
