<svg width="17" height="16" viewBox="0 0 17 16" fill="none" xmlns="http://www.w3.org/2000/svg">
<g clip-path="url(#clip0_420_88)">
<path d="M8.5 16C4.08203 16 0.5 12.418 0.5 8C0.5 3.58153 4.08203 0 8.5 0C12.918 0 16.5 3.58153 16.5 8C16.5 12.418 12.918 16 8.5 16ZM8.5 2C5.18653 2 2.5 4.68653 2.5 8C2.5 11.3135 5.18653 14 8.5 14C11.8134 14 14.5 11.3135 14.5 8C14.5 4.68653 11.8135 2 8.5 2ZM6.5 5L11.5 8L6.5 11V5Z" fill="#F4EEE7"/>
</g>
<defs>
<clipPath id="clip0_420_88">
<rect width="16" height="16" fill="white" transform="translate(0.5)"/>
</clipPath>
</defs>
</svg>
