<svg width="1211" height="828" viewBox="0 0 1211 828" fill="none" xmlns="http://www.w3.org/2000/svg">
<path d="M516.177 814.794C518.251 819.535 516.089 825.058 511.349 827.132C506.609 829.205 501.085 827.043 499.012 822.303C496.938 817.563 499.1 812.039 503.84 809.966C508.581 807.892 514.104 810.054 516.177 814.794Z" fill="url(#paint0_linear_184_319)"/>
<path d="M503.866 815.809C504.185 816.539 503.852 817.388 503.123 817.707C502.394 818.026 501.544 817.694 501.225 816.965C500.906 816.235 501.238 815.386 501.967 815.067C502.697 814.748 503.546 815.08 503.866 815.809Z" fill="url(#paint1_linear_184_319)"/>
<path d="M512.414 811.977C512.597 812.238 512.613 812.542 512.449 812.658C512.285 812.773 512.003 812.656 511.82 812.396C511.636 812.136 511.621 811.832 511.785 811.716C511.949 811.6 512.231 811.717 512.414 811.977Z" fill="url(#paint2_linear_184_319)"/>
<path d="M515.978 818.727C516.263 818.826 516.383 819.226 516.245 819.621C516.108 820.015 515.765 820.255 515.48 820.155C515.195 820.056 515.075 819.656 515.213 819.261C515.35 818.867 515.693 818.627 515.978 818.727Z" fill="url(#paint3_linear_184_319)"/>
<path d="M507.321 809.519C507.339 809.68 507.018 809.849 506.603 809.897C506.188 809.944 505.837 809.852 505.818 809.691C505.8 809.531 506.121 809.362 506.536 809.314C506.951 809.267 507.303 809.359 507.321 809.519Z" fill="url(#paint4_linear_184_319)"/>
<path d="M510.838 823.931C511.039 824.979 510.194 826.022 508.95 826.261C507.707 826.5 506.536 825.844 506.334 824.796C506.133 823.748 506.978 822.704 508.221 822.466C509.465 822.227 510.636 822.883 510.838 823.931Z" fill="url(#paint5_linear_184_319)"/>
<path d="M504.433 809.59C504.496 809.718 504.123 810.029 503.601 810.284C503.079 810.539 502.605 810.642 502.543 810.514C502.48 810.386 502.853 810.076 503.375 809.821C503.897 809.566 504.371 809.463 504.433 809.59Z" fill="#67111C"/>
<path d="M504.516 809.759C504.624 809.979 504.288 810.365 503.766 810.62C503.244 810.875 502.733 810.903 502.625 810.682C502.517 810.462 502.853 810.076 503.375 809.821C503.897 809.566 504.408 809.538 504.516 809.759Z" fill="#111B75"/>
<path d="M504.135 809.617C504.153 809.654 503.871 809.829 503.506 810.008C503.14 810.186 502.829 810.301 502.811 810.264C502.793 810.226 503.074 810.051 503.44 809.873C503.806 809.694 504.117 809.58 504.135 809.617Z" fill="#010847"/>
<path d="M497.902 819.93C498.124 819.862 498.527 820.541 498.802 821.445C499.078 822.35 499.121 823.138 498.9 823.205C498.678 823.273 498.275 822.594 498 821.69C497.724 820.785 497.681 819.997 497.902 819.93Z" fill="url(#paint6_linear_184_319)"/>
<path d="M498.193 819.841C498.575 819.724 499.109 820.363 499.384 821.268C499.66 822.172 499.573 823 499.19 823.116C498.808 823.233 498.275 822.594 497.999 821.689C497.724 820.785 497.811 819.957 498.193 819.841Z" fill="url(#paint7_linear_184_319)"/>
<path d="M497.868 820.416C497.932 820.397 498.141 820.894 498.334 821.528C498.527 822.161 498.631 822.691 498.566 822.711C498.502 822.73 498.293 822.233 498.1 821.599C497.907 820.965 497.803 820.436 497.868 820.416Z" fill="#01052A"/>
<path d="M505.804 827.741C505.812 827.619 506.586 827.534 507.53 827.553C508.475 827.572 509.234 827.686 509.226 827.809C509.217 827.932 508.444 828.016 507.499 827.997C506.554 827.979 505.795 827.864 505.804 827.741Z" fill="url(#paint8_linear_184_319)"/>
<path d="M505.815 827.58C505.83 827.368 506.608 827.212 507.553 827.231C508.498 827.25 509.252 827.436 509.237 827.648C509.222 827.86 508.444 828.016 507.499 827.997C506.554 827.979 505.8 827.792 505.815 827.58Z" fill="url(#paint9_linear_184_319)"/>
<path d="M506.253 827.843C506.255 827.807 506.794 827.789 507.456 827.802C508.117 827.815 508.652 827.855 508.649 827.89C508.647 827.926 508.108 827.944 507.447 827.931C506.785 827.918 506.25 827.878 506.253 827.843Z" fill="#150303"/>
<path d="M515.537 823.805C515.353 823.721 515.481 823.044 515.824 822.292C516.166 821.54 516.593 820.999 516.777 821.083C516.961 821.166 516.833 821.844 516.491 822.596C516.148 823.347 515.721 823.889 515.537 823.805Z" fill="url(#paint10_linear_184_319)"/>
<path d="M515.296 823.695C514.978 823.55 514.998 822.823 515.34 822.072C515.683 821.32 516.218 820.828 516.536 820.973C516.853 821.117 516.833 821.844 516.491 822.596C516.149 823.347 515.614 823.84 515.296 823.695Z" fill="url(#paint11_linear_184_319)"/>
<path d="M515.841 823.506C515.788 823.482 515.939 823.035 516.178 822.509C516.418 821.982 516.656 821.575 516.71 821.6C516.763 821.624 516.612 822.071 516.372 822.597C516.133 823.124 515.895 823.531 515.841 823.506Z" fill="#130406"/>
<path d="M515.587 813.372C515.483 813.443 515.164 813.156 514.874 812.731C514.584 812.306 514.433 811.903 514.537 811.832C514.642 811.761 514.961 812.048 515.251 812.474C515.541 812.899 515.691 813.301 515.587 813.372Z" fill="url(#paint12_linear_184_319)"/>
<path d="M515.45 813.465C515.271 813.588 514.89 813.342 514.6 812.917C514.31 812.492 514.221 812.048 514.4 811.925C514.58 811.803 514.961 812.048 515.251 812.473C515.541 812.898 515.63 813.343 515.45 813.465Z" fill="url(#paint13_linear_184_319)"/>
<path d="M515.526 813.113C515.496 813.134 515.307 812.909 515.104 812.611C514.901 812.314 514.761 812.055 514.791 812.035C514.822 812.014 515.011 812.239 515.214 812.537C515.417 812.834 515.557 813.093 515.526 813.113Z" fill="#280102"/>
<path d="M509.752 817.288C509.752 817.785 509.348 818.189 508.851 818.189C508.353 818.189 507.95 817.785 507.95 817.288C507.95 816.79 508.353 816.387 508.851 816.387C509.348 816.387 509.752 816.79 509.752 817.288Z" fill="#121A60"/>
<path d="M501.968 823.87C501.742 824.065 501.296 823.917 500.971 823.54C500.646 823.163 500.567 822.7 500.793 822.505C501.019 822.31 501.465 822.458 501.79 822.835C502.115 823.212 502.195 823.675 501.968 823.87Z" fill="#0F1442"/>
<path d="M509.031 811.163C509.031 811.461 508.628 811.703 508.13 811.703C507.633 811.703 507.229 811.461 507.229 811.163C507.229 810.864 507.633 810.622 508.13 810.622C508.628 810.622 509.031 810.864 509.031 811.163Z" fill="#494F8A"/>
<path d="M514.346 822.56C514.543 822.784 514.398 823.232 514.023 823.559C513.648 823.886 513.185 823.969 512.989 823.744C512.793 823.519 512.937 823.072 513.312 822.745C513.687 822.417 514.15 822.335 514.346 822.56Z" fill="#0F1233"/>
<path d="M407.555 10.4838C411.359 19.182 407.392 29.3175 398.694 33.1222C389.996 36.9269 379.861 32.9599 376.056 24.2617C372.251 15.5636 376.218 5.42803 384.916 1.62337C393.615 -2.18128 403.75 1.78569 407.555 10.4838Z" fill="url(#paint14_linear_184_319)"/>
<path d="M384.963 12.346C385.548 13.6842 384.938 15.2436 383.6 15.829C382.262 16.4145 380.702 15.8043 380.117 14.4661C379.531 13.128 380.142 11.5686 381.48 10.9831C382.818 10.3977 384.377 11.0079 384.963 12.346Z" fill="url(#paint15_linear_184_319)"/>
<path d="M400.649 5.31474C400.986 5.79192 401.015 6.35083 400.714 6.5631C400.413 6.77537 399.896 6.56062 399.559 6.08344C399.223 5.60626 399.194 5.04735 399.495 4.83508C399.796 4.62281 400.313 4.83756 400.649 5.31474Z" fill="url(#paint16_linear_184_319)"/>
<path d="M407.188 17.6993C407.712 17.8815 407.931 18.616 407.679 19.3398C407.427 20.0637 406.799 20.5029 406.276 20.3207C405.752 20.1385 405.533 19.404 405.785 18.6801C406.037 17.9563 406.665 17.5171 407.188 17.6993Z" fill="url(#paint17_linear_184_319)"/>
<path d="M391.304 0.804273C391.337 1.09942 390.747 1.40934 389.986 1.49649C389.224 1.58364 388.58 1.41502 388.546 1.11987C388.512 0.824724 389.102 0.514808 389.864 0.427658C390.625 0.340507 391.27 0.509123 391.304 0.804273Z" fill="url(#paint18_linear_184_319)"/>
<path d="M397.756 27.2491C398.126 29.1724 396.575 31.0869 394.293 31.5251C392.012 31.9634 389.862 30.7595 389.493 28.8362C389.124 26.9128 390.674 24.9984 392.956 24.5601C395.238 24.1219 397.387 25.3258 397.756 27.2491Z" fill="url(#paint19_linear_184_319)"/>
<path d="M386.005 0.934642C386.12 1.16935 385.436 1.73906 384.478 2.20711C383.52 2.67516 382.651 2.86432 382.536 2.62961C382.421 2.3949 383.105 1.82519 384.063 1.35714C385.021 0.889089 385.89 0.69993 386.005 0.934642Z" fill="#67111C"/>
<path d="M386.156 1.2433C386.354 1.64828 385.738 2.35599 384.78 2.82401C383.822 3.29203 382.885 3.34313 382.687 2.93814C382.489 2.53315 383.105 1.82544 384.063 1.35742C385.021 0.889404 385.958 0.838308 386.156 1.2433Z" fill="#111B75"/>
<path d="M385.457 0.982921C385.49 1.05122 384.974 1.37233 384.303 1.70014C383.632 2.02796 383.061 2.23834 383.027 2.17005C382.994 2.10175 383.511 1.78064 384.182 1.45283C384.853 1.12501 385.424 0.914626 385.457 0.982921Z" fill="#010847"/>
<path d="M374.02 19.9067C374.427 19.7829 375.166 21.0281 375.672 22.688C376.177 24.3479 376.257 25.7938 375.85 25.9177C375.444 26.0415 374.704 24.7963 374.199 23.1364C373.694 21.4765 373.614 20.0306 374.02 19.9067Z" fill="url(#paint20_linear_184_319)"/>
<path d="M374.554 19.7436C375.256 19.5299 376.234 20.7023 376.74 22.3621C377.245 24.0219 377.086 25.5407 376.384 25.7544C375.683 25.9681 374.704 24.7957 374.199 23.1359C373.693 21.4761 373.852 19.9573 374.554 19.7436Z" fill="url(#paint21_linear_184_319)"/>
<path d="M373.957 20.7998C374.075 20.7638 374.458 21.677 374.812 22.8395C375.166 24.002 375.357 24.9737 375.239 25.0097C375.12 25.0457 374.738 24.1325 374.384 22.97C374.03 21.8075 373.839 20.8358 373.957 20.7998Z" fill="#01052A"/>
<path d="M388.52 34.2408C388.536 34.0156 389.954 33.861 391.688 33.8954C393.422 33.9299 394.815 34.1403 394.799 34.3655C394.783 34.5907 393.364 34.7453 391.63 34.7109C389.896 34.6764 388.504 34.466 388.52 34.2408Z" fill="url(#paint22_linear_184_319)"/>
<path d="M388.54 33.9452C388.568 33.5567 389.996 33.2696 391.73 33.3041C393.463 33.3385 394.847 33.6814 394.819 34.0699C394.792 34.4584 393.364 34.7454 391.63 34.711C389.896 34.6765 388.513 34.3337 388.54 33.9452Z" fill="url(#paint23_linear_184_319)"/>
<path d="M389.344 34.4269C389.348 34.3614 390.337 34.3278 391.551 34.352C392.765 34.3761 393.746 34.4488 393.741 34.5143C393.737 34.5799 392.748 34.6134 391.534 34.5893C390.32 34.5652 389.339 34.4925 389.344 34.4269Z" fill="#150303"/>
<path d="M406.38 27.0176C406.042 26.8637 406.277 25.6207 406.906 24.2413C407.534 22.8619 408.317 21.8685 408.655 22.0224C408.993 22.1763 408.758 23.4193 408.129 24.7987C407.501 26.1781 406.718 27.1716 406.38 27.0176Z" fill="url(#paint24_linear_184_319)"/>
<path d="M405.937 26.8157C405.354 26.5501 405.39 25.2166 406.019 23.8372C406.647 22.4577 407.629 21.5548 408.212 21.8204C408.795 22.086 408.759 23.4195 408.13 24.7989C407.502 26.1783 406.52 27.0813 405.937 26.8157Z" fill="url(#paint25_linear_184_319)"/>
<path d="M406.938 26.4697C406.84 26.4249 407.117 25.6055 407.557 24.6394C407.997 23.6733 408.433 22.9264 408.531 22.9712C408.63 23.0159 408.353 23.8354 407.913 24.8015C407.473 25.7676 407.037 26.5145 406.938 26.4697Z" fill="#130406"/>
<path d="M406.472 7.87423C406.281 8.00458 405.694 7.4776 405.162 6.6972C404.631 5.9168 404.354 5.17849 404.545 5.04815C404.737 4.9178 405.323 5.44478 405.855 6.22518C406.387 7.00558 406.663 7.74389 406.472 7.87423Z" fill="url(#paint26_linear_184_319)"/>
<path d="M406.221 8.04453C405.891 8.26943 405.192 7.81916 404.66 7.03882C404.128 6.25847 403.964 5.44356 404.294 5.21865C404.624 4.99375 405.323 5.44402 405.855 6.22437C406.387 7.00471 406.551 7.81963 406.221 8.04453Z" fill="url(#paint27_linear_184_319)"/>
<path d="M406.36 7.39898C406.305 7.4369 405.957 7.02458 405.585 6.47804C405.212 5.9315 404.955 5.4577 405.011 5.41978C405.067 5.38185 405.414 5.79417 405.786 6.34071C406.159 6.88725 406.416 7.36105 406.36 7.39898Z" fill="#280102"/>
<path d="M395.764 15.0592C395.764 15.9721 395.024 16.7122 394.111 16.7122C393.198 16.7122 392.458 15.9721 392.458 15.0592C392.458 14.1464 393.198 13.4063 394.111 13.4063C395.024 13.4063 395.764 14.1464 395.764 15.0592Z" fill="#121A60"/>
<path d="M381.482 27.1372C381.067 27.4947 380.248 27.2239 379.652 26.5322C379.056 25.8406 378.909 24.9901 379.324 24.6326C379.739 24.2751 380.559 24.5459 381.154 25.2376C381.75 25.9292 381.897 26.7797 381.482 27.1372Z" fill="#0F1442"/>
<path d="M394.442 3.81935C394.442 4.36704 393.702 4.81103 392.789 4.81103C391.876 4.81103 391.136 4.36704 391.136 3.81935C391.136 3.27166 391.876 2.82767 392.789 2.82767C393.702 2.82767 394.442 3.27166 394.442 3.81935Z" fill="#494F8A"/>
<path d="M404.195 24.7326C404.555 25.1453 404.289 25.9664 403.602 26.5666C402.914 27.1668 402.064 27.3188 401.704 26.9061C401.344 26.4933 401.61 25.6722 402.298 25.072C402.985 24.4718 403.835 24.3198 404.195 24.7326Z" fill="#0F1233"/>
<path d="M1207.43 697.637C1214.31 713.367 1207.14 731.696 1191.41 738.577C1175.68 745.457 1157.35 738.283 1150.47 722.553C1143.59 706.823 1150.76 688.494 1166.49 681.613C1182.22 674.733 1200.55 681.907 1207.43 697.637Z" fill="url(#paint28_linear_184_319)"/>
<path d="M1166.57 701.006C1167.63 703.426 1166.53 706.246 1164.11 707.305C1161.69 708.364 1158.87 707.26 1157.81 704.84C1156.75 702.42 1157.86 699.6 1160.28 698.542C1162.7 697.483 1165.52 698.586 1166.57 701.006Z" fill="url(#paint29_linear_184_319)"/>
<path d="M1195.62 687.908C1196.23 688.771 1196.14 689.883 1195.42 690.391C1194.7 690.899 1193.62 690.612 1193.01 689.749C1192.4 688.886 1192.49 687.774 1193.21 687.266C1193.93 686.757 1195.01 687.045 1195.62 687.908Z" fill="url(#paint30_linear_184_319)"/>
<path d="M1206.77 710.686C1207.71 711.016 1208.11 712.344 1207.66 713.653C1207.2 714.962 1206.06 715.756 1205.12 715.427C1204.17 715.098 1203.77 713.769 1204.23 712.46C1204.68 711.151 1205.82 710.357 1206.77 710.686Z" fill="url(#paint31_linear_184_319)"/>
<path d="M1178.04 680.132C1178.1 680.665 1177.04 681.226 1175.66 681.383C1174.28 681.541 1173.12 681.236 1173.05 680.702C1172.99 680.169 1174.06 679.608 1175.44 679.451C1176.81 679.293 1177.98 679.598 1178.04 680.132Z" fill="url(#paint32_linear_184_319)"/>
<path d="M1189.71 727.956C1190.38 731.434 1187.57 734.896 1183.45 735.689C1179.32 736.481 1175.43 734.304 1174.77 730.826C1174.1 727.348 1176.9 723.886 1181.03 723.093C1185.16 722.301 1189.04 724.478 1189.71 727.956Z" fill="url(#paint33_linear_184_319)"/>
<path d="M1168.46 680.368C1168.67 680.793 1167.43 681.823 1165.7 682.67C1163.97 683.516 1162.39 683.858 1162.19 683.434C1161.98 683.009 1163.22 681.979 1164.95 681.132C1166.68 680.286 1168.25 679.944 1168.46 680.368Z" fill="#25319F"/>
<path d="M1168.73 680.926C1169.09 681.659 1167.98 682.939 1166.24 683.785C1164.51 684.631 1162.82 684.724 1162.46 683.991C1162.1 683.259 1163.21 681.979 1164.95 681.133C1166.68 680.286 1168.37 680.194 1168.73 680.926Z" fill="#25319F"/>
<path d="M1167.47 680.456C1167.53 680.58 1166.59 681.16 1165.38 681.753C1164.17 682.346 1163.14 682.726 1163.08 682.603C1163.01 682.479 1163.95 681.899 1165.16 681.306C1166.38 680.713 1167.41 680.333 1167.47 680.456Z" fill="#480307"/>
<path d="M1146.79 714.678C1147.52 714.454 1148.86 716.706 1149.77 719.708C1150.69 722.709 1150.83 725.324 1150.1 725.548C1149.36 725.772 1148.02 723.52 1147.11 720.519C1146.2 717.517 1146.05 714.902 1146.79 714.678Z" fill="url(#paint34_linear_184_319)"/>
<path d="M1147.75 714.384C1149.02 713.997 1150.79 716.117 1151.71 719.119C1152.62 722.121 1152.33 724.867 1151.06 725.254C1149.79 725.64 1148.02 723.52 1147.11 720.518C1146.2 717.517 1146.48 714.77 1147.75 714.384Z" fill="url(#paint35_linear_184_319)"/>
<path d="M1146.67 716.293C1146.88 716.228 1147.58 717.88 1148.22 719.982C1148.86 722.084 1149.2 723.842 1148.99 723.907C1148.78 723.972 1148.08 722.32 1147.44 720.218C1146.8 718.116 1146.46 716.359 1146.67 716.293Z" fill="url(#paint36_linear_184_319)"/>
<path d="M1173.01 740.6C1173.04 740.193 1175.6 739.913 1178.74 739.976C1181.87 740.038 1184.39 740.418 1184.36 740.826C1184.33 741.233 1181.77 741.512 1178.63 741.45C1175.5 741.388 1172.98 741.007 1173.01 740.6Z" fill="url(#paint37_linear_184_319)"/>
<path d="M1173.04 740.065C1173.09 739.362 1175.68 738.843 1178.81 738.906C1181.95 738.968 1184.45 739.588 1184.4 740.29C1184.35 740.993 1181.77 741.512 1178.63 741.45C1175.5 741.388 1172.99 740.767 1173.04 740.065Z" fill="url(#paint38_linear_184_319)"/>
<path d="M1174.5 740.937C1174.5 740.819 1176.29 740.758 1178.49 740.802C1180.68 740.845 1182.46 740.977 1182.45 741.095C1182.44 741.214 1180.65 741.274 1178.46 741.231C1176.26 741.187 1174.49 741.056 1174.5 740.937Z" fill="#050820"/>
<path d="M1205.31 727.538C1204.7 727.259 1205.12 725.012 1206.26 722.517C1207.39 720.022 1208.81 718.226 1209.42 718.504C1210.03 718.782 1209.61 721.03 1208.47 723.525C1207.34 726.019 1205.92 727.816 1205.31 727.538Z" fill="url(#paint39_linear_184_319)"/>
<path d="M1204.5 727.172C1203.45 726.692 1203.52 724.281 1204.65 721.786C1205.79 719.291 1207.56 717.658 1208.62 718.139C1209.67 718.619 1209.61 721.031 1208.47 723.525C1207.34 726.02 1205.56 727.653 1204.5 727.172Z" fill="url(#paint40_linear_184_319)"/>
<path d="M1206.32 726.546C1206.14 726.465 1206.64 724.983 1207.43 723.236C1208.23 721.489 1209.02 720.138 1209.2 720.219C1209.38 720.3 1208.87 721.782 1208.08 723.529C1207.28 725.276 1206.49 726.627 1206.32 726.546Z" fill="#070A23"/>
<path d="M1205.47 692.917C1205.13 693.152 1204.07 692.199 1203.1 690.788C1202.14 689.377 1201.64 688.042 1201.99 687.806C1202.33 687.571 1203.39 688.523 1204.36 689.935C1205.32 691.346 1205.82 692.681 1205.47 692.917Z" fill="url(#paint41_linear_184_319)"/>
<path d="M1205.02 693.226C1204.42 693.632 1203.16 692.818 1202.2 691.407C1201.24 689.996 1200.94 688.522 1201.54 688.116C1202.13 687.709 1203.4 688.523 1204.36 689.934C1205.32 691.345 1205.62 692.819 1205.02 693.226Z" fill="url(#paint42_linear_184_319)"/>
<path d="M1205.27 692.059C1205.17 692.127 1204.54 691.382 1203.87 690.393C1203.19 689.405 1202.73 688.548 1202.83 688.48C1202.93 688.411 1203.56 689.157 1204.23 690.145C1204.91 691.133 1205.37 691.99 1205.27 692.059Z" fill="url(#paint43_linear_184_319)"/>
<path d="M1186.11 705.913C1186.11 707.563 1184.77 708.902 1183.12 708.902C1181.47 708.902 1180.13 707.563 1180.13 705.913C1180.13 704.262 1181.47 702.923 1183.12 702.923C1184.77 702.923 1186.11 704.262 1186.11 705.913Z" fill="url(#paint44_linear_184_319)"/>
<path d="M1160.28 727.754C1159.53 728.4 1158.05 727.91 1156.97 726.66C1155.89 725.409 1155.63 723.871 1156.38 723.225C1157.13 722.578 1158.61 723.068 1159.69 724.319C1160.77 725.569 1161.03 727.107 1160.28 727.754Z" fill="url(#paint45_linear_184_319)"/>
<path d="M1183.71 685.586C1183.71 686.577 1182.38 687.38 1180.73 687.38C1179.07 687.38 1177.74 686.577 1177.74 685.586C1177.74 684.596 1179.07 683.793 1180.73 683.793C1182.38 683.793 1183.71 684.596 1183.71 685.586Z" fill="url(#paint46_linear_184_319)"/>
<path d="M1201.36 723.405C1202.01 724.152 1201.53 725.637 1200.28 726.722C1199.04 727.807 1197.5 728.082 1196.85 727.336C1196.2 726.589 1196.68 725.105 1197.92 724.019C1199.17 722.934 1200.7 722.659 1201.36 723.405Z" fill="url(#paint47_linear_184_319)"/>
<path d="M61.4308 495.637C68.3113 511.367 61.1373 529.696 45.4073 536.577C29.6772 543.457 11.3478 536.283 4.46735 520.553C-2.41311 504.823 4.76088 486.494 20.4909 479.613C36.2209 472.733 54.5504 479.907 61.4308 495.637Z" fill="url(#paint48_linear_184_319)"/>
<path d="M20.5747 499.006C21.6334 501.426 20.53 504.246 18.1101 505.305C15.6902 506.364 12.8701 505.26 11.8114 502.84C10.7527 500.42 11.8561 497.6 14.276 496.542C16.6959 495.483 19.5159 496.586 20.5747 499.006Z" fill="url(#paint49_linear_184_319)"/>
<path d="M49.6199 485.908C50.2284 486.771 50.1374 487.883 49.4165 488.391C48.6957 488.899 47.618 488.612 47.0094 487.749C46.4008 486.886 46.4919 485.774 47.2128 485.266C47.9336 484.757 49.0113 485.045 49.6199 485.908Z" fill="url(#paint50_linear_184_319)"/>
<path d="M60.7675 508.686C61.7137 509.016 62.1113 510.344 61.6555 511.653C61.1997 512.962 60.0631 513.756 59.1169 513.427C58.1707 513.097 57.7731 511.769 58.2289 510.46C58.6847 509.151 59.8212 508.357 60.7675 508.686Z" fill="url(#paint51_linear_184_319)"/>
<path d="M32.0415 478.132C32.1026 478.665 31.0357 479.226 29.6585 479.383C28.2813 479.541 27.1153 479.236 27.0543 478.702C26.9932 478.169 28.0601 477.608 29.4373 477.451C30.8145 477.293 31.9805 477.598 32.0415 478.132Z" fill="url(#paint52_linear_184_319)"/>
<path d="M43.7095 525.956C44.3775 529.434 41.5738 532.896 37.4472 533.689C33.3206 534.481 29.4339 532.304 28.7659 528.826C28.0979 525.348 30.9016 521.886 35.0282 521.093C39.1548 520.301 43.0416 522.478 43.7095 525.956Z" fill="url(#paint53_linear_184_319)"/>
<path d="M22.4604 478.368C22.6678 478.793 21.4315 479.823 19.6991 480.67C17.9667 481.516 16.3941 481.858 16.1868 481.434C15.9794 481.009 17.2157 479.979 18.9481 479.132C20.6805 478.286 22.253 477.944 22.4604 478.368Z" fill="#25319F"/>
<path d="M22.7321 478.926C23.0899 479.659 21.9756 480.939 20.2432 481.785C18.5108 482.631 16.8163 482.724 16.4585 481.991C16.1006 481.259 17.2149 479.979 18.9474 479.133C20.6798 478.286 22.3743 478.194 22.7321 478.926Z" fill="#25319F"/>
<path d="M21.4689 478.456C21.5292 478.58 20.5945 479.16 19.3812 479.753C18.1679 480.346 17.1354 480.726 17.075 480.603C17.0147 480.479 17.9494 479.899 19.1627 479.306C20.376 478.713 21.4085 478.333 21.4689 478.456Z" fill="#480307"/>
<path d="M0.785677 512.678C1.5211 512.454 2.85825 514.706 3.77228 517.708C4.68631 520.709 4.8311 523.324 4.09567 523.548C3.36025 523.772 2.0231 521.52 1.10907 518.518C0.195036 515.517 0.0502495 512.902 0.785677 512.678Z" fill="url(#paint54_linear_184_319)"/>
<path d="M1.7522 512.384C3.02127 511.997 4.79103 514.117 5.70507 517.119C6.61912 520.121 6.33132 522.867 5.06225 523.254C3.79318 523.64 2.02342 521.52 1.10938 518.518C0.195334 515.517 0.483136 512.77 1.7522 512.384Z" fill="url(#paint55_linear_184_319)"/>
<path d="M0.671283 514.293C0.885264 514.228 1.57767 515.88 2.21782 517.982C2.85798 520.084 3.20345 521.842 2.98947 521.907C2.77549 521.972 2.08308 520.32 1.44293 518.218C0.80278 516.116 0.457302 514.359 0.671283 514.293Z" fill="url(#paint56_linear_184_319)"/>
<path d="M27.0066 538.6C27.0354 538.193 29.6006 537.913 32.7362 537.976C35.8719 538.038 38.3904 538.418 38.3616 538.826C38.3328 539.233 35.7676 539.512 32.632 539.45C29.4964 539.388 26.9778 539.007 27.0066 538.6Z" fill="url(#paint57_linear_184_319)"/>
<path d="M27.0442 538.065C27.0939 537.362 29.676 536.843 32.8116 536.906C35.9472 536.968 38.4489 537.588 38.3992 538.29C38.3495 538.993 35.7673 539.512 32.6317 539.45C29.4961 539.388 26.9945 538.767 27.0442 538.065Z" fill="url(#paint58_linear_184_319)"/>
<path d="M28.4961 538.937C28.5045 538.819 30.2916 538.758 32.4876 538.802C34.6837 538.845 36.4572 538.977 36.4488 539.095C36.4404 539.214 34.6534 539.274 32.4573 539.231C30.2612 539.187 28.4877 539.056 28.4961 538.937Z" fill="#050820"/>
<path d="M59.3076 525.538C58.6964 525.259 59.1219 523.012 60.2579 520.517C61.3939 518.022 62.8103 516.226 63.4215 516.504C64.0326 516.782 63.6072 519.03 62.4711 521.525C61.3351 524.019 59.9187 525.816 59.3076 525.538Z" fill="url(#paint59_linear_184_319)"/>
<path d="M58.5046 525.172C57.45 524.692 57.516 522.281 58.652 519.786C59.788 517.291 61.5639 515.658 62.6186 516.139C63.6732 516.619 63.6072 519.031 62.4712 521.525C61.3352 524.02 59.5593 525.653 58.5046 525.172Z" fill="url(#paint60_linear_184_319)"/>
<path d="M60.3156 524.546C60.1378 524.465 60.6386 522.983 61.4343 521.236C62.2299 519.489 63.019 518.138 63.1968 518.219C63.3747 518.3 62.8738 519.782 62.0782 521.529C61.2826 523.276 60.4935 524.627 60.3156 524.546Z" fill="#070A23"/>
<path d="M59.4727 490.916C59.1269 491.152 58.0668 490.199 57.1048 488.788C56.1428 487.377 55.6432 486.042 55.989 485.806C56.3347 485.571 57.3948 486.523 58.3568 487.935C59.3188 489.346 59.8184 490.681 59.4727 490.916Z" fill="url(#paint61_linear_184_319)"/>
<path d="M59.0188 491.226C58.4222 491.633 57.1587 490.818 56.1967 489.407C55.2347 487.996 54.9385 486.522 55.5351 486.116C56.1317 485.709 57.3952 486.523 58.3572 487.934C59.3192 489.345 59.6154 490.819 59.0188 491.226Z" fill="url(#paint62_linear_184_319)"/>
<path d="M59.2701 490.059C59.1695 490.127 58.5417 489.382 57.8679 488.393C57.1941 487.405 56.7295 486.548 56.8301 486.48C56.9307 486.411 57.5585 487.157 58.2322 488.145C58.906 489.133 59.3707 489.99 59.2701 490.059Z" fill="url(#paint63_linear_184_319)"/>
<path d="M40.1068 503.913C40.1068 505.563 38.7685 506.902 37.1176 506.902C35.4667 506.902 34.1284 505.563 34.1284 503.913C34.1284 502.262 35.4667 500.923 37.1176 500.923C38.7685 500.923 40.1068 502.262 40.1068 503.913Z" fill="url(#paint64_linear_184_319)"/>
<path d="M14.2805 525.754C13.53 526.4 12.0482 525.91 10.9706 524.66C9.89311 523.409 9.62797 521.871 10.3784 521.225C11.1289 520.578 12.6107 521.068 13.6883 522.319C14.7658 523.569 15.0309 525.107 14.2805 525.754Z" fill="url(#paint65_linear_184_319)"/>
<path d="M37.7152 483.586C37.7152 484.577 36.3769 485.38 34.726 485.38C33.0751 485.38 31.7368 484.577 31.7368 483.586C31.7368 482.596 33.0751 481.793 34.726 481.793C36.3769 481.793 37.7152 482.596 37.7152 483.586Z" fill="url(#paint66_linear_184_319)"/>
<path d="M55.3557 521.405C56.007 522.152 55.5265 523.637 54.2825 524.722C53.0386 525.807 51.5023 526.082 50.851 525.336C50.1998 524.589 50.6803 523.105 51.9243 522.019C53.1682 520.934 54.7045 520.659 55.3557 521.405Z" fill="url(#paint67_linear_184_319)"/>
<path d="M660.232 173.726C660.553 173.652 660.313 174.133 660.313 174.133C659.526 174.502 645.667 179.211 645.705 185.163C645.718 187.273 645.743 188.595 647.647 190.188C651.093 193.069 657.189 192.359 664.122 192.828C671.977 193.361 677.646 191.62 685.376 192.31C691.485 192.856 696.589 192.518 699.675 195.098C702.047 197.082 703.328 198.69 701.832 201.434C699.835 205.099 695.198 207.195 688.787 209.504C683.983 211.234 680.011 212.069 674.816 212.956C648.074 217.523 639.366 201.637 612.849 207.461C602.217 209.795 594.154 210.713 587.098 216.187C581.155 220.798 580.196 223.825 581.492 228.366C582.891 233.268 589.441 234.184 595.717 237.308C603.645 241.254 612.028 241.243 618.742 245.797C622.611 248.421 625.66 249.807 626.488 253.416C627.06 255.91 626.417 257.521 625.185 260.226C622.486 266.155 609.193 275.877 609.193 275.877L607.578 274.788C607.578 274.788 620.252 266.281 623.008 260.444C624.203 257.911 624.911 256.391 624.394 254.053C623.605 250.489 620.168 249.276 616.263 246.73C609.447 242.285 601.417 242.13 593.665 238.155C587.273 234.878 580.692 233.83 579.315 228.751C578.058 224.112 579.607 220.451 585.63 215.749C592.667 210.254 601.955 208.71 613.493 206.24C640.047 200.554 648.766 216.726 675.46 211.736C680.487 210.796 683.605 210.497 688.191 208.75C693.744 206.635 697.98 204.874 699.654 201.652C700.84 199.372 700.251 198.005 698.572 196.244C695.794 193.331 690.523 193.375 684.101 192.758C677.084 192.084 671.899 193.746 664.639 193.389C657.159 193.022 650.546 193.885 646.839 190.831C644.747 189.107 644.783 187.641 644.85 185.334C645.025 179.326 657.83 174.63 660.232 173.726Z" fill="#DDDDDD"/>
<path d="M660.232 173.726C659.921 173.821 660.313 174.133 660.313 174.133C660.313 174.133 684.345 164.866 695.555 167.723C699.528 168.736 702.011 169.382 704.106 171.416C707.897 175.096 703.647 178.843 701.223 183.712C698.478 189.228 692.488 192.198 690.101 197.706C688.215 202.06 685.14 205.318 688.534 208.614C691.144 211.147 693.567 212.771 699.457 213.075C707.324 213.48 713.492 211.371 720.908 208.173C726.463 205.778 729.935 203.514 734.088 200.455C755.468 184.71 729.657 171.315 753.3 156.319C762.779 150.306 768.359 145.34 782.052 143.217C793.587 141.429 799.756 142.227 807.704 145.256C816.283 148.526 814.885 153.351 817.781 159.043C821.441 166.232 817.42 171.845 822.805 178.51C825.908 182.351 827.068 185.054 833.48 187.326C837.911 188.896 841.258 189.232 846.949 189.694C859.422 190.707 884.107 186.426 884.107 186.426L882.822 184.825C882.822 184.825 860.725 189.27 848.399 188.338C843.05 187.934 839.845 187.685 835.682 186.226C829.335 184.002 828.687 181.121 825.748 177.293C820.617 170.611 824.157 165.157 820.359 158.071C817.228 152.228 818.394 147.321 809.468 143.981C801.318 140.931 793.673 140.227 781.927 142.025C768.202 144.125 760.858 149.614 750.69 156.17C727.29 171.257 753.634 184.794 731.478 200.306C727.306 203.227 725.254 205.174 719.769 207.416C713.129 210.13 707.785 212.13 700.908 211.719C696.04 211.428 693.743 210.384 691.223 208.42C687.053 205.172 689.653 201.662 691.555 197.065C693.632 192.043 699.242 189.359 702.035 184.325C704.912 179.138 709.696 175.117 705.704 171.181C703.451 168.958 700.67 168.285 696.285 167.232C684.868 164.491 662.261 173.108 660.232 173.726Z" fill="#DDDDDD"/>
<path d="M881.555 198.97C881.555 198.97 887.258 201.467 888.34 210.287C888.63 212.88 887.346 214.796 885.508 216.618C883.628 218.558 880.843 218.564 879.16 220.549C880.323 218.67 879.983 216.433 881.972 214.934C879.003 215.891 877.471 218.198 877.074 221.211C876.719 224.106 875.436 226.021 872.245 226.336C873.871 225.026 873.321 223.221 873.249 221.429C873.074 223.533 871.457 224.525 869.616 224.954C867.373 225.532 866.402 226.143 864.686 227.848C865.563 224.768 864.055 223.098 867.793 221.644C869.842 220.862 872.108 219.41 870.464 216.861C869.909 221.341 866.167 219.931 863.147 221.323C861.011 222.342 861.445 224.024 860.249 225.624C859.054 227.224 856.978 227.487 855.108 227.478C858.234 226.605 857.451 223.084 858.193 220.597C859.024 217.715 862.821 217.058 864.4 214.474C862.988 212.169 861.603 214.958 861.021 215.897C860.068 217.344 858.838 218.744 856.789 217.974C861.604 216.43 858.335 210.615 861.816 208.319C863.152 207.439 866.538 208.801 867.216 207.228C868.273 204.828 864.103 206.072 863.212 206.685C863.445 205.378 864.473 204.092 865.762 203.49C867.414 202.697 868.579 203.762 870.019 203.482C871.938 203.134 872.12 200.712 869.973 200.656C869.178 200.635 867.512 201.984 866.549 202.277C867.727 199.841 870.611 197.57 873.252 197.002C876.533 196.292 878.801 197.784 881.555 198.97Z" fill="url(#paint68_linear_184_319)"/>
<path d="M883.144 202.053C883.717 202.697 883.677 202.735 884.203 203.572C885.33 205.325 885.553 207.861 883.866 209.312C882.904 210.115 881.771 209.89 880.741 210.459C879.652 211.047 879.602 212.246 879.021 213.168C878.971 212.51 878.974 211.987 878.826 211.348C878.765 210.96 878.667 210.534 878.818 210.168C878.402 210.86 878.329 211.671 877.874 212.363C877.297 213.207 876.435 213.469 875.493 213.768C874.533 214.048 873.599 214.155 872.555 214.143C872.129 214.139 871.572 214.036 871.179 214.187C870.666 214.414 870.472 214.895 870.07 215.239C870.3 213.907 870.386 213.231 871.796 212.859C873.243 212.488 873.315 211.231 874.262 210.332C873.447 210.846 872.412 211.086 871.856 210.017C873.575 210.577 874.286 209.308 874.522 207.821C874.775 206.393 874.731 205.135 875.895 204.142C875.18 204.115 874.82 204.865 874.377 205.286C873.854 205.745 873.266 205.932 872.583 206.06C872.664 205.984 872.783 205.907 872.825 205.831C873.096 205.35 873.594 205.026 873.866 204.546C874.117 204.084 874.271 203.641 874.465 203.16C874.854 202.197 875.857 201.357 876.731 200.824C878.181 199.931 880.839 200.23 882.566 201.524L882.734 201.662C882.884 201.779 883.014 201.916 883.144 202.053Z" fill="#FFC929"/>
<path d="M883.639 202.578C884.259 203.315 884.349 203.913 884.327 204.876C884.294 205.952 883.303 206.712 882.6 207.419C882.771 207.096 882.727 206.776 882.766 206.418C882.387 206.838 882.032 206.673 881.606 206.917C881.159 207.18 880.922 207.727 880.505 208.001C880.7 207.535 880.178 207.047 880.515 206.627C880.06 206.798 880.222 207.367 879.908 207.644C879.636 207.882 879.039 207.987 878.738 208.152C878.771 208.041 879.565 206.926 878.963 207.236C878.849 207.304 878.748 207.722 878.581 207.86C878.435 207.959 878.218 208.024 878.043 208.07C877.641 208.17 877.232 208.076 876.869 208.26C876.455 208.473 876.251 208.867 876.037 209.27C876.269 208.529 876.126 208.042 876.772 207.549C877.086 207.292 877.213 207.07 877.436 206.759C877.626 206.498 877.875 206.382 878.126 206.144C877.331 205.935 877.178 206.802 876.518 206.987C876.894 206.691 876.78 206.257 876.902 205.86C877.033 205.475 877.359 205.105 877.742 204.942C878.022 204.817 878.747 204.932 878.706 204.469C878.667 203.924 877.891 204.219 877.662 204.396C877.804 204 878.13 203.61 878.594 203.512C878.996 203.432 879.401 203.649 879.596 203.183C879.258 202.701 878.776 203.179 878.315 203.154C878.972 202.631 879.274 201.501 880.305 201.707C880.581 201.767 881.244 202.402 881.285 201.922C881.314 201.533 880.623 201.245 880.325 201.287C881.327 200.918 882.759 201.587 883.509 202.441L883.639 202.578Z" fill="#F9F079"/>
<path d="M877.948 191.743C877.117 193.138 876.344 194.487 875.62 195.781C874.896 197.074 877.591 201.36 880.374 204.286C883.134 207.188 888.296 211.197 889.627 210.542C890.957 209.886 892.343 209.184 893.781 208.429L877.948 191.743Z" fill="url(#paint69_linear_184_319)"/>
<path d="M918.719 194.215C935.674 183.349 952.668 168.903 960.596 148.433L941.366 128.165C920.51 135.01 905.189 151.222 893.451 167.585L882.18 184.763C881.145 186.453 880.155 188.085 879.191 189.685L895.902 207.296C897.548 206.416 899.235 205.514 900.974 204.569L918.719 194.215ZM939.669 149.034C941.854 151.429 941.772 155.099 939.453 157.299C937.136 159.497 933.462 159.391 931.187 157.083C929 154.689 929.088 151.015 931.404 148.817C933.723 146.616 937.392 146.726 939.669 149.034Z" fill="url(#paint70_linear_184_319)"/>
<path d="M902.675 209.206L900.973 204.57L918.719 194.216C918.084 197.589 917.069 210.992 917.069 210.992L896.89 227.864L893.182 223.955L902.675 209.206Z" fill="url(#paint71_linear_184_319)"/>
<path d="M876.612 168.354C876.612 168.354 890.047 168.041 893.451 167.586L882.18 184.764L877.64 182.821L862.413 191.528L858.705 187.62L876.612 168.354Z" fill="url(#paint72_linear_184_319)"/>
<path d="M961.464 145.973C963.642 139.451 966.201 124.244 965.987 124.019C965.772 123.793 950.498 125.598 943.871 127.432L961.464 145.973Z" fill="url(#paint73_linear_184_319)"/>
<path d="M877.948 191.743L893.781 208.429L895.902 207.296L879.192 189.685L877.948 191.743Z" fill="url(#paint74_linear_184_319)"/>
<path d="M941.365 128.166L960.596 148.433L961.464 145.973L943.871 127.432L941.365 128.166Z" fill="url(#paint75_linear_184_319)"/>
<path d="M939.453 157.299C941.772 155.098 941.854 151.428 939.669 149.034C937.392 146.726 933.724 146.616 931.405 148.816C929.088 151.014 929.001 154.688 931.187 157.083C933.463 159.391 937.137 159.497 939.453 157.299Z" fill="url(#paint76_linear_184_319)"/>
<path d="M473.999 500.133V467.315H402.968L396 449.557L447.025 333.345H486.587L442.08 434.272H473.999V405.95L481.417 385.495H512.886V434.272H527.946V461.246L512.886 467.315V500.133H473.999Z" fill="#1B0C7B"/>
<g filter="url(#filter0_d_184_319)">
<path d="M671.522 388.504C690.613 432.151 670.708 483.01 627.061 502.101C583.415 521.192 532.556 501.287 513.465 457.64C494.373 413.994 514.279 363.135 557.926 344.043C601.572 324.952 652.431 344.858 671.522 388.504Z" fill="url(#paint77_linear_184_319)"/>
<path d="M558.158 397.853C561.096 404.568 558.034 412.392 551.32 415.33C544.605 418.268 536.78 415.206 533.843 408.492C530.905 401.777 533.967 393.952 540.681 391.015C547.396 388.077 555.221 391.139 558.158 397.853Z" fill="url(#paint78_linear_184_319)"/>
<path d="M639.204 362.717C640.891 364.673 640.572 367.232 638.493 368.431C636.413 369.631 633.36 369.017 631.673 367.061C629.986 365.104 630.305 362.546 632.384 361.346C634.464 360.147 637.517 360.76 639.204 362.717Z" fill="url(#paint79_linear_184_319)"/>
<path d="M669.681 424.712C672.307 425.627 673.41 429.312 672.145 432.945C670.881 436.577 667.727 438.781 665.101 437.866C662.476 436.952 661.373 433.267 662.637 429.634C663.902 426.002 667.056 423.798 669.681 424.712Z" fill="url(#paint80_linear_184_319)"/>
<path d="M589.974 339.932C590.144 341.413 587.183 342.968 583.362 343.405C579.54 343.843 576.305 342.997 576.136 341.516C575.966 340.035 578.927 338.48 582.748 338.043C586.57 337.606 589.805 338.452 589.974 339.932Z" fill="url(#paint81_linear_184_319)"/>
<path d="M622.35 472.63C624.204 482.281 616.424 491.887 604.974 494.086C593.524 496.285 582.739 490.245 580.886 480.594C579.032 470.943 586.812 461.337 598.262 459.138C609.712 456.939 620.497 462.98 622.35 472.63Z" fill="url(#paint82_linear_184_319)"/>
<path d="M563.389 340.589C563.965 341.767 560.534 344.626 555.727 346.974C550.92 349.323 546.557 350.272 545.981 349.094C545.406 347.916 548.836 345.058 553.643 342.709C558.45 340.361 562.814 339.412 563.389 340.589Z" fill="#609AE9"/>
<path d="M564.145 342.137C565.138 344.169 562.046 347.72 557.239 350.069C552.432 352.418 547.73 352.674 546.737 350.642C545.744 348.609 548.836 345.058 553.643 342.71C558.45 340.361 563.152 340.105 564.145 342.137Z" fill="#609AE9"/>
<path d="M560.637 340.833C560.805 341.176 558.211 342.787 554.845 344.432C551.478 346.076 548.613 347.132 548.446 346.789C548.278 346.447 550.872 344.836 554.238 343.191C557.605 341.546 560.47 340.49 560.637 340.833Z" fill="#400003"/>
<path d="M503.248 435.788C505.289 435.167 508.999 441.415 511.535 449.744C514.072 458.073 514.473 465.329 512.433 465.95C510.392 466.572 506.682 460.323 504.146 451.994C501.61 443.665 501.208 436.41 503.248 435.788Z" fill="url(#paint83_linear_184_319)"/>
<path d="M505.929 434.972C509.45 433.899 514.361 439.782 516.897 448.111C519.433 456.44 518.635 464.061 515.113 465.133C511.592 466.206 506.681 460.323 504.145 451.994C501.609 443.665 502.408 436.044 505.929 434.972Z" fill="url(#paint84_linear_184_319)"/>
<path d="M502.932 440.271C503.525 440.091 505.447 444.673 507.223 450.506C508.999 456.34 509.958 461.215 509.364 461.396C508.77 461.577 506.849 456.994 505.073 451.161C503.297 445.328 502.338 440.452 502.932 440.271Z" fill="#000640"/>
<path d="M576.004 506.329C576.083 505.2 583.201 504.424 591.902 504.597C600.602 504.77 607.591 505.825 607.511 506.955C607.431 508.085 600.313 508.86 591.612 508.688C582.912 508.515 575.924 507.459 576.004 506.329Z" fill="url(#paint85_linear_184_319)"/>
<path d="M576.109 504.845C576.247 502.896 583.412 501.455 592.112 501.628C600.812 501.801 607.754 503.521 607.616 505.471C607.478 507.42 600.313 508.86 591.613 508.688C582.912 508.515 575.971 506.794 576.109 504.845Z" fill="url(#paint86_linear_184_319)"/>
<path d="M580.136 507.265C580.16 506.936 585.118 506.768 591.212 506.889C597.305 507.01 602.226 507.375 602.203 507.703C602.179 508.032 597.221 508.2 591.127 508.079C585.034 507.958 580.113 507.594 580.136 507.265Z" fill="#070B2F"/>
<path d="M665.629 471.47C663.933 470.698 665.114 464.461 668.266 457.539C671.418 450.618 675.348 445.633 677.044 446.405C678.74 447.177 677.56 453.414 674.407 460.336C671.255 467.258 667.325 472.243 665.629 471.47Z" fill="url(#paint87_linear_184_319)"/>
<path d="M663.401 470.457C660.474 469.124 660.657 462.433 663.81 455.511C666.962 448.589 671.889 444.058 674.816 445.391C677.742 446.724 677.559 453.415 674.407 460.337C671.255 467.258 666.327 471.789 663.401 470.457Z" fill="url(#paint88_linear_184_319)"/>
<path d="M668.428 468.718C667.934 468.493 669.324 464.381 671.532 459.533C673.739 454.685 675.929 450.938 676.422 451.162C676.916 451.387 675.526 455.499 673.319 460.347C671.111 465.195 668.921 468.942 668.428 468.718Z" fill="#122A4B"/>
<path d="M666.088 375.407C665.129 376.061 662.188 373.417 659.518 369.501C656.849 365.586 655.463 361.881 656.422 361.227C657.382 360.573 660.323 363.217 662.992 367.133C665.662 371.049 667.048 374.753 666.088 375.407Z" fill="url(#paint89_linear_184_319)"/>
<path d="M664.829 376.266C663.173 377.394 659.667 375.135 656.998 371.22C654.329 367.304 653.507 363.215 655.162 362.087C656.818 360.958 660.324 363.217 662.993 367.133C665.662 371.048 666.484 375.137 664.829 376.266Z" fill="url(#paint90_linear_184_319)"/>
<path d="M665.526 373.026C665.247 373.216 663.505 371.147 661.635 368.405C659.766 365.663 658.477 363.286 658.756 363.095C659.035 362.905 660.777 364.974 662.646 367.716C664.516 370.458 665.805 372.836 665.526 373.026Z" fill="#00063B"/>
<path d="M612.353 411.466C612.353 416.047 608.639 419.761 604.059 419.761C599.478 419.761 595.765 416.047 595.765 411.466C595.765 406.886 599.478 403.172 604.059 403.172C608.639 403.172 612.353 406.886 612.353 411.466Z" fill="url(#paint91_linear_184_319)"/>
<path d="M540.692 472.07C538.61 473.863 534.498 472.504 531.509 469.034C528.519 465.563 527.783 461.296 529.865 459.502C531.948 457.708 536.059 459.067 539.049 462.538C542.039 466.008 542.775 470.276 540.692 472.07Z" fill="url(#paint92_linear_184_319)"/>
<path d="M605.718 355.067C605.718 357.815 602.005 360.043 597.424 360.043C592.843 360.043 589.13 357.815 589.13 355.067C589.13 352.318 592.843 350.09 597.424 350.09C602.005 350.09 605.718 352.318 605.718 355.067Z" fill="url(#paint93_linear_184_319)"/>
<path d="M654.665 460.004C656.472 462.075 655.139 466.195 651.687 469.207C648.235 472.218 643.972 472.981 642.165 470.91C640.358 468.839 641.692 464.719 645.143 461.707C648.595 458.696 652.858 457.933 654.665 460.004Z" fill="url(#paint94_linear_184_319)"/>
</g>
<path d="M522.384 351.357L526.251 352.86L538.709 348.35C538.709 348.35 541.274 350.493 542.791 352.001C543.927 353.132 544.812 353.604 545.583 355.009C545.891 355.569 546.423 355.904 546.227 356.512C546.063 357.023 545.653 357.174 545.153 357.371C544.529 357.618 544.1 357.458 543.435 357.371C541.872 357.167 539.998 355.653 539.354 356.083C538.709 356.512 538.642 357.535 538.28 358.875C537.917 360.216 540.494 363.906 539.354 366.823C539.039 367.627 539.054 368.374 538.28 368.756C537.678 369.053 537.205 368.944 536.561 368.756C535.364 368.406 535.155 367.396 534.413 366.393C533.03 364.523 531.835 361.023 531.835 361.023C531.835 361.023 532.665 363.74 532.91 365.534C533.079 366.784 533.433 367.533 533.124 368.756C532.968 369.375 533.015 369.911 532.48 370.26C532.122 370.493 531.834 370.475 531.406 370.475C530.978 370.475 530.72 370.438 530.332 370.26C529.629 369.937 529.466 369.404 529.043 368.756C528.447 367.843 528.376 367.19 527.969 366.178C527.068 363.937 525.821 360.379 525.821 360.379C525.821 360.379 526.24 364.341 525.821 366.823C525.692 367.585 526.044 368.341 525.391 368.756C525.1 368.942 524.878 368.971 524.532 368.971C524.186 368.971 523.985 368.904 523.673 368.756C522.853 368.368 522.8 367.629 522.384 366.823C521.739 365.573 521.568 364.768 521.31 363.386C520.91 361.242 520.777 359.986 520.881 357.801C520.945 356.45 520.991 355.679 521.31 354.364C521.604 353.152 522.384 351.357 522.384 351.357Z" fill="#C0C0C0"/>
<path d="M525.821 291.211C525.821 291.211 539.475 276.497 550.738 271.02C562.767 265.17 584.248 263.931 584.248 263.931C584.248 263.931 592.968 276.561 597.136 285.412C603.402 298.714 607.876 321.499 607.876 321.499L560.834 349.209C560.834 349.209 548.055 334.583 541.502 324.077C533.975 312.011 525.821 291.211 525.821 291.211Z" fill="#CACACA"/>
<path d="M542.576 268.442C531.312 273.92 517.658 288.634 517.658 288.634C517.658 288.634 525.812 309.433 533.339 321.499C539.893 332.005 552.671 346.631 552.671 346.631L560.834 349.209C560.834 349.209 548.055 334.583 541.502 324.077C533.975 312.011 525.821 291.211 525.821 291.211C525.821 291.211 539.475 276.497 550.738 271.02C562.767 265.17 584.248 263.931 584.248 263.931C584.248 263.931 592.968 276.561 597.136 285.412C602.924 297.699 607.183 318.078 607.799 321.116L607.877 321.069C607.877 321.069 605.09 300.287 599.714 288.204C595.145 277.935 584.248 263.931 584.248 263.931L576.085 261.353C576.085 261.353 554.604 262.592 542.576 268.442Z" fill="#ACAAAA"/>
<path d="M517.658 288.634C517.658 288.634 525.812 309.433 533.339 321.499C539.893 332.005 552.671 346.631 552.671 346.631L560.834 349.209C560.834 349.209 548.055 334.583 541.502 324.077C533.975 312.011 525.821 291.211 525.821 291.211L517.658 288.634Z" fill="#BBB8B8"/>
<path d="M531.835 361.024C531.835 361.024 533.03 364.523 534.413 366.394C535.155 367.396 535.364 368.407 536.561 368.757C537.205 368.945 537.678 369.053 538.28 368.757C538.881 368.46 538.426 367.829 538.065 367.468C537.704 367.107 537.226 367.494 536.776 367.253C536.015 366.846 536.157 366.054 535.702 365.32C535.163 364.449 534.713 364.057 534.199 363.172C533.822 362.523 533.938 361.906 533.34 361.453C532.852 361.085 531.835 361.024 531.835 361.024Z" fill="#D6D6D6"/>
<path d="M525.82 360.379C525.82 360.379 527.067 363.938 527.968 366.179C528.375 367.19 528.446 367.843 529.042 368.756C529.465 369.404 529.628 369.937 530.331 370.26C530.72 370.438 530.978 370.475 531.405 370.475C531.833 370.475 531.644 369.961 531.62 369.615C531.575 368.962 531.793 368.855 531.406 368.327C530.827 367.538 530.512 367.685 530.05 366.823C529.482 365.764 528.92 364.468 528.398 363.386C527.99 362.542 528.386 361.931 527.754 361.238C527.392 360.841 526.642 360.467 525.82 360.379Z" fill="#D6D6D6"/>
<path d="M521.31 354.365C520.991 355.679 520.945 356.45 520.881 357.801C520.777 359.986 520.91 361.242 521.31 363.386C521.568 364.769 521.739 365.574 522.384 366.823C522.8 367.63 522.853 368.368 523.673 368.757C523.985 368.905 524.186 368.971 524.532 368.971C524.532 368.971 523.585 366.128 523.244 364.246C522.972 362.751 522.718 361.895 522.814 360.379C522.907 358.917 523.115 358.082 523.673 356.727C524.363 355.049 526.251 352.861 526.251 352.861L522.384 351.357C522.384 351.357 521.604 353.153 521.31 354.365Z" fill="#D6D6D6"/>
<path d="M538.995 283.661C538.952 283.346 539.221 283.082 539.537 283.111C541.16 283.258 542.434 283.224 544.294 283.049C548.103 282.689 550.182 281.862 553.746 280.471C555.46 279.802 556.402 279.372 558.042 278.538C561.133 276.965 562.777 275.881 565.56 273.812C568.216 271.839 569.928 270.884 571.96 268.343C572.112 268.153 572.378 268.092 572.585 268.218C575.23 269.82 575.282 272.581 576.515 274.671C576.515 274.671 571.439 276.555 568.568 279.182C565.458 282.028 563.309 283.087 559.331 284.767C555.586 286.35 552.839 287.049 548.805 287.56C545.294 288.005 541.502 290.137 541.502 290.137C540.162 287.563 539.324 286.046 538.995 283.661Z" fill="url(#paint95_linear_184_319)"/>
<path d="M607.233 380.141C607.405 379.149 607.233 377.564 607.233 377.564L622.269 381.43L621.195 385.082C621.195 385.082 626.823 391.141 627.639 396.037C628.069 398.615 626.844 404.414 623.128 404.414C616.47 404.414 613.834 401.402 610.025 396.896C606.626 392.875 603.437 389.504 604.87 384.437C605.391 382.595 606.906 382.028 607.233 380.141Z" fill="#C0C0C0"/>
<path d="M621.195 385.081L622.269 381.43H616.899C616.899 381.43 615.87 383.36 616.039 384.652C616.257 386.315 617.248 387.119 618.617 388.089C620.046 389.101 621.474 388.379 622.913 389.377C624.237 390.296 624.56 391.284 625.491 392.599C626.405 393.891 627.639 396.036 627.639 396.036C626.823 391.14 621.195 385.081 621.195 385.081Z" fill="#9C9C9C"/>
<path d="M607.233 380.141C606.906 382.028 605.391 382.595 604.87 384.437C603.437 389.504 606.626 392.875 610.025 396.896C613.834 401.402 616.47 404.414 623.128 404.414C623.128 404.414 618.501 403.293 616.04 401.622C613.337 399.786 612.187 398.163 610.455 395.392C609.322 393.579 608.53 392.545 608.092 390.452C607.714 388.646 607.501 387.474 608.092 385.726C608.54 384.404 609.468 383.999 610.025 382.719C610.545 381.525 610.885 379.497 610.885 379.497L607.233 377.564C607.233 377.564 607.405 379.149 607.233 380.141Z" fill="#D6D6D6"/>
<path d="M539.225 284.982C540.513 285.412 543.324 285.609 545.412 285.412C549.221 285.052 551.471 284.44 555.035 283.049C556.749 282.38 557.691 281.95 559.331 281.115C562.421 279.543 564.495 278.243 567.279 276.175C570.047 274.118 573.25 271.879 574.324 269.731C574.754 270.16 575.216 271.423 575.7 273.168C575.7 273.168 572.557 278.488 569.685 281.115C566.576 283.961 564.427 285.02 560.449 286.7C556.704 288.283 553.957 288.982 549.923 289.493C546.412 289.938 540.901 288.634 540.901 288.634C540.471 288.634 539.439 286.271 539.225 284.982Z" fill="url(#paint96_linear_184_319)"/>
<path d="M624.417 265.65C624.417 265.65 625.893 265.524 626.78 265.22C627.774 264.879 628.296 264.554 629.143 263.931C630.099 263.229 630.445 262.615 631.291 261.783C633.83 259.286 637.95 255.554 637.95 255.554C637.95 255.554 638.748 255.197 639.239 255.339C639.642 255.455 639.833 255.658 640.098 255.983C640.334 256.275 640.453 256.475 640.527 256.843C640.628 257.343 640.433 257.636 640.313 258.131C639.768 260.369 637.091 262.975 637.52 263.287L637.95 263.502C638.379 263.502 640.436 261.454 642.246 260.494C643.141 260.02 643.627 259.672 644.609 259.42C645.506 259.19 646.192 258.705 646.972 259.205C647.481 259.532 647.672 259.911 647.831 260.494C647.963 260.98 647.889 261.283 647.831 261.783C647.51 264.553 642.224 265.864 642.675 266.724C642.816 266.991 642.835 267.233 643.105 267.368C643.535 267.583 645.219 267.395 646.542 267.153C648.291 266.834 649.067 265.797 650.838 265.65C651.423 265.601 651.786 265.461 652.342 265.65C652.962 265.86 653.497 266.082 653.631 266.724C653.739 267.243 653.449 267.544 653.201 268.012C652.757 268.851 652.232 269.148 651.483 269.731C650.298 270.652 649.436 270.885 648.046 271.449C646.028 272.269 644.583 271.903 642.675 272.953C641.778 273.447 640.527 273.433 640.527 274.457C640.527 275.96 644.816 276.609 645.253 279.182C645.38 279.927 645.694 280.503 645.253 281.116C644.834 281.697 644.242 281.643 643.535 281.76C641.781 282.05 640.946 280.751 639.239 280.256C637.421 279.73 636.394 279.386 634.513 279.182C632.761 278.993 630.002 279.182 630.002 279.182L629.358 268.872L624.417 265.65Z" fill="#C0C0C0"/>
<path d="M650.837 265.65C649.066 265.797 648.29 266.834 646.541 267.153C646.112 267.368 646.111 267.369 645.897 267.583L645.897 267.583C645.683 267.797 645.408 267.931 645.467 268.227C645.526 268.524 645.827 268.555 646.112 268.657C646.763 268.89 647.184 268.475 647.83 268.227C648.356 268.026 648.582 267.753 649.119 267.583C649.605 267.429 649.903 267.443 650.408 267.368C651.077 267.269 651.464 267.291 652.126 267.153C652.724 267.029 653.764 267.365 653.63 266.724C653.496 266.082 652.961 265.86 652.341 265.65C651.785 265.461 651.423 265.601 650.837 265.65Z" fill="#D6D6D6"/>
<path d="M642.246 260.494C640.527 261.568 639.453 262.428 639.453 262.428C639.453 262.428 638.978 262.824 639.238 263.287C639.576 263.89 640.296 263.921 640.957 263.716C641.471 263.488 641.736 263.31 642.246 263.072C642.825 262.802 643.2 262.754 643.749 262.428C644.516 261.972 644.713 261.399 645.468 260.924C645.944 260.624 646.446 260.748 646.757 260.28C646.993 259.923 647.751 259.706 646.972 259.206C646.192 258.705 645.506 259.19 644.609 259.42C643.627 259.672 643.105 259.957 642.246 260.494Z" fill="#D6D6D6"/>
<path d="M626.779 265.22C625.892 265.524 625.212 265.153 624.417 265.65C622.463 266.869 627.085 269.252 629.357 268.872C630.62 268.66 630.985 267.685 632.15 267.153C632.802 266.856 633.289 266.931 633.868 266.509C634.398 266.123 634.724 265.838 634.942 265.22C635.287 264.241 634.139 263.668 634.298 262.642C634.49 261.399 635.484 261.077 636.231 260.065C636.908 259.147 637.158 258.524 637.949 257.702C638.694 256.928 640.362 256.309 640.097 255.983C639.833 255.658 639.641 255.455 639.238 255.339C638.748 255.197 637.949 255.554 637.949 255.554C637.949 255.554 633.829 259.286 631.29 261.783C630.445 262.615 630.098 263.229 629.142 263.931C628.295 264.554 627.774 264.879 626.779 265.22Z" fill="#D6D6D6"/>
<path d="M582.052 405.405C582.791 404.365 584.017 402.795 584.017 402.795L591.875 404.1L596.922 402.266L600.389 394.748C600.389 394.748 601.226 396.855 601.698 398.228C602.162 399.574 602.573 400.3 602.79 401.708C603.222 404.51 602.652 406.214 601.698 408.885C600.287 412.839 598.317 414.588 595.368 417.585C592.515 420.484 587.073 423.892 587.073 423.892C587.073 423.892 581.13 426.747 578.341 424.762C576.841 423.694 576.259 422.605 575.722 420.847C574.807 417.851 576.328 415.936 577.468 413.017C578.731 409.787 580.042 408.235 582.052 405.405Z" fill="#C0C0C0"/>
<path d="M601.698 398.228C601.225 396.855 600.388 394.748 600.388 394.748C600.388 394.748 595.778 399.242 596.922 402.266C597.531 403.876 599.341 403.87 599.929 405.488C600.827 407.957 599.227 409.611 597.996 411.932C597.014 413.785 596.178 414.67 594.774 416.228C593.184 417.993 592.467 418.764 590.907 420.31C589.452 421.752 587.073 423.892 587.073 423.892C587.073 423.892 592.515 420.484 595.368 417.585C598.316 414.588 600.286 412.839 601.698 408.885C602.652 406.214 603.222 404.51 602.79 401.708C602.573 400.3 602.162 399.574 601.698 398.228Z" fill="#9C9C9C"/>
<path d="M582.053 405.405C580.043 408.235 578.731 409.787 577.469 413.018C576.328 415.937 574.808 417.851 575.722 420.848C576.259 422.607 577.16 424.176 578.342 424.763C578.235 424.089 578.018 424.444 577.805 423.102C577.591 421.761 577.299 420.48 577.469 418.806C577.674 416.785 578.239 415.708 579.094 413.866C580.01 411.89 580.478 410.644 582.053 409.14C582.751 408.472 583.221 408.183 584.017 407.636C586.791 405.73 592.409 406.775 591.876 404.1C591.267 401.049 584.017 402.795 584.017 402.795C584.017 402.795 582.791 404.365 582.053 405.405Z" fill="#D6D6D6"/>
<path d="M539.845 287.058C545.215 287.058 546.615 287.108 550.738 286.271C554.898 285.427 557.23 284.685 561.049 282.834C564.546 281.139 566.468 279.983 569.426 277.464C571.957 275.309 573.937 273.168 575.226 271.234C576.085 272.308 576.043 272.799 576.945 273.383C577.26 273.586 577.447 273.695 577.804 273.812C579.344 274.316 580.098 272.698 581.67 272.308C583.631 271.822 584.811 272.03 586.826 271.879C591.183 271.551 593.638 271.553 597.996 271.234C601.859 270.952 604.058 271.025 607.877 270.375C614.024 269.329 616.9 265.961 623.128 265.65C624.385 265.587 625.122 265.376 626.35 265.65C629.077 266.256 630.064 268.126 631.72 270.375C632.899 271.977 633.766 272.923 634.083 274.886C634.453 277.177 634.34 278.956 632.794 280.686C631.058 282.628 628.757 281.409 626.35 282.404C623.638 283.526 622.716 285.424 619.906 286.271C618.043 286.833 616.849 286.429 614.965 286.915C611.587 287.787 610.259 289.707 607.017 290.997C604.725 291.909 603.428 292.476 601.003 292.93C599.264 293.256 598.258 293.249 596.492 293.359C593.143 293.568 592.84 292.5 588.759 293.359C588.759 294.433 588.782 294.822 589.403 295.722C590.758 297.685 591.804 298.568 593.27 300.448C598.563 307.237 599.236 312.81 605.299 318.921C606.046 319.674 606.666 319.922 607.259 320.801C608.081 322.019 607.596 323.144 608.36 324.399C609.611 326.455 611.298 326.782 613.421 327.916C614.996 328.758 616.1 328.786 617.623 329.715C619.444 330.826 620.213 331.816 621.732 333.313C622.989 334.553 623.54 335.397 624.793 336.643C626.552 338.393 628.063 338.861 629.572 340.831C630.896 342.559 631.519 343.689 632.15 345.772C632.666 347.475 632.889 348.506 632.794 350.283C632.683 352.377 631.87 353.423 631.29 355.438C629.992 359.957 629.669 362.617 628.068 367.038C626.471 371.451 624.471 373.496 623.128 377.993C622.487 380.138 623.415 381.988 621.839 383.578C620.419 385.01 618.915 385.044 616.898 385.081C614.905 385.118 613.739 384.69 611.958 383.793C610.721 383.169 610.001 382.766 609.058 381.752C607.92 380.529 606.357 379.651 606.158 377.993C605.514 372.623 606.488 370.776 607.662 366.393C608.242 364.226 609.604 363.265 609.703 361.023C609.781 359.223 609.52 358.134 608.736 356.512C604.655 354.149 602.292 354.149 594.559 352.646C594.129 352.646 592.84 352.646 591.981 356.727C591.551 359.52 592.315 362.259 593.27 365.964C594.153 369.392 594.402 371.38 595.418 374.771C596.782 379.323 598.119 381.679 599.714 386.156C600.489 388.33 601.325 389.455 601.647 391.74C601.881 393.402 601.923 394.382 601.647 396.037C601.154 398.997 600.449 400.841 598.64 403.34C597.7 404.638 597.271 405.611 595.848 406.347C594.276 407.161 593.106 406.74 591.337 406.777C589.657 406.811 588.691 406.875 587.041 406.562C585.659 406.3 584.764 406.282 583.604 405.488C582.522 404.748 582.232 403.966 581.456 402.91C579.031 399.616 578.123 397.301 576.515 393.459C574.455 388.537 573.805 385.564 572.649 380.356C572.167 378.188 572.055 376.939 571.575 374.771C570.632 370.518 571.059 369.585 568.997 365.749C567.801 363.524 565.795 361.093 564.808 358.768C563.857 356.526 564.272 354.831 563.197 352.646C561.809 349.824 561.908 352.646 558.686 346.202C555.797 340.422 552.242 338.039 550.524 331.81C550.226 330.731 550.11 330.112 549.879 329.017C549.597 327.681 549.5 326.92 549.235 325.58C548.5 321.867 548.161 317.632 547.087 316.129C546.67 316.085 546.432 316.108 546.013 316.129C542.576 316.303 545.425 328.992 542.146 336.321C541.533 337.69 540.829 338.312 540.428 339.757C539.866 341.778 540.869 343.077 540.428 345.128C539.938 347.402 539.385 348.75 537.85 350.498C536.499 352.037 535.501 352.87 533.554 353.505C531.48 354.181 530.14 353.716 527.969 353.505C526.102 353.324 524.864 353.59 523.243 352.646C521.858 351.839 521.064 351.119 520.451 349.639C519.777 348.011 520.64 346.879 520.451 345.128C520.275 343.508 519.85 342.654 519.592 341.046C519.364 339.629 518.968 338.817 519.162 337.395C519.306 336.343 519.774 335.849 520.021 334.817C520.395 333.258 520.416 332.338 520.451 330.736C520.495 328.716 519.921 327.598 520.021 325.58C520.084 324.312 520.287 323.617 520.451 322.358C520.898 318.922 520.552 316.877 521.525 313.551C521.875 312.354 522.061 311.669 522.599 310.544C523.151 309.389 523.607 308.817 524.317 307.751C525.183 306.453 525.826 305.835 526.68 304.529C528.529 301.704 528.761 299.662 530.547 296.796C531.408 295.414 531.85 294.596 532.909 293.359C534.733 291.23 535.773 289.521 538.494 288.849C538.99 288.726 539.407 288.979 539.783 288.634C540.22 288.233 539.684 287.629 539.845 287.058Z" fill="url(#paint97_linear_184_319)"/>
<path d="M607.261 320.801C606.667 319.922 606.047 319.674 605.301 318.921C599.238 312.81 598.565 307.237 593.271 300.448C591.805 298.568 590.759 297.685 589.405 295.722C588.784 294.822 588.76 293.36 588.76 293.36C588.76 293.36 586.61 292.9 585.538 292.071C583.14 290.216 584.034 284.552 583.605 284.552C579.037 284.553 584.278 291.66 585.109 296.152C585.609 298.854 585.811 300.397 586.612 303.026C588.047 307.728 589.302 310.29 591.983 314.41C595.059 319.141 596.715 322.413 601.649 325.151C605.779 327.442 615.546 329.051 613.423 327.916C611.3 326.782 609.613 326.455 608.362 324.399C607.598 323.144 608.083 322.019 607.261 320.801Z" fill="url(#paint98_linear_184_319)"/>
<path d="M588.759 293.36C592.84 292.5 593.143 293.568 596.492 293.36C599.841 293.151 592.851 292.509 590.907 291.211C589.475 290.256 588.828 289.491 587.685 288.204C586.448 286.812 583.604 284.552 583.604 284.552C583.604 284.552 583.516 286.957 583.819 288.204C584.17 289.649 584.018 290.765 585.108 291.856C586.143 292.892 588.759 293.36 588.759 293.36Z" fill="url(#paint99_linear_184_319)"/>
<path d="M594.559 352.646C602.292 354.15 604.655 354.15 608.736 356.512C609.52 358.135 609.782 359.223 609.703 361.023C609.605 363.265 608.243 364.226 607.662 366.394C606.488 370.776 605.514 372.623 606.159 377.993C606.358 379.651 607.921 380.529 609.058 381.752C610.196 382.975 610.643 380.877 610.669 379.926C610.697 378.944 609.545 378.847 609.058 377.993C608.051 376.225 608.167 374.867 608.307 372.838C608.49 370.164 609.818 368.935 610.669 366.394C611.698 363.323 613.574 361.638 613.032 358.446C612.592 355.85 611.583 354.372 609.595 352.646C607.132 350.507 604.909 349.954 601.648 350.068C598.704 350.172 595.203 351.142 594.559 352.646Z" fill="#B26F34"/>
<path d="M562.111 302.596L562.97 301.952C562.97 301.952 563.268 305.356 563.185 307.537C563.101 309.731 563.163 311.016 562.54 313.122C561.72 315.896 560.027 316.907 558.889 319.566C558.189 321.2 557.385 323.862 557.385 323.862C557.385 323.862 556.041 318.193 556.741 316.559C557.879 313.9 559.572 312.888 560.392 310.115C561.015 308.009 560.953 306.724 561.037 304.53C562.111 302.596 562.111 302.596 562.111 302.596Z" fill="#D18643"/>
<path d="M539.783 288.634C539.407 288.979 538.99 288.726 538.494 288.849C535.773 289.521 534.733 291.23 532.909 293.359C531.85 294.596 531.408 295.414 530.547 296.796C528.761 299.662 528.529 301.704 526.68 304.529C525.826 305.835 525.183 306.453 524.317 307.751C523.607 308.817 523.151 309.389 522.599 310.544C522.061 311.669 521.875 312.354 521.525 313.551C520.552 316.877 520.898 318.922 520.451 322.358C520.287 323.617 520.084 324.312 520.021 325.58C519.921 327.598 520.495 328.716 520.451 330.736C520.416 332.338 520.395 333.259 520.021 334.817C519.774 335.849 519.306 336.343 519.162 337.395C518.968 338.817 519.364 339.629 519.592 341.046C519.85 342.654 520.275 343.508 520.451 345.128C520.64 346.879 519.777 348.011 520.451 349.639C521.064 351.119 521.858 351.839 523.243 352.646C524.864 353.59 526.102 353.324 527.969 353.505C529.836 353.686 528.276 344.957 529.043 339.543C530.008 332.732 531.035 328.977 532.909 322.358C534.746 315.875 535.903 312.253 538.494 306.033C541.424 299.003 554.332 291.562 547.301 288.634H539.783Z" fill="#E5A064"/>
<path d="M587.041 406.562C588.691 406.875 591.337 406.777 591.337 406.777C595.61 405.311 588.617 400.27 587.041 396.036C585.615 392.208 584.78 390.068 583.604 386.155C582.655 382.999 582.966 380.923 581.456 377.993C580.249 375.651 578.609 374.949 577.375 372.623C575.208 368.539 575.439 365.626 575.012 361.023C574.648 357.097 575.012 354.87 575.012 350.927C575.012 347.823 575.28 346.072 575.012 342.979C574.784 340.355 575.677 338.298 573.938 336.32C572.548 334.741 571.098 320.802 568.997 320.686C566.586 320.552 565.142 321.401 563.197 322.834C559.783 325.35 555.464 339.757 558.687 346.202C561.909 352.646 561.809 349.824 563.197 352.646C564.272 354.831 563.857 356.526 564.808 358.768C565.795 361.093 567.801 363.524 568.997 365.749C571.06 369.585 570.633 370.518 571.575 374.771C572.055 376.939 572.168 378.187 572.649 380.356L572.682 380.507C573.818 385.622 574.476 388.585 576.515 393.459C578.123 397.301 578.956 399.579 581.456 402.91C582.243 403.958 582.522 404.748 583.604 405.488C584.765 406.282 585.659 406.3 587.041 406.562Z" fill="#E5A064"/>
<path d="M564.221 287.785L564.952 287.334C564.952 287.334 568.805 292.232 570.968 295.581C575.008 301.833 575.968 306.075 579.562 312.593C581.507 316.121 582.778 317.997 584.718 321.528C587.564 326.711 589.903 329.352 591.592 335.018C593.108 340.107 593.31 348.508 593.31 348.508L592.579 348.959C592.579 348.959 592.377 340.559 590.861 335.47C589.172 329.803 586.833 327.162 583.987 321.98C582.047 318.449 580.776 316.573 578.831 313.044C575.237 306.526 574.277 302.284 570.237 296.033C568.074 292.684 564.221 287.785 564.221 287.785Z" fill="url(#paint100_linear_184_319)"/>
<path d="M576.515 273.168C576.515 273.168 577.163 273.577 577.589 273.726C578.448 274.027 578.415 273.897 578.878 273.812C579.737 273.597 580.117 272.885 581.026 272.523C581.593 272.297 581.932 272.219 582.53 272.094C583.6 271.87 584.231 271.949 585.322 271.879C587.333 271.749 588.464 271.754 590.477 271.664C592.239 271.585 593.228 271.551 594.988 271.449C597.339 271.313 598.653 271.169 601.003 271.02C602.429 270.929 604.655 270.805 604.655 270.805C605.045 271.21 605.13 271.557 605.299 272.094C605.978 274.248 604.766 275.885 603.151 277.464C601.33 279.245 599.452 279.106 596.922 279.397C593.645 279.774 591.825 278.659 588.544 278.323C582.61 277.715 573.293 277.464 573.293 277.464L575.226 275.316L576.515 273.168Z" fill="#E49046"/>
<path d="M539.998 288.204C539.998 288.204 553.223 288.933 560.941 285.841C568.37 282.866 576.644 273.168 576.644 273.168C576.836 273.319 576.948 273.397 577.159 273.524C577.159 273.524 568.785 283.38 561.479 286.486C553.559 289.853 539.783 288.634 539.783 288.634C539.936 288.491 539.968 288.394 539.998 288.204Z" fill="url(#paint101_linear_184_319)"/>
<path d="M539.998 288.204C539.998 288.204 553.223 288.933 560.941 285.841C568.37 282.866 576.644 273.168 576.644 273.168C576.836 273.319 576.948 273.397 577.159 273.524C577.159 273.524 568.785 283.38 561.479 286.486C553.559 289.853 539.783 288.634 539.783 288.634C539.936 288.491 539.968 288.394 539.998 288.204Z" fill="url(#paint102_linear_184_319)"/>
<path d="M545.369 301.952H545.798C545.798 301.952 547.674 306.573 547.732 309.685C547.779 312.226 546.657 316.103 546.657 316.103C546.241 316.117 546.411 316.116 546.228 316.116C546.228 316.116 547.383 312.098 547.302 309.47C547.208 306.44 545.369 301.952 545.369 301.952Z" fill="url(#paint103_linear_184_319)"/>
<path d="M512.928 247.433C513.524 244.621 514.217 243.077 515.684 240.559C517.067 238.188 518.115 236.981 520.049 234.975C522.78 232.143 524.624 230.754 528.09 228.745C531.435 226.806 533.533 226.005 537.279 224.879C541.366 223.65 543.787 223.106 548.077 222.945C551.494 222.818 553.452 222.967 556.806 223.59C558.813 223.963 559.975 224.137 561.861 224.879C563.676 225.592 564.654 226.132 566.225 227.242C570.237 230.075 571.334 232.915 573.577 237.123C574.744 239.312 575.259 240.608 576.104 242.922C576.976 245.311 577.516 246.66 577.942 249.152C578.551 252.714 578.947 254.906 577.942 258.388C577.127 261.214 576.074 262.658 574.266 265.047C572.652 267.18 571.573 268.298 569.442 269.988C566.801 272.081 564.906 272.744 561.861 274.284C558.118 276.176 556.032 277.361 551.982 278.58C546.124 280.343 542.366 281.77 536.36 280.513C533.222 279.857 531.504 279.103 528.779 277.506C526.618 276.239 525.555 275.3 523.725 273.64C519.848 270.122 517.865 267.736 515.684 263.114C513.006 257.436 511.636 253.521 512.928 247.433Z" fill="url(#paint104_linear_184_319)"/>
<path d="M516.762 260.321L527.287 277.506C527.287 277.506 524.12 277.663 522.347 276.861C520.346 275.957 519.553 274.773 518.265 272.995C517.011 271.263 516.436 270.125 515.902 268.054C515.212 265.374 516.762 260.321 516.762 260.321Z" fill="#B7B6B2"/>
<path d="M571.575 238.584C571.575 238.584 575.948 240.114 577.123 240.989C578.123 241.734 578.58 242.314 579.271 243.352C580.359 244.987 580.703 246.135 580.989 248.078C581.197 249.489 581.197 250.319 580.989 251.729C580.703 253.672 577.123 259.635 577.123 259.635L571.575 238.584Z" fill="#B7B7C3"/>
<g filter="url(#filter1_f_184_319)">
<path d="M575.834 242.953L576.788 242.278C576.788 242.278 577.723 243.757 578.22 244.753C578.898 246.112 579.208 246.911 579.651 248.354C579.865 249.05 580.237 249.437 580.128 250.154C580.022 250.856 579.174 251.729 579.174 251.729C579.174 251.729 578.689 249.509 578.22 248.129C577.506 246.03 575.834 242.953 575.834 242.953Z" fill="#62635E" fill-opacity="0.5"/>
</g>
<path d="M516.332 250.87C516.89 248.058 517.538 246.514 518.91 243.996C520.203 241.624 521.182 240.418 522.991 238.411C525.544 235.58 527.269 234.191 530.509 232.182C533.637 230.243 535.599 229.442 539.102 228.316C542.923 227.087 545.186 226.543 549.197 226.382C552.392 226.255 554.224 226.403 557.36 227.027C559.236 227.399 560.322 227.574 562.086 228.316C563.783 229.029 564.697 229.568 566.167 230.678C569.918 233.512 570.944 236.352 573.041 240.559C574.132 242.748 574.614 244.045 575.404 246.359C576.219 248.747 576.724 250.097 577.122 252.589C577.691 256.15 578.062 258.343 577.122 261.825C576.36 264.651 575.375 266.095 573.685 268.484C572.176 270.617 571.167 271.735 569.174 273.425C566.705 275.518 564.933 276.181 562.086 277.721C558.586 279.613 556.636 280.798 552.849 282.017C547.372 283.78 543.857 285.207 538.242 283.95C535.308 283.293 533.701 282.54 531.154 280.943C529.133 279.676 528.139 278.737 526.428 277.076C522.803 273.558 520.949 271.173 518.91 266.551C516.405 260.873 515.124 256.957 516.332 250.87Z" fill="url(#paint105_linear_184_319)"/>
<path d="M524.495 254.737C526.428 251.515 527.189 250.41 529.436 248.078C532.008 245.407 533.779 244.194 536.954 242.278C540.039 240.416 541.945 239.643 545.331 238.411C550.057 236.693 552.42 236.263 556.286 236.263C559.019 236.263 560.85 237.964 562.516 240.13C564.664 242.922 565.15 243.562 566.812 246.789C568.139 249.365 569.604 253.663 569.604 253.663C569.604 253.663 570.613 257.314 569.604 259.248C567.027 264.188 562.452 268.142 556.286 271.706C549.852 275.426 547.909 276.862 538.028 276.432C533.302 275.358 526.078 268.396 524.495 260.107C524.163 258.369 523.585 256.254 524.495 254.737Z" fill="url(#paint106_linear_184_319)"/>
<path d="M533.731 244.211C536.843 241.892 538.972 240.801 542.538 239.271C546.002 237.785 548.035 236.941 551.775 236.478C553.11 236.313 555.212 236.264 555.212 236.264C555.212 236.264 547.221 244.628 544.472 251.3C541.439 258.66 541.679 271.492 541.679 271.492L532.657 272.351C532.657 272.351 524.666 258.634 525.999 253.018C526.428 251.209 527.645 249.822 529.22 248.078C530.769 246.362 531.878 245.593 533.731 244.211Z" fill="url(#paint107_linear_184_319)"/>
<path fill-rule="evenodd" clip-rule="evenodd" d="M528.779 247.723C526.449 250.155 525.659 251.306 523.654 254.666C522.814 256.073 523.196 257.973 523.533 259.651C523.575 259.859 523.616 260.065 523.654 260.266C525.296 268.909 532.79 276.168 537.692 277.288C547.454 277.715 549.746 276.377 555.709 272.898L556.632 272.36C563.028 268.644 567.773 264.521 570.446 259.37C571.493 257.353 570.446 253.546 570.446 253.546C570.446 253.546 568.926 249.065 567.55 246.379C565.826 243.014 565.322 242.347 563.094 239.436C561.366 237.177 559.466 235.404 556.632 235.404C552.621 235.404 550.17 235.852 545.268 237.644C541.755 238.928 539.778 239.734 536.578 241.675C533.285 243.674 531.448 244.938 528.779 247.723ZM529.435 248.078C527.189 250.41 526.428 251.514 524.495 254.736C523.686 256.086 524.053 257.907 524.378 259.516C524.418 259.716 524.458 259.914 524.495 260.107C526.078 268.396 533.302 275.358 538.028 276.432C547.438 276.841 549.649 275.558 555.397 272.222C555.684 272.055 555.98 271.883 556.286 271.706C562.452 268.142 567.026 264.188 569.604 259.247C570.613 257.314 569.604 253.662 569.604 253.662C569.604 253.662 568.138 249.365 566.812 246.789C565.15 243.562 564.664 242.922 562.515 240.13C560.849 237.964 559.019 236.263 556.286 236.263C552.42 236.263 550.057 236.693 545.331 238.411C541.945 239.643 540.038 240.416 536.954 242.278C533.779 244.194 532.008 245.407 529.435 248.078Z" fill="url(#paint108_linear_184_319)"/>
<path d="M621.597 356.956C623.404 355.253 625.423 351.787 625.423 351.787C625.423 351.787 624.998 353.131 624.658 353.963C623.873 355.885 623.164 356.781 621.597 358.045C620.036 359.304 617.261 359.949 617.261 359.949C617.261 359.949 620.086 358.381 621.597 356.956Z" fill="#AC7341"/>
<g filter="url(#filter2_d_184_319)">
<path d="M734.744 500.133V467.315H663.713L656.745 449.557L707.77 333.345H747.332L702.825 434.272H734.744V405.95L742.162 385.495H773.631V434.272H788.691V461.246L773.631 467.315V500.133H734.744Z" fill="#1B0C7B"/>
</g>
<defs>
<filter id="filter0_d_184_319" x="490.946" y="332.792" width="187.827" height="180.56" filterUnits="userSpaceOnUse" color-interpolation-filters="sRGB">
<feFlood flood-opacity="0" result="BackgroundImageFix"/>
<feColorMatrix in="SourceAlpha" type="matrix" values="0 0 0 0 0 0 0 0 0 0 0 0 0 0 0 0 0 0 127 0" result="hardAlpha"/>
<feOffset dx="-7"/>
<feGaussianBlur stdDeviation="2"/>
<feColorMatrix type="matrix" values="0 0 0 0 0 0 0 0 0 0 0 0 0 0 0 0 0 0 0.4 0"/>
<feBlend mode="normal" in2="BackgroundImageFix" result="effect1_dropShadow_184_319"/>
<feBlend mode="normal" in="SourceGraphic" in2="effect1_dropShadow_184_319" result="shape"/>
</filter>
<filter id="filter1_f_184_319" x="571.834" y="238.278" width="12.3135" height="17.4515" filterUnits="userSpaceOnUse" color-interpolation-filters="sRGB">
<feFlood flood-opacity="0" result="BackgroundImageFix"/>
<feBlend mode="normal" in="SourceGraphic" in2="BackgroundImageFix" result="shape"/>
<feGaussianBlur stdDeviation="2" result="effect1_foregroundBlur_184_319"/>
</filter>
<filter id="filter2_d_184_319" x="645.745" y="329.345" width="142.946" height="174.787" filterUnits="userSpaceOnUse" color-interpolation-filters="sRGB">
<feFlood flood-opacity="0" result="BackgroundImageFix"/>
<feColorMatrix in="SourceAlpha" type="matrix" values="0 0 0 0 0 0 0 0 0 0 0 0 0 0 0 0 0 0 127 0" result="hardAlpha"/>
<feOffset dx="-7"/>
<feGaussianBlur stdDeviation="2"/>
<feColorMatrix type="matrix" values="0 0 0 0 0 0 0 0 0 0 0 0 0 0 0 0 0 0 0.4 0"/>
<feBlend mode="normal" in2="BackgroundImageFix" result="effect1_dropShadow_184_319"/>
<feBlend mode="normal" in="SourceGraphic" in2="effect1_dropShadow_184_319" result="shape"/>
</filter>
<linearGradient id="paint0_linear_184_319" x1="503.84" y1="809.966" x2="511.349" y2="827.132" gradientUnits="userSpaceOnUse">
<stop stop-color="#111A70"/>
<stop offset="1" stop-color="#0C0E1F"/>
</linearGradient>
<linearGradient id="paint1_linear_184_319" x1="501.967" y1="815.067" x2="503.123" y2="817.707" gradientUnits="userSpaceOnUse">
<stop stop-color="#131421"/>
<stop offset="1" stop-color="#494F8A"/>
</linearGradient>
<linearGradient id="paint2_linear_184_319" x1="511.785" y1="811.716" x2="512.449" y2="812.658" gradientUnits="userSpaceOnUse">
<stop stop-color="#12131F"/>
<stop offset="1" stop-color="#16207A"/>
</linearGradient>
<linearGradient id="paint3_linear_184_319" x1="515.213" y1="819.261" x2="516.245" y2="819.621" gradientUnits="userSpaceOnUse">
<stop stop-color="#0F1124"/>
<stop offset="1" stop-color="#0E144E"/>
</linearGradient>
<linearGradient id="paint4_linear_184_319" x1="506.536" y1="809.314" x2="506.603" y2="809.897" gradientUnits="userSpaceOnUse">
<stop stop-color="#0F1333"/>
<stop offset="1" stop-color="#010B67"/>
</linearGradient>
<linearGradient id="paint5_linear_184_319" x1="508.221" y1="822.466" x2="508.95" y2="826.261" gradientUnits="userSpaceOnUse">
<stop stop-color="#0F1018"/>
<stop offset="1" stop-color="#131949"/>
</linearGradient>
<linearGradient id="paint6_linear_184_319" x1="498.942" y1="823.233" x2="498.041" y2="819.81" gradientUnits="userSpaceOnUse">
<stop stop-color="#410E17"/>
<stop offset="1" stop-color="#4E0F19"/>
</linearGradient>
<linearGradient id="paint7_linear_184_319" x1="499.255" y1="823.137" x2="498.299" y2="819.728" gradientUnits="userSpaceOnUse">
<stop stop-color="#0E1445"/>
<stop offset="1" stop-color="#101753"/>
</linearGradient>
<linearGradient id="paint8_linear_184_319" x1="509.391" y1="827.737" x2="505.797" y2="827.92" gradientUnits="userSpaceOnUse">
<stop stop-color="#1F0B13"/>
<stop offset="1" stop-color="#250B14"/>
</linearGradient>
<linearGradient id="paint9_linear_184_319" x1="509.406" y1="827.522" x2="505.8" y2="827.521" gradientUnits="userSpaceOnUse">
<stop stop-color="#131634"/>
<stop offset="1" stop-color="#0D0F28"/>
</linearGradient>
<linearGradient id="paint10_linear_184_319" x1="515.516" y1="823.774" x2="516.777" y2="821.071" gradientUnits="userSpaceOnUse">
<stop stop-color="#240B14"/>
<stop offset="1" stop-color="#2D0C15"/>
</linearGradient>
<linearGradient id="paint11_linear_184_319" x1="515.254" y1="823.654" x2="516.504" y2="820.947" gradientUnits="userSpaceOnUse">
<stop stop-color="#0E112C"/>
<stop offset="1" stop-color="#0B0E2A"/>
</linearGradient>
<linearGradient id="paint12_linear_184_319" x1="514.435" y1="811.704" x2="515.697" y2="813.325" gradientUnits="userSpaceOnUse">
<stop stop-color="#510F19"/>
<stop offset="1" stop-color="#4A0E18"/>
</linearGradient>
<linearGradient id="paint13_linear_184_319" x1="514.291" y1="811.801" x2="515.511" y2="813.458" gradientUnits="userSpaceOnUse">
<stop stop-color="#101753"/>
<stop offset="1" stop-color="#0D1245"/>
</linearGradient>
<linearGradient id="paint14_linear_184_319" x1="384.916" y1="1.6234" x2="398.694" y2="33.1222" gradientUnits="userSpaceOnUse">
<stop stop-color="#111A70"/>
<stop offset="1" stop-color="#0C0E1F"/>
</linearGradient>
<linearGradient id="paint15_linear_184_319" x1="381.48" y1="10.9831" x2="383.6" y2="15.829" gradientUnits="userSpaceOnUse">
<stop stop-color="#131421"/>
<stop offset="1" stop-color="#494F8A"/>
</linearGradient>
<linearGradient id="paint16_linear_184_319" x1="399.495" y1="4.83518" x2="400.713" y2="6.56338" gradientUnits="userSpaceOnUse">
<stop stop-color="#12131F"/>
<stop offset="1" stop-color="#16207A"/>
</linearGradient>
<linearGradient id="paint17_linear_184_319" x1="405.785" y1="18.6801" x2="407.679" y2="19.3399" gradientUnits="userSpaceOnUse">
<stop stop-color="#0F1124"/>
<stop offset="1" stop-color="#0E144E"/>
</linearGradient>
<linearGradient id="paint18_linear_184_319" x1="389.864" y1="0.427598" x2="389.986" y2="1.49643" gradientUnits="userSpaceOnUse">
<stop stop-color="#0F1333"/>
<stop offset="1" stop-color="#010B67"/>
</linearGradient>
<linearGradient id="paint19_linear_184_319" x1="392.956" y1="24.5601" x2="394.293" y2="31.5251" gradientUnits="userSpaceOnUse">
<stop stop-color="#0F1018"/>
<stop offset="1" stop-color="#131949"/>
</linearGradient>
<linearGradient id="paint20_linear_184_319" x1="375.928" y1="25.9688" x2="374.275" y2="19.6878" gradientUnits="userSpaceOnUse">
<stop stop-color="#410E17"/>
<stop offset="1" stop-color="#4E0F19"/>
</linearGradient>
<linearGradient id="paint21_linear_184_319" x1="376.504" y1="25.7929" x2="374.749" y2="19.5364" gradientUnits="userSpaceOnUse">
<stop stop-color="#0E1445"/>
<stop offset="1" stop-color="#101753"/>
</linearGradient>
<linearGradient id="paint22_linear_184_319" x1="395.103" y1="34.2335" x2="388.508" y2="34.5683" gradientUnits="userSpaceOnUse">
<stop stop-color="#1F0B13"/>
<stop offset="1" stop-color="#250B14"/>
</linearGradient>
<linearGradient id="paint23_linear_184_319" x1="395.13" y1="33.8377" x2="388.512" y2="33.8361" gradientUnits="userSpaceOnUse">
<stop stop-color="#131634"/>
<stop offset="1" stop-color="#0D0F28"/>
</linearGradient>
<linearGradient id="paint24_linear_184_319" x1="406.341" y1="26.9604" x2="408.655" y2="22.0015" gradientUnits="userSpaceOnUse">
<stop stop-color="#240B14"/>
<stop offset="1" stop-color="#2D0C15"/>
</linearGradient>
<linearGradient id="paint25_linear_184_319" x1="405.86" y1="26.7407" x2="408.154" y2="21.7729" gradientUnits="userSpaceOnUse">
<stop stop-color="#0E112C"/>
<stop offset="1" stop-color="#0B0E2A"/>
</linearGradient>
<linearGradient id="paint26_linear_184_319" x1="404.358" y1="4.8122" x2="406.672" y2="7.78755" gradientUnits="userSpaceOnUse">
<stop stop-color="#510F19"/>
<stop offset="1" stop-color="#4A0E18"/>
</linearGradient>
<linearGradient id="paint27_linear_184_319" x1="404.094" y1="4.99177" x2="406.332" y2="8.03113" gradientUnits="userSpaceOnUse">
<stop stop-color="#101753"/>
<stop offset="1" stop-color="#0D1245"/>
</linearGradient>
<linearGradient id="paint28_linear_184_319" x1="1166.49" y1="681.614" x2="1191.41" y2="738.577" gradientUnits="userSpaceOnUse">
<stop stop-color="#121F96"/>
<stop offset="1" stop-color="#070A28"/>
</linearGradient>
<linearGradient id="paint29_linear_184_319" x1="1160.28" y1="698.542" x2="1164.11" y2="707.305" gradientUnits="userSpaceOnUse">
<stop stop-color="#0D0F25"/>
<stop offset="1" stop-color="#0C1569"/>
</linearGradient>
<linearGradient id="paint30_linear_184_319" x1="1193.21" y1="687.266" x2="1195.42" y2="690.391" gradientUnits="userSpaceOnUse">
<stop stop-color="#18090F"/>
<stop offset="1" stop-color="#1A29AF"/>
</linearGradient>
<linearGradient id="paint31_linear_184_319" x1="1204.23" y1="712.46" x2="1207.66" y2="713.653" gradientUnits="userSpaceOnUse">
<stop stop-color="#111642"/>
<stop offset="1" stop-color="#0E186B"/>
</linearGradient>
<linearGradient id="paint32_linear_184_319" x1="1177.2" y1="681.429" x2="1177.07" y2="679.193" gradientUnits="userSpaceOnUse">
<stop stop-color="#170F49"/>
<stop offset="0.33114" stop-color="#1A0E62"/>
<stop offset="1" stop-color="#1E0B93"/>
</linearGradient>
<linearGradient id="paint33_linear_184_319" x1="1178.63" y1="723.637" x2="1184.93" y2="735.289" gradientUnits="userSpaceOnUse">
<stop stop-color="#0E1020"/>
<stop offset="1" stop-color="#2C186C"/>
</linearGradient>
<linearGradient id="paint34_linear_184_319" x1="1149.84" y1="725.588" x2="1145.88" y2="714.924" gradientUnits="userSpaceOnUse">
<stop stop-color="#170F49"/>
<stop offset="0.33114" stop-color="#1A0E62"/>
<stop offset="1" stop-color="#1E0B93"/>
</linearGradient>
<linearGradient id="paint35_linear_184_319" x1="1151.28" y1="725.324" x2="1148.11" y2="714.009" gradientUnits="userSpaceOnUse">
<stop stop-color="#170F49"/>
<stop offset="0.33114" stop-color="#1A0E62"/>
<stop offset="1" stop-color="#1E0B93"/>
</linearGradient>
<linearGradient id="paint36_linear_184_319" x1="1148.64" y1="723.925" x2="1145.46" y2="716.88" gradientUnits="userSpaceOnUse">
<stop stop-color="#170F49"/>
<stop offset="0.33114" stop-color="#1A0E62"/>
<stop offset="1" stop-color="#1E0B93"/>
</linearGradient>
<linearGradient id="paint37_linear_184_319" x1="1184.91" y1="740.587" x2="1172.99" y2="741.192" gradientUnits="userSpaceOnUse">
<stop stop-color="#080B26"/>
<stop offset="1" stop-color="#080C30"/>
</linearGradient>
<linearGradient id="paint38_linear_184_319" x1="1184.96" y1="739.87" x2="1172.99" y2="739.868" gradientUnits="userSpaceOnUse">
<stop stop-color="#0C1032"/>
<stop offset="1" stop-color="#0C113A"/>
</linearGradient>
<linearGradient id="paint39_linear_184_319" x1="1205.24" y1="727.434" x2="1209.42" y2="718.467" gradientUnits="userSpaceOnUse">
<stop stop-color="#0A0F37"/>
<stop offset="1" stop-color="#0B103D"/>
</linearGradient>
<linearGradient id="paint40_linear_184_319" x1="1204.36" y1="727.037" x2="1208.51" y2="718.053" gradientUnits="userSpaceOnUse">
<stop stop-color="#080C2E"/>
<stop offset="1" stop-color="#0B1144"/>
</linearGradient>
<linearGradient id="paint41_linear_184_319" x1="1204.95" y1="692.964" x2="1203.83" y2="687.422" gradientUnits="userSpaceOnUse">
<stop stop-color="#170F49"/>
<stop offset="0.33114" stop-color="#1A0E62"/>
<stop offset="1" stop-color="#1E0B93"/>
</linearGradient>
<linearGradient id="paint42_linear_184_319" x1="1204.63" y1="693.342" x2="1203.56" y2="687.621" gradientUnits="userSpaceOnUse">
<stop stop-color="#170F49"/>
<stop offset="0.33114" stop-color="#1A0E62"/>
<stop offset="1" stop-color="#1E0B93"/>
</linearGradient>
<linearGradient id="paint43_linear_184_319" x1="1204.87" y1="692.071" x2="1204.06" y2="688.246" gradientUnits="userSpaceOnUse">
<stop stop-color="#170F49"/>
<stop offset="0.33114" stop-color="#1A0E62"/>
<stop offset="1" stop-color="#1E0B93"/>
</linearGradient>
<linearGradient id="paint44_linear_184_319" x1="1185.09" y1="708.915" x2="1184.15" y2="702.395" gradientUnits="userSpaceOnUse">
<stop stop-color="#170F49"/>
<stop offset="0.33114" stop-color="#1A0E62"/>
<stop offset="1" stop-color="#1E0B93"/>
</linearGradient>
<linearGradient id="paint45_linear_184_319" x1="1159.9" y1="728.05" x2="1159.04" y2="722.506" gradientUnits="userSpaceOnUse">
<stop stop-color="#170F49"/>
<stop offset="0.33114" stop-color="#1A0E62"/>
<stop offset="1" stop-color="#1E0B93"/>
</linearGradient>
<linearGradient id="paint46_linear_184_319" x1="1182.7" y1="687.388" x2="1182.36" y2="683.424" gradientUnits="userSpaceOnUse">
<stop stop-color="#170F49"/>
<stop offset="0.33114" stop-color="#1A0E62"/>
<stop offset="1" stop-color="#1E0B93"/>
</linearGradient>
<linearGradient id="paint47_linear_184_319" x1="1200.78" y1="727.766" x2="1200.07" y2="722.551" gradientUnits="userSpaceOnUse">
<stop stop-color="#170F49"/>
<stop offset="0.33114" stop-color="#1A0E62"/>
<stop offset="1" stop-color="#1E0B93"/>
</linearGradient>
<linearGradient id="paint48_linear_184_319" x1="20.4909" y1="479.614" x2="45.4073" y2="536.577" gradientUnits="userSpaceOnUse">
<stop stop-color="#121F96"/>
<stop offset="1" stop-color="#070A28"/>
</linearGradient>
<linearGradient id="paint49_linear_184_319" x1="14.276" y1="496.542" x2="18.1101" y2="505.305" gradientUnits="userSpaceOnUse">
<stop stop-color="#0D0F25"/>
<stop offset="1" stop-color="#0C1569"/>
</linearGradient>
<linearGradient id="paint50_linear_184_319" x1="47.2128" y1="485.266" x2="49.4167" y2="488.391" gradientUnits="userSpaceOnUse">
<stop stop-color="#18090F"/>
<stop offset="1" stop-color="#1A29AF"/>
</linearGradient>
<linearGradient id="paint51_linear_184_319" x1="58.2289" y1="510.46" x2="61.6555" y2="511.653" gradientUnits="userSpaceOnUse">
<stop stop-color="#111642"/>
<stop offset="1" stop-color="#0E186B"/>
</linearGradient>
<linearGradient id="paint52_linear_184_319" x1="31.197" y1="479.429" x2="31.0661" y2="477.193" gradientUnits="userSpaceOnUse">
<stop stop-color="#170F49"/>
<stop offset="0.33114" stop-color="#1A0E62"/>
<stop offset="1" stop-color="#1E0B93"/>
</linearGradient>
<linearGradient id="paint53_linear_184_319" x1="32.6343" y1="521.637" x2="38.9328" y2="533.289" gradientUnits="userSpaceOnUse">
<stop stop-color="#0E1020"/>
<stop offset="1" stop-color="#2C186C"/>
</linearGradient>
<linearGradient id="paint54_linear_184_319" x1="3.84407" y1="523.588" x2="-0.120583" y2="512.924" gradientUnits="userSpaceOnUse">
<stop stop-color="#170F49"/>
<stop offset="0.33114" stop-color="#1A0E62"/>
<stop offset="1" stop-color="#1E0B93"/>
</linearGradient>
<linearGradient id="paint55_linear_184_319" x1="5.27821" y1="523.324" x2="2.10526" y2="512.009" gradientUnits="userSpaceOnUse">
<stop stop-color="#170F49"/>
<stop offset="0.33114" stop-color="#1A0E62"/>
<stop offset="1" stop-color="#1E0B93"/>
</linearGradient>
<linearGradient id="paint56_linear_184_319" x1="2.638" y1="521.925" x2="-0.542478" y2="514.88" gradientUnits="userSpaceOnUse">
<stop stop-color="#170F49"/>
<stop offset="0.33114" stop-color="#1A0E62"/>
<stop offset="1" stop-color="#1E0B93"/>
</linearGradient>
<linearGradient id="paint57_linear_184_319" x1="38.9112" y1="538.587" x2="26.9853" y2="539.192" gradientUnits="userSpaceOnUse">
<stop stop-color="#080B26"/>
<stop offset="1" stop-color="#080C30"/>
</linearGradient>
<linearGradient id="paint58_linear_184_319" x1="38.9615" y1="537.87" x2="26.9928" y2="537.868" gradientUnits="userSpaceOnUse">
<stop stop-color="#0C1032"/>
<stop offset="1" stop-color="#0C113A"/>
</linearGradient>
<linearGradient id="paint59_linear_184_319" x1="59.2376" y1="525.434" x2="63.4225" y2="516.467" gradientUnits="userSpaceOnUse">
<stop stop-color="#0A0F37"/>
<stop offset="1" stop-color="#0B103D"/>
</linearGradient>
<linearGradient id="paint60_linear_184_319" x1="58.3643" y1="525.037" x2="62.5143" y2="516.053" gradientUnits="userSpaceOnUse">
<stop stop-color="#080C2E"/>
<stop offset="1" stop-color="#0B1144"/>
</linearGradient>
<linearGradient id="paint61_linear_184_319" x1="58.954" y1="490.964" x2="57.8302" y2="485.422" gradientUnits="userSpaceOnUse">
<stop stop-color="#170F49"/>
<stop offset="0.33114" stop-color="#1A0E62"/>
<stop offset="1" stop-color="#1E0B93"/>
</linearGradient>
<linearGradient id="paint62_linear_184_319" x1="58.6312" y1="491.342" x2="57.5556" y2="485.622" gradientUnits="userSpaceOnUse">
<stop stop-color="#170F49"/>
<stop offset="0.33114" stop-color="#1A0E62"/>
<stop offset="1" stop-color="#1E0B93"/>
</linearGradient>
<linearGradient id="paint63_linear_184_319" x1="58.8651" y1="490.071" x2="58.0591" y2="486.246" gradientUnits="userSpaceOnUse">
<stop stop-color="#170F49"/>
<stop offset="0.33114" stop-color="#1A0E62"/>
<stop offset="1" stop-color="#1E0B93"/>
</linearGradient>
<linearGradient id="paint64_linear_184_319" x1="39.0924" y1="506.915" x2="38.1477" y2="500.395" gradientUnits="userSpaceOnUse">
<stop stop-color="#170F49"/>
<stop offset="0.33114" stop-color="#1A0E62"/>
<stop offset="1" stop-color="#1E0B93"/>
</linearGradient>
<linearGradient id="paint65_linear_184_319" x1="13.9003" y1="526.05" x2="13.0388" y2="520.506" gradientUnits="userSpaceOnUse">
<stop stop-color="#170F49"/>
<stop offset="0.33114" stop-color="#1A0E62"/>
<stop offset="1" stop-color="#1E0B93"/>
</linearGradient>
<linearGradient id="paint66_linear_184_319" x1="36.7008" y1="485.388" x2="36.3562" y2="481.424" gradientUnits="userSpaceOnUse">
<stop stop-color="#170F49"/>
<stop offset="0.33114" stop-color="#1A0E62"/>
<stop offset="1" stop-color="#1E0B93"/>
</linearGradient>
<linearGradient id="paint67_linear_184_319" x1="54.7833" y1="525.766" x2="54.0744" y2="520.551" gradientUnits="userSpaceOnUse">
<stop stop-color="#170F49"/>
<stop offset="0.33114" stop-color="#1A0E62"/>
<stop offset="1" stop-color="#1E0B93"/>
</linearGradient>
<linearGradient id="paint68_linear_184_319" x1="855.108" y1="227.486" x2="888.291" y2="196.552" gradientUnits="userSpaceOnUse">
<stop stop-color="#F67C01"/>
<stop offset="1" stop-color="#BB5E00"/>
</linearGradient>
<linearGradient id="paint69_linear_184_319" x1="910.49" y1="146.852" x2="942.375" y2="180.456" gradientUnits="userSpaceOnUse">
<stop offset="0.213542" stop-color="#D2CECE"/>
<stop offset="1" stop-color="#393535"/>
</linearGradient>
<linearGradient id="paint70_linear_184_319" x1="910.49" y1="146.852" x2="942.375" y2="180.456" gradientUnits="userSpaceOnUse">
<stop offset="0.213542" stop-color="#D2CECE"/>
<stop offset="1" stop-color="#393535"/>
</linearGradient>
<linearGradient id="paint71_linear_184_319" x1="898.807" y1="201.841" x2="914.085" y2="217.943" gradientUnits="userSpaceOnUse">
<stop stop-color="#404040"/>
<stop offset="1"/>
</linearGradient>
<linearGradient id="paint72_linear_184_319" x1="884.857" y1="187.139" x2="868.25" y2="169.637" gradientUnits="userSpaceOnUse">
<stop/>
<stop offset="1" stop-color="#7A7A7A"/>
</linearGradient>
<linearGradient id="paint73_linear_184_319" x1="945.207" y1="124.553" x2="965.8" y2="146.256" gradientUnits="userSpaceOnUse">
<stop stop-color="#8C8B8B"/>
<stop offset="1"/>
</linearGradient>
<linearGradient id="paint74_linear_184_319" x1="874.014" y1="184.124" x2="901.914" y2="213.527" gradientUnits="userSpaceOnUse">
<stop offset="0.1875" stop-color="white"/>
<stop offset="1" stop-color="#393535"/>
</linearGradient>
<linearGradient id="paint75_linear_184_319" x1="939.085" y1="123.71" x2="966.985" y2="153.113" gradientUnits="userSpaceOnUse">
<stop offset="0.135417" stop-color="white"/>
<stop offset="1" stop-color="#393535"/>
</linearGradient>
<linearGradient id="paint76_linear_184_319" x1="939.555" y1="157.855" x2="930.919" y2="148.754" gradientUnits="userSpaceOnUse">
<stop offset="0.0885417" stop-color="#212121"/>
<stop offset="1" stop-color="#606060"/>
</linearGradient>
<linearGradient id="paint77_linear_184_319" x1="557.926" y1="344.044" x2="627.062" y2="502.101" gradientUnits="userSpaceOnUse">
<stop stop-color="#609AE9"/>
<stop offset="1" stop-color="#494F8A"/>
</linearGradient>
<linearGradient id="paint78_linear_184_319" x1="540.681" y1="391.014" x2="551.32" y2="415.33" gradientUnits="userSpaceOnUse">
<stop stop-color="#494F8A"/>
<stop offset="1" stop-color="#609AE9"/>
</linearGradient>
<linearGradient id="paint79_linear_184_319" x1="632.384" y1="361.346" x2="636.976" y2="369.306" gradientUnits="userSpaceOnUse">
<stop stop-color="#494F8A"/>
<stop offset="1" stop-color="#609AE9"/>
</linearGradient>
<linearGradient id="paint80_linear_184_319" x1="662.637" y1="429.634" x2="672.145" y2="432.945" gradientUnits="userSpaceOnUse">
<stop stop-color="#050A38"/>
<stop offset="1" stop-color="#073A81"/>
</linearGradient>
<linearGradient id="paint81_linear_184_319" x1="582.748" y1="338.043" x2="583.362" y2="343.405" gradientUnits="userSpaceOnUse">
<stop stop-color="#420609"/>
<stop offset="1" stop-color="#DF131E"/>
</linearGradient>
<linearGradient id="paint82_linear_184_319" x1="598.262" y1="459.138" x2="604.974" y2="494.086" gradientUnits="userSpaceOnUse">
<stop stop-color="#609AE9"/>
<stop offset="1" stop-color="#494F8A"/>
</linearGradient>
<linearGradient id="paint83_linear_184_319" x1="512.824" y1="466.207" x2="504.53" y2="434.689" gradientUnits="userSpaceOnUse">
<stop stop-color="#609AE9"/>
<stop offset="1" stop-color="#101D8D"/>
</linearGradient>
<linearGradient id="paint84_linear_184_319" x1="515.712" y1="465.327" x2="506.908" y2="433.931" gradientUnits="userSpaceOnUse">
<stop stop-color="#170F49"/>
<stop offset="0.33114" stop-color="#1A0E62"/>
<stop offset="1" stop-color="#1E0B93"/>
</linearGradient>
<linearGradient id="paint85_linear_184_319" x1="609.035" y1="506.292" x2="575.944" y2="507.973" gradientUnits="userSpaceOnUse">
<stop stop-color="#00052F"/>
<stop offset="1" stop-color="#010739"/>
</linearGradient>
<linearGradient id="paint86_linear_184_319" x1="609.176" y1="504.305" x2="575.966" y2="504.298" gradientUnits="userSpaceOnUse">
<stop stop-color="#01052F"/>
<stop offset="0.589" stop-color="#0E0325"/>
<stop offset="1" stop-color="#02083B"/>
</linearGradient>
<linearGradient id="paint87_linear_184_319" x1="665.435" y1="471.183" x2="677.047" y2="446.3" gradientUnits="userSpaceOnUse">
<stop stop-color="#010631"/>
<stop offset="1" stop-color="#02094D"/>
</linearGradient>
<linearGradient id="paint88_linear_184_319" x1="663.011" y1="470.08" x2="674.526" y2="445.152" gradientUnits="userSpaceOnUse">
<stop stop-color="#010737"/>
<stop offset="1" stop-color="#021D41"/>
</linearGradient>
<linearGradient id="paint89_linear_184_319" x1="655.482" y1="360.043" x2="667.094" y2="374.972" gradientUnits="userSpaceOnUse">
<stop stop-color="#92090E"/>
<stop offset="1" stop-color="#82070C"/>
</linearGradient>
<linearGradient id="paint90_linear_184_319" x1="663.753" y1="376.589" x2="660.769" y2="360.716" gradientUnits="userSpaceOnUse">
<stop stop-color="#170F49"/>
<stop offset="0.33114" stop-color="#1A0E62"/>
<stop offset="1" stop-color="#1E0B93"/>
</linearGradient>
<linearGradient id="paint91_linear_184_319" x1="609.538" y1="419.797" x2="606.917" y2="401.707" gradientUnits="userSpaceOnUse">
<stop stop-color="#170F49"/>
<stop offset="0.33114" stop-color="#1A0E62"/>
<stop offset="1" stop-color="#1E0B93"/>
</linearGradient>
<linearGradient id="paint92_linear_184_319" x1="539.637" y1="472.892" x2="537.247" y2="457.508" gradientUnits="userSpaceOnUse">
<stop stop-color="#170F49"/>
<stop offset="0.33114" stop-color="#1A0E62"/>
<stop offset="1" stop-color="#1E0B93"/>
</linearGradient>
<linearGradient id="paint93_linear_184_319" x1="602.903" y1="360.065" x2="601.947" y2="349.067" gradientUnits="userSpaceOnUse">
<stop stop-color="#170F49"/>
<stop offset="0.33114" stop-color="#1A0E62"/>
<stop offset="1" stop-color="#1E0B93"/>
</linearGradient>
<linearGradient id="paint94_linear_184_319" x1="653.076" y1="472.105" x2="651.11" y2="457.634" gradientUnits="userSpaceOnUse">
<stop stop-color="#170F49"/>
<stop offset="0.33114" stop-color="#1A0E62"/>
<stop offset="1" stop-color="#1E0B93"/>
</linearGradient>
<linearGradient id="paint95_linear_184_319" x1="567.923" y1="270.59" x2="538.924" y2="286.486" gradientUnits="userSpaceOnUse">
<stop stop-color="#778186"/>
<stop offset="1" stop-color="#474B4C"/>
</linearGradient>
<linearGradient id="paint96_linear_184_319" x1="568.353" y1="271.879" x2="540.428" y2="286.915" gradientUnits="userSpaceOnUse">
<stop stop-color="#C1C1C1"/>
<stop offset="1" stop-color="#929292"/>
</linearGradient>
<linearGradient id="paint97_linear_184_319" x1="597.351" y1="270.805" x2="571.145" y2="411.073" gradientUnits="userSpaceOnUse">
<stop stop-color="#D4853F"/>
<stop offset="1" stop-color="#D79962"/>
</linearGradient>
<linearGradient id="paint98_linear_184_319" x1="597.352" y1="270.805" x2="571.145" y2="411.073" gradientUnits="userSpaceOnUse">
<stop stop-color="#A25D21"/>
<stop offset="1" stop-color="#D79962"/>
</linearGradient>
<linearGradient id="paint99_linear_184_319" x1="597.352" y1="270.805" x2="571.145" y2="411.073" gradientUnits="userSpaceOnUse">
<stop stop-color="#995316"/>
<stop offset="1" stop-color="#D79962"/>
</linearGradient>
<linearGradient id="paint100_linear_184_319" x1="576.3" y1="312.907" x2="580.167" y2="310.974" gradientUnits="userSpaceOnUse">
<stop stop-color="#6A4222"/>
<stop offset="1" stop-color="#D58947"/>
</linearGradient>
<linearGradient id="paint101_linear_184_319" x1="554.82" y1="284.338" x2="556.109" y2="288.419" gradientUnits="userSpaceOnUse">
<stop stop-color="#D48845"/>
<stop offset="1" stop-color="#4E3219"/>
</linearGradient>
<linearGradient id="paint102_linear_184_319" x1="573.938" y1="275.101" x2="576.73" y2="274.886" gradientUnits="userSpaceOnUse">
<stop stop-color="#D48641" stop-opacity="0"/>
<stop offset="1" stop-color="#4E3219"/>
</linearGradient>
<linearGradient id="paint103_linear_184_319" x1="545.583" y1="302.596" x2="547.019" y2="316.159" gradientUnits="userSpaceOnUse">
<stop stop-color="#D58A49"/>
<stop offset="1" stop-color="#281709"/>
</linearGradient>
<linearGradient id="paint104_linear_184_319" x1="515.014" y1="243.954" x2="565.923" y2="252.117" gradientUnits="userSpaceOnUse">
<stop stop-color="#9F9F9F"/>
<stop offset="1" stop-color="#787877"/>
</linearGradient>
<linearGradient id="paint105_linear_184_319" x1="515.873" y1="251.687" x2="555.182" y2="252.761" gradientUnits="userSpaceOnUse">
<stop stop-color="#CBCBCB"/>
<stop offset="1" stop-color="#828380"/>
</linearGradient>
<linearGradient id="paint106_linear_184_319" x1="525.354" y1="256.885" x2="569.175" y2="257.959" gradientUnits="userSpaceOnUse">
<stop stop-color="#1B0A5D"/>
<stop offset="0.390625" stop-color="#1B0A5D"/>
<stop offset="0.970597" stop-color="#010005"/>
</linearGradient>
<linearGradient id="paint107_linear_184_319" x1="555.427" y1="238.626" x2="532.228" y2="255.381" gradientUnits="userSpaceOnUse">
<stop stop-color="#FFF9FF" stop-opacity="0.36"/>
<stop offset="1" stop-color="#1B0A5D" stop-opacity="0"/>
</linearGradient>
<linearGradient id="paint108_linear_184_319" x1="523.176" y1="256.413" x2="570.863" y2="256.413" gradientUnits="userSpaceOnUse">
<stop stop-color="#5B5C59"/>
<stop offset="1" stop-color="#3F403E"/>
</linearGradient>
</defs>
</svg>
