<svg width="1600" height="959" viewBox="0 0 1600 959" fill="none" xmlns="http://www.w3.org/2000/svg">
<ellipse cx="28.4245" cy="0.560165" rx="0.498677" ry="0.560165" fill="white"/>
<ellipse cx="103.227" cy="0.560165" rx="0.498679" ry="0.560165" fill="white"/>
<ellipse cx="178.029" cy="0.560165" rx="0.498679" ry="0.560165" fill="white"/>
<ellipse cx="252.831" cy="0.560165" rx="0.498673" ry="0.560165" fill="white"/>
<ellipse cx="327.633" cy="0.560165" rx="0.498679" ry="0.560165" fill="white"/>
<ellipse cx="402.435" cy="0.560165" rx="0.498679" ry="0.560165" fill="white"/>
<ellipse cx="477.236" cy="0.560165" rx="0.498625" ry="0.560165" fill="white"/>
<ellipse cx="552.039" cy="0.560165" rx="0.498666" ry="0.560165" fill="white"/>
<ellipse cx="626.841" cy="0.560165" rx="0.498693" ry="0.560165" fill="white"/>
<ellipse cx="701.643" cy="0.560165" rx="0.498693" ry="0.560165" fill="white"/>
<ellipse cx="63.3322" cy="56.5764" rx="0.498679" ry="0.560165" fill="white"/>
<ellipse cx="138.134" cy="56.5764" rx="0.49869" ry="0.560165" fill="white"/>
<ellipse cx="212.937" cy="56.5764" rx="0.498679" ry="0.560165" fill="white"/>
<ellipse cx="287.738" cy="56.5764" rx="0.498666" ry="0.560165" fill="white"/>
<ellipse cx="362.541" cy="56.5764" rx="0.498693" ry="0.560165" fill="white"/>
<ellipse cx="437.342" cy="56.5764" rx="0.498679" ry="0.560165" fill="white"/>
<ellipse cx="512.144" cy="56.5764" rx="0.498693" ry="0.560165" fill="white"/>
<ellipse cx="586.946" cy="56.5764" rx="0.498666" ry="0.560165" fill="white"/>
<ellipse cx="661.749" cy="56.5764" rx="0.498693" ry="0.560165" fill="white"/>
<ellipse cx="736.55" cy="56.5764" rx="0.498693" ry="0.560165" fill="white"/>
<ellipse cx="48.3717" cy="112.593" rx="0.49868" ry="0.560165" fill="white"/>
<ellipse cx="123.173" cy="112.593" rx="0.498679" ry="0.560165" fill="white"/>
<ellipse cx="197.976" cy="112.593" rx="0.498679" ry="0.560165" fill="white"/>
<ellipse cx="272.778" cy="112.593" rx="0.498693" ry="0.560165" fill="white"/>
<ellipse cx="347.58" cy="112.593" rx="0.498679" ry="0.560165" fill="white"/>
<ellipse cx="422.382" cy="112.593" rx="0.498679" ry="0.560165" fill="white"/>
<ellipse cx="497.184" cy="112.593" rx="0.498666" ry="0.560165" fill="white"/>
<ellipse cx="571.986" cy="112.593" rx="0.498693" ry="0.560165" fill="white"/>
<ellipse cx="646.788" cy="112.593" rx="0.498693" ry="0.560165" fill="white"/>
<ellipse cx="721.59" cy="112.593" rx="0.498666" ry="0.560165" fill="white"/>
<ellipse cx="63.3322" cy="168.609" rx="0.498679" ry="0.560165" fill="white"/>
<ellipse cx="138.134" cy="168.609" rx="0.49869" ry="0.560165" fill="white"/>
<ellipse cx="212.937" cy="168.609" rx="0.498679" ry="0.560165" fill="white"/>
<ellipse cx="287.738" cy="168.609" rx="0.498666" ry="0.560165" fill="white"/>
<ellipse cx="362.541" cy="168.609" rx="0.498693" ry="0.560165" fill="white"/>
<ellipse cx="437.342" cy="168.609" rx="0.498679" ry="0.560165" fill="white"/>
<ellipse cx="512.144" cy="168.609" rx="0.498693" ry="0.560165" fill="white"/>
<ellipse cx="586.946" cy="168.609" rx="0.498666" ry="0.560165" fill="white"/>
<ellipse cx="661.749" cy="168.609" rx="0.498693" ry="0.560165" fill="white"/>
<ellipse cx="736.55" cy="168.609" rx="0.498693" ry="0.560165" fill="white"/>
<ellipse cx="38.3986" cy="225.746" rx="0.498678" ry="0.560165" fill="white"/>
<ellipse cx="113.201" cy="225.746" rx="0.498679" ry="0.560165" fill="white"/>
<ellipse cx="188.003" cy="225.746" rx="0.498673" ry="0.560165" fill="white"/>
<ellipse cx="262.804" cy="225.746" rx="0.4987" ry="0.560165" fill="white"/>
<ellipse cx="337.607" cy="225.746" rx="0.498679" ry="0.560165" fill="white"/>
<ellipse cx="412.409" cy="225.746" rx="0.498679" ry="0.560165" fill="white"/>
<ellipse cx="487.211" cy="225.746" rx="0.498721" ry="0.560165" fill="white"/>
<ellipse cx="562.012" cy="225.746" rx="0.498666" ry="0.560165" fill="white"/>
<ellipse cx="636.814" cy="225.746" rx="0.498693" ry="0.560165" fill="white"/>
<ellipse cx="711.616" cy="225.746" rx="0.498666" ry="0.560165" fill="white"/>
<ellipse cx="68.319" cy="281.762" rx="0.498678" ry="0.560165" fill="white"/>
<ellipse cx="143.121" cy="281.762" rx="0.498679" ry="0.560165" fill="white"/>
<ellipse cx="217.924" cy="281.762" rx="0.4987" ry="0.560165" fill="white"/>
<ellipse cx="292.726" cy="281.762" rx="0.498679" ry="0.560165" fill="white"/>
<ellipse cx="367.527" cy="281.762" rx="0.498679" ry="0.560165" fill="white"/>
<ellipse cx="442.329" cy="281.762" rx="0.498721" ry="0.560165" fill="white"/>
<ellipse cx="517.131" cy="281.762" rx="0.498611" ry="0.560165" fill="white"/>
<ellipse cx="591.933" cy="281.762" rx="0.498693" ry="0.560165" fill="white"/>
<ellipse cx="666.735" cy="281.762" rx="0.498666" ry="0.560165" fill="white"/>
<ellipse cx="58.3454" cy="337.778" rx="0.498678" ry="0.560165" fill="white"/>
<ellipse cx="133.148" cy="337.778" rx="0.498666" ry="0.560165" fill="white"/>
<ellipse cx="207.949" cy="337.778" rx="0.498679" ry="0.560165" fill="white"/>
<ellipse cx="282.752" cy="337.778" rx="0.498707" ry="0.560165" fill="white"/>
<ellipse cx="357.553" cy="337.778" rx="0.498679" ry="0.560165" fill="white"/>
<ellipse cx="432.356" cy="337.778" rx="0.498625" ry="0.560165" fill="white"/>
<ellipse cx="507.157" cy="337.778" rx="0.498721" ry="0.560165" fill="white"/>
<ellipse cx="581.96" cy="337.778" rx="0.498693" ry="0.560165" fill="white"/>
<ellipse cx="656.761" cy="337.778" rx="0.498693" ry="0.560165" fill="white"/>
<ellipse cx="731.564" cy="337.778" rx="0.498666" ry="0.560165" fill="white"/>
<ellipse cx="88.2663" cy="393.795" rx="0.498683" ry="0.56015" fill="white"/>
<ellipse cx="163.068" cy="393.795" rx="0.498679" ry="0.56015" fill="white"/>
<ellipse cx="237.871" cy="393.795" rx="0.4987" ry="0.56015" fill="white"/>
<ellipse cx="312.673" cy="393.795" rx="0.498679" ry="0.56015" fill="white"/>
<ellipse cx="387.474" cy="393.795" rx="0.498666" ry="0.56015" fill="white"/>
<ellipse cx="462.276" cy="393.795" rx="0.498721" ry="0.56015" fill="white"/>
<ellipse cx="537.078" cy="393.795" rx="0.498693" ry="0.56015" fill="white"/>
<ellipse cx="611.88" cy="393.795" rx="0.498693" ry="0.56015" fill="white"/>
<ellipse cx="686.682" cy="393.795" rx="0.498666" ry="0.56015" fill="white"/>
<ellipse cx="761.484" cy="393.795" rx="0.498857" ry="0.56015" fill="white"/>
<ellipse cx="48.3717" cy="449.811" rx="0.49868" ry="0.56015" fill="white"/>
<ellipse cx="123.173" cy="449.811" rx="0.498679" ry="0.56015" fill="white"/>
<ellipse cx="197.976" cy="449.811" rx="0.498679" ry="0.56015" fill="white"/>
<ellipse cx="272.778" cy="449.811" rx="0.498693" ry="0.56015" fill="white"/>
<ellipse cx="347.58" cy="449.811" rx="0.498679" ry="0.56015" fill="white"/>
<ellipse cx="422.382" cy="449.811" rx="0.498679" ry="0.56015" fill="white"/>
<ellipse cx="497.184" cy="449.811" rx="0.498666" ry="0.56015" fill="white"/>
<ellipse cx="571.986" cy="449.811" rx="0.498693" ry="0.56015" fill="white"/>
<ellipse cx="646.788" cy="449.811" rx="0.498693" ry="0.56015" fill="white"/>
<ellipse cx="721.59" cy="449.811" rx="0.498666" ry="0.56015" fill="white"/>
<ellipse cx="63.3322" cy="505.827" rx="0.498679" ry="0.56015" fill="white"/>
<ellipse cx="138.134" cy="505.827" rx="0.49869" ry="0.56015" fill="white"/>
<ellipse cx="212.937" cy="505.827" rx="0.498679" ry="0.56015" fill="white"/>
<ellipse cx="287.738" cy="505.827" rx="0.498666" ry="0.56015" fill="white"/>
<ellipse cx="362.541" cy="505.827" rx="0.498693" ry="0.56015" fill="white"/>
<ellipse cx="437.342" cy="505.827" rx="0.498679" ry="0.56015" fill="white"/>
<ellipse cx="512.144" cy="505.827" rx="0.498693" ry="0.56015" fill="white"/>
<ellipse cx="586.946" cy="505.827" rx="0.498666" ry="0.56015" fill="white"/>
<ellipse cx="661.749" cy="505.827" rx="0.498693" ry="0.56015" fill="white"/>
<ellipse cx="736.55" cy="505.827" rx="0.498693" ry="0.56015" fill="white"/>
<ellipse cx="98.2404" cy="567.445" rx="0.498676" ry="0.56015" fill="white"/>
<ellipse cx="173.042" cy="567.445" rx="0.498679" ry="0.56015" fill="white"/>
<ellipse cx="247.844" cy="567.445" rx="0.498673" ry="0.56015" fill="white"/>
<ellipse cx="322.646" cy="567.445" rx="0.498679" ry="0.56015" fill="white"/>
<ellipse cx="397.448" cy="567.445" rx="0.498721" ry="0.56015" fill="white"/>
<ellipse cx="472.25" cy="567.445" rx="0.498625" ry="0.56015" fill="white"/>
<ellipse cx="547.052" cy="567.445" rx="0.498693" ry="0.56015" fill="white"/>
<ellipse cx="621.854" cy="567.445" rx="0.498666" ry="0.56015" fill="white"/>
<ellipse cx="696.656" cy="567.445" rx="0.498666" ry="0.56015" fill="white"/>
<ellipse cx="771.458" cy="567.445" rx="0.498693" ry="0.56015" fill="white"/>
<ellipse cx="68.319" cy="629.063" rx="0.498678" ry="0.560181" fill="white"/>
<ellipse cx="143.121" cy="629.063" rx="0.498679" ry="0.560181" fill="white"/>
<ellipse cx="217.924" cy="629.063" rx="0.4987" ry="0.560181" fill="white"/>
<ellipse cx="292.726" cy="629.063" rx="0.498679" ry="0.560181" fill="white"/>
<ellipse cx="367.527" cy="629.063" rx="0.498679" ry="0.560181" fill="white"/>
<ellipse cx="442.329" cy="629.063" rx="0.498721" ry="0.560181" fill="white"/>
<ellipse cx="517.131" cy="629.063" rx="0.498611" ry="0.560181" fill="white"/>
<ellipse cx="591.933" cy="629.063" rx="0.498693" ry="0.560181" fill="white"/>
<ellipse cx="666.735" cy="629.063" rx="0.498666" ry="0.560181" fill="white"/>
<ellipse cx="741.538" cy="629.063" rx="0.498666" ry="0.560181" fill="white"/>
<ellipse cx="108.214" cy="689.561" rx="0.498676" ry="0.560181" fill="white"/>
<ellipse cx="183.016" cy="689.561" rx="0.498673" ry="0.560181" fill="white"/>
<ellipse cx="257.818" cy="689.561" rx="0.4987" ry="0.560181" fill="white"/>
<ellipse cx="332.62" cy="689.561" rx="0.498666" ry="0.560181" fill="white"/>
<ellipse cx="407.422" cy="689.561" rx="0.498666" ry="0.560181" fill="white"/>
<ellipse cx="482.223" cy="689.561" rx="0.498679" ry="0.560181" fill="white"/>
<ellipse cx="557.026" cy="689.561" rx="0.498693" ry="0.560181" fill="white"/>
<ellipse cx="631.828" cy="689.561" rx="0.498666" ry="0.560181" fill="white"/>
<ellipse cx="706.63" cy="689.561" rx="0.498693" ry="0.560181" fill="white"/>
<ellipse cx="78.2931" cy="751.179" rx="0.498678" ry="0.560181" fill="white"/>
<ellipse cx="153.095" cy="751.179" rx="0.498679" ry="0.560181" fill="white"/>
<ellipse cx="227.897" cy="751.179" rx="0.498686" ry="0.560181" fill="white"/>
<ellipse cx="302.699" cy="751.179" rx="0.498679" ry="0.560181" fill="white"/>
<ellipse cx="377.501" cy="751.179" rx="0.498666" ry="0.560181" fill="white"/>
<ellipse cx="452.302" cy="751.179" rx="0.498666" ry="0.560181" fill="white"/>
<ellipse cx="527.104" cy="751.179" rx="0.498693" ry="0.560181" fill="white"/>
<ellipse cx="601.907" cy="751.179" rx="0.498693" ry="0.560181" fill="white"/>
<ellipse cx="676.709" cy="751.179" rx="0.498666" ry="0.560181" fill="white"/>
<ellipse cx="751.51" cy="751.179" rx="0.498693" ry="0.560181" fill="white"/>
<ellipse cx="48.3717" cy="812.797" rx="0.49868" ry="0.56015" fill="white"/>
<ellipse cx="123.173" cy="812.797" rx="0.498679" ry="0.56015" fill="white"/>
<ellipse cx="197.976" cy="812.797" rx="0.498679" ry="0.56015" fill="white"/>
<ellipse cx="272.778" cy="812.797" rx="0.498693" ry="0.56015" fill="white"/>
<ellipse cx="347.58" cy="812.797" rx="0.498679" ry="0.56015" fill="white"/>
<ellipse cx="422.382" cy="812.797" rx="0.498679" ry="0.56015" fill="white"/>
<ellipse cx="497.184" cy="812.797" rx="0.498666" ry="0.56015" fill="white"/>
<ellipse cx="571.986" cy="812.797" rx="0.498693" ry="0.56015" fill="white"/>
<ellipse cx="646.788" cy="812.797" rx="0.498693" ry="0.56015" fill="white"/>
<ellipse cx="721.59" cy="812.797" rx="0.498666" ry="0.56015" fill="white"/>
<ellipse cx="78.2931" cy="874.415" rx="0.498678" ry="0.56015" fill="white"/>
<ellipse cx="153.095" cy="874.415" rx="0.498679" ry="0.56015" fill="white"/>
<ellipse cx="227.897" cy="874.415" rx="0.498686" ry="0.56015" fill="white"/>
<ellipse cx="302.699" cy="874.415" rx="0.498679" ry="0.56015" fill="white"/>
<ellipse cx="377.501" cy="874.415" rx="0.498666" ry="0.56015" fill="white"/>
<ellipse cx="452.302" cy="874.415" rx="0.498666" ry="0.56015" fill="white"/>
<ellipse cx="527.104" cy="874.415" rx="0.498693" ry="0.56015" fill="white"/>
<ellipse cx="601.907" cy="874.415" rx="0.498693" ry="0.56015" fill="white"/>
<ellipse cx="676.709" cy="874.415" rx="0.498666" ry="0.56015" fill="white"/>
<ellipse cx="58.3454" cy="930.431" rx="0.498678" ry="0.56015" fill="white"/>
<ellipse cx="133.148" cy="930.431" rx="0.498666" ry="0.56015" fill="white"/>
<ellipse cx="207.949" cy="930.431" rx="0.498679" ry="0.56015" fill="white"/>
<ellipse cx="282.752" cy="930.431" rx="0.498707" ry="0.56015" fill="white"/>
<ellipse cx="357.553" cy="930.431" rx="0.498679" ry="0.56015" fill="white"/>
<ellipse cx="432.356" cy="930.431" rx="0.498625" ry="0.56015" fill="white"/>
<ellipse cx="507.157" cy="930.431" rx="0.498721" ry="0.56015" fill="white"/>
<ellipse cx="581.96" cy="930.431" rx="0.498693" ry="0.56015" fill="white"/>
<ellipse cx="656.761" cy="930.431" rx="0.498693" ry="0.56015" fill="white"/>
<ellipse cx="656.761" cy="930.431" rx="0.498693" ry="0.56015" fill="white"/>
<ellipse cx="751.51" cy="874.415" rx="0.498693" ry="0.56015" fill="white"/>
<ellipse cx="53.3585" cy="6.16171" rx="0.498679" ry="0.560165" fill="white"/>
<ellipse cx="128.161" cy="6.16171" rx="0.498679" ry="0.560165" fill="white"/>
<ellipse cx="202.963" cy="6.16171" rx="0.498673" ry="0.560165" fill="white"/>
<ellipse cx="277.764" cy="6.16171" rx="0.498652" ry="0.560165" fill="white"/>
<ellipse cx="352.567" cy="6.16171" rx="0.498679" ry="0.560165" fill="white"/>
<ellipse cx="427.369" cy="6.16171" rx="0.498625" ry="0.560165" fill="white"/>
<ellipse cx="502.171" cy="6.16171" rx="0.498693" ry="0.560165" fill="white"/>
<ellipse cx="576.972" cy="6.16171" rx="0.498666" ry="0.560165" fill="white"/>
<ellipse cx="651.775" cy="6.16171" rx="0.498666" ry="0.560165" fill="white"/>
<ellipse cx="726.577" cy="6.16171" rx="0.498693" ry="0.560165" fill="white"/>
<ellipse cx="88.2663" cy="62.1781" rx="0.498683" ry="0.560165" fill="white"/>
<ellipse cx="163.068" cy="62.1781" rx="0.498679" ry="0.560165" fill="white"/>
<ellipse cx="237.871" cy="62.1781" rx="0.4987" ry="0.560165" fill="white"/>
<ellipse cx="312.673" cy="62.1781" rx="0.498679" ry="0.560165" fill="white"/>
<ellipse cx="387.474" cy="62.1781" rx="0.498666" ry="0.560165" fill="white"/>
<ellipse cx="462.276" cy="62.1781" rx="0.498721" ry="0.560165" fill="white"/>
<ellipse cx="537.078" cy="62.1781" rx="0.498693" ry="0.560165" fill="white"/>
<ellipse cx="611.88" cy="62.1781" rx="0.498693" ry="0.560165" fill="white"/>
<ellipse cx="686.682" cy="62.1781" rx="0.498666" ry="0.560165" fill="white"/>
<ellipse cx="761.484" cy="62.1781" rx="0.498857" ry="0.560165" fill="white"/>
<ellipse cx="73.3063" cy="118.194" rx="0.498679" ry="0.560165" fill="white"/>
<ellipse cx="148.108" cy="118.194" rx="0.498679" ry="0.560165" fill="white"/>
<ellipse cx="222.91" cy="118.194" rx="0.498659" ry="0.560165" fill="white"/>
<ellipse cx="297.713" cy="118.194" rx="0.498666" ry="0.560165" fill="white"/>
<ellipse cx="372.514" cy="118.194" rx="0.498679" ry="0.560165" fill="white"/>
<ellipse cx="447.316" cy="118.194" rx="0.498679" ry="0.560165" fill="white"/>
<ellipse cx="522.118" cy="118.194" rx="0.498638" ry="0.560165" fill="white"/>
<ellipse cx="596.92" cy="118.194" rx="0.498666" ry="0.560165" fill="white"/>
<ellipse cx="671.722" cy="118.194" rx="0.498693" ry="0.560165" fill="white"/>
<ellipse cx="746.525" cy="118.194" rx="0.498693" ry="0.560165" fill="white"/>
<ellipse cx="88.2663" cy="174.211" rx="0.498683" ry="0.560165" fill="white"/>
<ellipse cx="163.068" cy="174.211" rx="0.498679" ry="0.560165" fill="white"/>
<ellipse cx="237.871" cy="174.211" rx="0.4987" ry="0.560165" fill="white"/>
<ellipse cx="312.673" cy="174.211" rx="0.498679" ry="0.560165" fill="white"/>
<ellipse cx="387.474" cy="174.211" rx="0.498666" ry="0.560165" fill="white"/>
<ellipse cx="462.276" cy="174.211" rx="0.498721" ry="0.560165" fill="white"/>
<ellipse cx="537.078" cy="174.211" rx="0.498693" ry="0.560165" fill="white"/>
<ellipse cx="611.88" cy="174.211" rx="0.498693" ry="0.560165" fill="white"/>
<ellipse cx="686.682" cy="174.211" rx="0.498666" ry="0.560165" fill="white"/>
<ellipse cx="761.484" cy="174.211" rx="0.498857" ry="0.560165" fill="white"/>
<ellipse cx="63.3322" cy="231.347" rx="0.498679" ry="0.560165" fill="white"/>
<ellipse cx="138.134" cy="231.347" rx="0.49869" ry="0.560165" fill="white"/>
<ellipse cx="212.937" cy="231.347" rx="0.498679" ry="0.560165" fill="white"/>
<ellipse cx="287.738" cy="231.347" rx="0.498666" ry="0.560165" fill="white"/>
<ellipse cx="362.541" cy="231.347" rx="0.498693" ry="0.560165" fill="white"/>
<ellipse cx="437.342" cy="231.347" rx="0.498679" ry="0.560165" fill="white"/>
<ellipse cx="512.144" cy="231.347" rx="0.498693" ry="0.560165" fill="white"/>
<ellipse cx="586.946" cy="231.347" rx="0.498666" ry="0.560165" fill="white"/>
<ellipse cx="661.749" cy="231.347" rx="0.498693" ry="0.560165" fill="white"/>
<ellipse cx="736.55" cy="231.347" rx="0.498693" ry="0.560165" fill="white"/>
<ellipse cx="93.2531" cy="287.364" rx="0.498679" ry="0.560165" fill="white"/>
<ellipse cx="168.055" cy="287.364" rx="0.498679" ry="0.560165" fill="white"/>
<ellipse cx="242.857" cy="287.364" rx="0.498673" ry="0.560165" fill="white"/>
<ellipse cx="317.66" cy="287.364" rx="0.498693" ry="0.560165" fill="white"/>
<ellipse cx="392.462" cy="287.364" rx="0.498679" ry="0.560165" fill="white"/>
<ellipse cx="467.263" cy="287.364" rx="0.498679" ry="0.560165" fill="white"/>
<ellipse cx="542.065" cy="287.364" rx="0.498666" ry="0.560165" fill="white"/>
<ellipse cx="616.867" cy="287.364" rx="0.498693" ry="0.560165" fill="white"/>
<ellipse cx="691.669" cy="287.364" rx="0.498693" ry="0.560165" fill="white"/>
<ellipse cx="83.2794" cy="343.38" rx="0.498673" ry="0.560165" fill="white"/>
<ellipse cx="158.082" cy="343.38" rx="0.498686" ry="0.560165" fill="white"/>
<ellipse cx="232.883" cy="343.38" rx="0.498652" ry="0.560165" fill="white"/>
<ellipse cx="307.686" cy="343.38" rx="0.498679" ry="0.560165" fill="white"/>
<ellipse cx="382.487" cy="343.38" rx="0.498679" ry="0.560165" fill="white"/>
<ellipse cx="457.289" cy="343.38" rx="0.498679" ry="0.560165" fill="white"/>
<ellipse cx="532.091" cy="343.38" rx="0.498721" ry="0.560165" fill="white"/>
<ellipse cx="606.893" cy="343.38" rx="0.498666" ry="0.560165" fill="white"/>
<ellipse cx="681.695" cy="343.38" rx="0.498693" ry="0.560165" fill="white"/>
<ellipse cx="756.498" cy="343.38" rx="0.498583" ry="0.560165" fill="white"/>
<ellipse cx="113.201" cy="399.396" rx="0.498679" ry="0.56015" fill="white"/>
<ellipse cx="188.003" cy="399.396" rx="0.498673" ry="0.56015" fill="white"/>
<ellipse cx="262.804" cy="399.396" rx="0.4987" ry="0.56015" fill="white"/>
<ellipse cx="337.607" cy="399.396" rx="0.498679" ry="0.56015" fill="white"/>
<ellipse cx="412.409" cy="399.396" rx="0.498679" ry="0.56015" fill="white"/>
<ellipse cx="487.211" cy="399.396" rx="0.498721" ry="0.56015" fill="white"/>
<ellipse cx="562.012" cy="399.396" rx="0.498666" ry="0.56015" fill="white"/>
<ellipse cx="636.814" cy="399.396" rx="0.498693" ry="0.56015" fill="white"/>
<ellipse cx="711.616" cy="399.396" rx="0.498666" ry="0.56015" fill="white"/>
<ellipse cx="786.418" cy="398.276" rx="0.498556" ry="0.56015" fill="white"/>
<ellipse cx="73.3063" cy="455.413" rx="0.498679" ry="0.560181" fill="white"/>
<ellipse cx="148.108" cy="455.413" rx="0.498679" ry="0.560181" fill="white"/>
<ellipse cx="222.91" cy="455.413" rx="0.498659" ry="0.560181" fill="white"/>
<ellipse cx="297.713" cy="455.413" rx="0.498666" ry="0.560181" fill="white"/>
<ellipse cx="372.514" cy="455.413" rx="0.498679" ry="0.560181" fill="white"/>
<ellipse cx="447.316" cy="455.413" rx="0.498679" ry="0.560181" fill="white"/>
<ellipse cx="522.118" cy="455.413" rx="0.498638" ry="0.560181" fill="white"/>
<ellipse cx="596.92" cy="455.413" rx="0.498666" ry="0.560181" fill="white"/>
<ellipse cx="671.722" cy="455.413" rx="0.498693" ry="0.560181" fill="white"/>
<ellipse cx="746.525" cy="455.413" rx="0.498693" ry="0.560181" fill="white"/>
<ellipse cx="88.2663" cy="511.429" rx="0.498683" ry="0.560181" fill="white"/>
<ellipse cx="163.068" cy="511.429" rx="0.498679" ry="0.560181" fill="white"/>
<ellipse cx="237.871" cy="511.429" rx="0.4987" ry="0.560181" fill="white"/>
<ellipse cx="312.673" cy="511.429" rx="0.498679" ry="0.560181" fill="white"/>
<ellipse cx="387.474" cy="511.429" rx="0.498666" ry="0.560181" fill="white"/>
<ellipse cx="462.276" cy="511.429" rx="0.498721" ry="0.560181" fill="white"/>
<ellipse cx="537.078" cy="511.429" rx="0.498693" ry="0.560181" fill="white"/>
<ellipse cx="611.88" cy="511.429" rx="0.498693" ry="0.560181" fill="white"/>
<ellipse cx="686.682" cy="511.429" rx="0.498666" ry="0.560181" fill="white"/>
<ellipse cx="761.484" cy="511.429" rx="0.498857" ry="0.560181" fill="white"/>
<ellipse cx="123.173" cy="573.047" rx="0.498679" ry="0.56015" fill="white"/>
<ellipse cx="197.976" cy="573.047" rx="0.498679" ry="0.56015" fill="white"/>
<ellipse cx="272.778" cy="573.047" rx="0.498693" ry="0.56015" fill="white"/>
<ellipse cx="347.58" cy="573.047" rx="0.498679" ry="0.56015" fill="white"/>
<ellipse cx="422.382" cy="573.047" rx="0.498679" ry="0.56015" fill="white"/>
<ellipse cx="497.184" cy="573.047" rx="0.498666" ry="0.56015" fill="white"/>
<ellipse cx="571.986" cy="573.047" rx="0.498693" ry="0.56015" fill="white"/>
<ellipse cx="646.788" cy="573.047" rx="0.498693" ry="0.56015" fill="white"/>
<ellipse cx="721.59" cy="573.047" rx="0.498666" ry="0.56015" fill="white"/>
<ellipse cx="796.392" cy="571.927" rx="0.498693" ry="0.560181" fill="white"/>
<ellipse cx="93.2531" cy="634.665" rx="0.498679" ry="0.56015" fill="white"/>
<ellipse cx="168.055" cy="634.665" rx="0.498679" ry="0.56015" fill="white"/>
<ellipse cx="242.857" cy="634.665" rx="0.498673" ry="0.56015" fill="white"/>
<ellipse cx="317.66" cy="634.665" rx="0.498693" ry="0.56015" fill="white"/>
<ellipse cx="392.462" cy="634.665" rx="0.498679" ry="0.56015" fill="white"/>
<ellipse cx="467.263" cy="634.665" rx="0.498679" ry="0.56015" fill="white"/>
<ellipse cx="542.065" cy="634.665" rx="0.498666" ry="0.56015" fill="white"/>
<ellipse cx="616.867" cy="634.665" rx="0.498693" ry="0.56015" fill="white"/>
<ellipse cx="691.669" cy="634.665" rx="0.498693" ry="0.56015" fill="white"/>
<ellipse cx="766.471" cy="634.665" rx="0.498693" ry="0.56015" fill="white"/>
<ellipse cx="133.148" cy="695.163" rx="0.498666" ry="0.56015" fill="white"/>
<ellipse cx="207.949" cy="695.163" rx="0.498679" ry="0.56015" fill="white"/>
<ellipse cx="282.752" cy="695.163" rx="0.498707" ry="0.56015" fill="white"/>
<ellipse cx="357.553" cy="695.163" rx="0.498679" ry="0.56015" fill="white"/>
<ellipse cx="432.356" cy="695.163" rx="0.498625" ry="0.56015" fill="white"/>
<ellipse cx="507.157" cy="695.163" rx="0.498721" ry="0.56015" fill="white"/>
<ellipse cx="581.96" cy="695.163" rx="0.498693" ry="0.56015" fill="white"/>
<ellipse cx="656.761" cy="695.163" rx="0.498693" ry="0.56015" fill="white"/>
<ellipse cx="731.564" cy="695.163" rx="0.498666" ry="0.56015" fill="white"/>
<ellipse cx="103.227" cy="756.781" rx="0.498679" ry="0.560181" fill="white"/>
<ellipse cx="178.029" cy="756.781" rx="0.498679" ry="0.560181" fill="white"/>
<ellipse cx="252.831" cy="756.781" rx="0.498673" ry="0.560181" fill="white"/>
<ellipse cx="327.633" cy="756.781" rx="0.498679" ry="0.560181" fill="white"/>
<ellipse cx="402.435" cy="756.781" rx="0.498679" ry="0.560181" fill="white"/>
<ellipse cx="477.236" cy="756.781" rx="0.498625" ry="0.560181" fill="white"/>
<ellipse cx="552.039" cy="756.781" rx="0.498666" ry="0.560181" fill="white"/>
<ellipse cx="626.841" cy="756.781" rx="0.498693" ry="0.560181" fill="white"/>
<ellipse cx="701.643" cy="756.781" rx="0.498693" ry="0.560181" fill="white"/>
<ellipse cx="776.445" cy="756.781" rx="0.498693" ry="0.560181" fill="white"/>
<ellipse cx="73.3063" cy="818.399" rx="0.498679" ry="0.560181" fill="white"/>
<ellipse cx="148.108" cy="818.399" rx="0.498679" ry="0.560181" fill="white"/>
<ellipse cx="222.91" cy="818.399" rx="0.498659" ry="0.560181" fill="white"/>
<ellipse cx="297.713" cy="818.399" rx="0.498666" ry="0.560181" fill="white"/>
<ellipse cx="372.514" cy="818.399" rx="0.498679" ry="0.560181" fill="white"/>
<ellipse cx="447.316" cy="818.399" rx="0.498679" ry="0.560181" fill="white"/>
<ellipse cx="522.118" cy="818.399" rx="0.498638" ry="0.560181" fill="white"/>
<ellipse cx="596.92" cy="818.399" rx="0.498666" ry="0.560181" fill="white"/>
<ellipse cx="671.722" cy="818.399" rx="0.498693" ry="0.560181" fill="white"/>
<ellipse cx="746.525" cy="818.399" rx="0.498693" ry="0.560181" fill="white"/>
<ellipse cx="103.227" cy="880.017" rx="0.498679" ry="0.56015" fill="white"/>
<ellipse cx="178.029" cy="880.017" rx="0.498679" ry="0.56015" fill="white"/>
<ellipse cx="252.831" cy="880.017" rx="0.498673" ry="0.56015" fill="white"/>
<ellipse cx="327.633" cy="880.017" rx="0.498679" ry="0.56015" fill="white"/>
<ellipse cx="402.435" cy="880.017" rx="0.498679" ry="0.56015" fill="white"/>
<ellipse cx="477.236" cy="880.017" rx="0.498625" ry="0.56015" fill="white"/>
<ellipse cx="552.039" cy="880.017" rx="0.498666" ry="0.56015" fill="white"/>
<ellipse cx="626.841" cy="880.017" rx="0.498693" ry="0.56015" fill="white"/>
<ellipse cx="701.643" cy="880.017" rx="0.498693" ry="0.56015" fill="white"/>
<ellipse cx="83.2794" cy="936.033" rx="0.498673" ry="0.56015" fill="white"/>
<ellipse cx="158.082" cy="936.033" rx="0.498686" ry="0.56015" fill="white"/>
<ellipse cx="232.883" cy="936.033" rx="0.498652" ry="0.56015" fill="white"/>
<ellipse cx="307.686" cy="936.033" rx="0.498679" ry="0.56015" fill="white"/>
<ellipse cx="382.487" cy="936.033" rx="0.498679" ry="0.56015" fill="white"/>
<ellipse cx="457.289" cy="936.033" rx="0.498679" ry="0.56015" fill="white"/>
<ellipse cx="532.091" cy="936.033" rx="0.498721" ry="0.56015" fill="white"/>
<ellipse cx="606.893" cy="936.033" rx="0.498666" ry="0.56015" fill="white"/>
<ellipse cx="681.695" cy="936.033" rx="0.498693" ry="0.56015" fill="white"/>
<ellipse cx="681.695" cy="936.033" rx="0.498693" ry="0.56015" fill="white"/>
<ellipse cx="776.445" cy="880.017" rx="0.498693" ry="0.56015" fill="white"/>
<ellipse cx="0.498678" cy="28.5684" rx="0.498678" ry="0.560165" fill="white"/>
<ellipse cx="75.3004" cy="28.5684" rx="0.498678" ry="0.560165" fill="white"/>
<ellipse cx="150.103" cy="28.5684" rx="0.498693" ry="0.560165" fill="white"/>
<ellipse cx="224.905" cy="28.5684" rx="0.498659" ry="0.560165" fill="white"/>
<ellipse cx="299.707" cy="28.5684" rx="0.498679" ry="0.560165" fill="white"/>
<ellipse cx="374.509" cy="28.5684" rx="0.498679" ry="0.560165" fill="white"/>
<ellipse cx="449.311" cy="28.5684" rx="0.498721" ry="0.560165" fill="white"/>
<ellipse cx="524.112" cy="28.5684" rx="0.498693" ry="0.560165" fill="white"/>
<ellipse cx="598.915" cy="28.5684" rx="0.498666" ry="0.560165" fill="white"/>
<ellipse cx="673.717" cy="28.5684" rx="0.498666" ry="0.560165" fill="white"/>
<ellipse cx="35.4064" cy="84.5846" rx="0.498678" ry="0.560165" fill="white"/>
<ellipse cx="110.208" cy="84.5846" rx="0.498679" ry="0.560165" fill="white"/>
<ellipse cx="185.011" cy="84.5846" rx="0.498679" ry="0.560165" fill="white"/>
<ellipse cx="259.813" cy="84.5846" rx="0.498659" ry="0.560165" fill="white"/>
<ellipse cx="334.615" cy="84.5846" rx="0.498666" ry="0.560165" fill="white"/>
<ellipse cx="409.417" cy="84.5846" rx="0.498693" ry="0.560165" fill="white"/>
<ellipse cx="484.218" cy="84.5846" rx="0.498721" ry="0.560165" fill="white"/>
<ellipse cx="559.021" cy="84.5846" rx="0.498666" ry="0.560165" fill="white"/>
<ellipse cx="633.822" cy="84.5846" rx="0.498693" ry="0.560165" fill="white"/>
<ellipse cx="708.625" cy="84.5846" rx="0.498666" ry="0.560165" fill="white"/>
<ellipse cx="20.4459" cy="140.601" rx="0.498678" ry="0.560165" fill="white"/>
<ellipse cx="95.2477" cy="140.601" rx="0.498679" ry="0.560165" fill="white"/>
<ellipse cx="170.049" cy="140.601" rx="0.498679" ry="0.560165" fill="white"/>
<ellipse cx="244.852" cy="140.601" rx="0.498673" ry="0.560165" fill="white"/>
<ellipse cx="319.654" cy="140.601" rx="0.498679" ry="0.560165" fill="white"/>
<ellipse cx="394.456" cy="140.601" rx="0.498721" ry="0.560165" fill="white"/>
<ellipse cx="469.257" cy="140.601" rx="0.498679" ry="0.560165" fill="white"/>
<ellipse cx="544.06" cy="140.601" rx="0.498693" ry="0.560165" fill="white"/>
<ellipse cx="618.862" cy="140.601" rx="0.498666" ry="0.560165" fill="white"/>
<ellipse cx="693.664" cy="140.601" rx="0.498666" ry="0.560165" fill="white"/>
<ellipse cx="35.4064" cy="196.617" rx="0.498678" ry="0.560165" fill="white"/>
<ellipse cx="110.208" cy="196.617" rx="0.498679" ry="0.560165" fill="white"/>
<ellipse cx="185.011" cy="196.617" rx="0.498679" ry="0.560165" fill="white"/>
<ellipse cx="259.813" cy="196.617" rx="0.498659" ry="0.560165" fill="white"/>
<ellipse cx="334.615" cy="196.617" rx="0.498666" ry="0.560165" fill="white"/>
<ellipse cx="409.417" cy="196.617" rx="0.498693" ry="0.560165" fill="white"/>
<ellipse cx="484.218" cy="196.617" rx="0.498721" ry="0.560165" fill="white"/>
<ellipse cx="559.021" cy="196.617" rx="0.498666" ry="0.560165" fill="white"/>
<ellipse cx="633.822" cy="196.617" rx="0.498693" ry="0.560165" fill="white"/>
<ellipse cx="708.625" cy="196.617" rx="0.498666" ry="0.560165" fill="white"/>
<ellipse cx="10.4723" cy="253.754" rx="0.498678" ry="0.560165" fill="white"/>
<ellipse cx="85.2746" cy="253.754" rx="0.498671" ry="0.560165" fill="white"/>
<ellipse cx="160.077" cy="253.754" rx="0.498679" ry="0.560165" fill="white"/>
<ellipse cx="234.879" cy="253.754" rx="0.498679" ry="0.560165" fill="white"/>
<ellipse cx="309.68" cy="253.754" rx="0.498679" ry="0.560165" fill="white"/>
<ellipse cx="384.483" cy="253.754" rx="0.498679" ry="0.560165" fill="white"/>
<ellipse cx="459.285" cy="253.754" rx="0.498625" ry="0.560165" fill="white"/>
<ellipse cx="534.087" cy="253.754" rx="0.498666" ry="0.560165" fill="white"/>
<ellipse cx="608.888" cy="253.754" rx="0.498666" ry="0.560165" fill="white"/>
<ellipse cx="683.69" cy="253.754" rx="0.498693" ry="0.560165" fill="white"/>
<ellipse cx="40.3932" cy="309.77" rx="0.498678" ry="0.560165" fill="white"/>
<ellipse cx="115.195" cy="309.77" rx="0.498679" ry="0.560165" fill="white"/>
<ellipse cx="189.997" cy="309.77" rx="0.498679" ry="0.560165" fill="white"/>
<ellipse cx="264.799" cy="309.77" rx="0.498679" ry="0.560165" fill="white"/>
<ellipse cx="339.602" cy="309.77" rx="0.498679" ry="0.560165" fill="white"/>
<ellipse cx="414.403" cy="309.77" rx="0.498625" ry="0.560165" fill="white"/>
<ellipse cx="489.205" cy="309.77" rx="0.498679" ry="0.560165" fill="white"/>
<ellipse cx="564.007" cy="309.77" rx="0.498666" ry="0.560165" fill="white"/>
<ellipse cx="638.809" cy="309.77" rx="0.498693" ry="0.560165" fill="white"/>
<ellipse cx="30.4191" cy="365.786" rx="0.498678" ry="0.56015" fill="white"/>
<ellipse cx="105.222" cy="365.786" rx="0.498679" ry="0.56015" fill="white"/>
<ellipse cx="180.024" cy="365.786" rx="0.498679" ry="0.56015" fill="white"/>
<ellipse cx="254.826" cy="365.786" rx="0.498659" ry="0.56015" fill="white"/>
<ellipse cx="329.628" cy="365.786" rx="0.498679" ry="0.56015" fill="white"/>
<ellipse cx="404.429" cy="365.786" rx="0.498721" ry="0.56015" fill="white"/>
<ellipse cx="479.232" cy="365.786" rx="0.498679" ry="0.56015" fill="white"/>
<ellipse cx="554.034" cy="365.786" rx="0.498666" ry="0.56015" fill="white"/>
<ellipse cx="628.836" cy="365.786" rx="0.498666" ry="0.56015" fill="white"/>
<ellipse cx="703.637" cy="365.786" rx="0.498693" ry="0.56015" fill="white"/>
<ellipse cx="60.34" cy="421.803" rx="0.498679" ry="0.560181" fill="white"/>
<ellipse cx="135.142" cy="421.803" rx="0.498679" ry="0.560181" fill="white"/>
<ellipse cx="209.944" cy="421.803" rx="0.498679" ry="0.560181" fill="white"/>
<ellipse cx="284.747" cy="421.803" rx="0.498679" ry="0.560181" fill="white"/>
<ellipse cx="359.548" cy="421.803" rx="0.498679" ry="0.560181" fill="white"/>
<ellipse cx="434.35" cy="421.803" rx="0.498679" ry="0.560181" fill="white"/>
<ellipse cx="509.152" cy="421.803" rx="0.498611" ry="0.560181" fill="white"/>
<ellipse cx="583.954" cy="421.803" rx="0.498666" ry="0.560181" fill="white"/>
<ellipse cx="658.756" cy="421.803" rx="0.498693" ry="0.560181" fill="white"/>
<ellipse cx="733.558" cy="421.803" rx="0.498666" ry="0.560181" fill="white"/>
<ellipse cx="20.4459" cy="477.819" rx="0.498678" ry="0.56015" fill="white"/>
<ellipse cx="95.2477" cy="477.819" rx="0.498679" ry="0.56015" fill="white"/>
<ellipse cx="170.049" cy="477.819" rx="0.498679" ry="0.56015" fill="white"/>
<ellipse cx="244.852" cy="477.819" rx="0.498673" ry="0.56015" fill="white"/>
<ellipse cx="319.654" cy="477.819" rx="0.498679" ry="0.56015" fill="white"/>
<ellipse cx="394.456" cy="477.819" rx="0.498721" ry="0.56015" fill="white"/>
<ellipse cx="469.257" cy="477.819" rx="0.498679" ry="0.56015" fill="white"/>
<ellipse cx="544.06" cy="477.819" rx="0.498693" ry="0.56015" fill="white"/>
<ellipse cx="618.862" cy="477.819" rx="0.498666" ry="0.56015" fill="white"/>
<ellipse cx="693.664" cy="477.819" rx="0.498666" ry="0.56015" fill="white"/>
<ellipse cx="35.4064" cy="533.836" rx="0.498678" ry="0.560181" fill="white"/>
<ellipse cx="110.208" cy="533.836" rx="0.498679" ry="0.560181" fill="white"/>
<ellipse cx="185.011" cy="533.836" rx="0.498679" ry="0.560181" fill="white"/>
<ellipse cx="259.813" cy="533.836" rx="0.498659" ry="0.560181" fill="white"/>
<ellipse cx="334.615" cy="533.836" rx="0.498666" ry="0.560181" fill="white"/>
<ellipse cx="409.417" cy="533.836" rx="0.498693" ry="0.560181" fill="white"/>
<ellipse cx="484.218" cy="533.836" rx="0.498721" ry="0.560181" fill="white"/>
<ellipse cx="559.021" cy="533.836" rx="0.498666" ry="0.560181" fill="white"/>
<ellipse cx="633.822" cy="533.836" rx="0.498693" ry="0.560181" fill="white"/>
<ellipse cx="708.625" cy="533.836" rx="0.498666" ry="0.560181" fill="white"/>
<ellipse cx="70.3136" cy="595.453" rx="0.498678" ry="0.56015" fill="white"/>
<ellipse cx="145.116" cy="595.453" rx="0.498666" ry="0.56015" fill="white"/>
<ellipse cx="219.918" cy="595.453" rx="0.498686" ry="0.56015" fill="white"/>
<ellipse cx="294.72" cy="595.453" rx="0.498679" ry="0.56015" fill="white"/>
<ellipse cx="369.522" cy="595.453" rx="0.498666" ry="0.56015" fill="white"/>
<ellipse cx="444.324" cy="595.453" rx="0.498679" ry="0.56015" fill="white"/>
<ellipse cx="519.126" cy="595.453" rx="0.498721" ry="0.56015" fill="white"/>
<ellipse cx="593.928" cy="595.453" rx="0.498693" ry="0.56015" fill="white"/>
<ellipse cx="668.73" cy="595.453" rx="0.498666" ry="0.56015" fill="white"/>
<ellipse cx="743.532" cy="595.453" rx="0.498666" ry="0.56015" fill="white"/>
<ellipse cx="40.3932" cy="657.071" rx="0.498678" ry="0.560181" fill="white"/>
<ellipse cx="115.195" cy="657.071" rx="0.498679" ry="0.560181" fill="white"/>
<ellipse cx="189.997" cy="657.071" rx="0.498679" ry="0.560181" fill="white"/>
<ellipse cx="264.799" cy="657.071" rx="0.498679" ry="0.560181" fill="white"/>
<ellipse cx="339.602" cy="657.071" rx="0.498679" ry="0.560181" fill="white"/>
<ellipse cx="414.403" cy="657.071" rx="0.498625" ry="0.560181" fill="white"/>
<ellipse cx="489.205" cy="657.071" rx="0.498679" ry="0.560181" fill="white"/>
<ellipse cx="564.007" cy="657.071" rx="0.498666" ry="0.560181" fill="white"/>
<ellipse cx="638.809" cy="657.071" rx="0.498693" ry="0.560181" fill="white"/>
<ellipse cx="713.611" cy="657.071" rx="0.498666" ry="0.560181" fill="white"/>
<ellipse cx="80.2877" cy="717.569" rx="0.498683" ry="0.560119" fill="white"/>
<ellipse cx="155.089" cy="717.569" rx="0.498666" ry="0.560119" fill="white"/>
<ellipse cx="229.892" cy="717.569" rx="0.498707" ry="0.560119" fill="white"/>
<ellipse cx="304.694" cy="717.569" rx="0.498679" ry="0.560119" fill="white"/>
<ellipse cx="379.496" cy="717.569" rx="0.498666" ry="0.560119" fill="white"/>
<ellipse cx="454.298" cy="717.569" rx="0.498693" ry="0.560119" fill="white"/>
<ellipse cx="529.099" cy="717.569" rx="0.498721" ry="0.560119" fill="white"/>
<ellipse cx="603.901" cy="717.569" rx="0.498666" ry="0.560119" fill="white"/>
<ellipse cx="678.704" cy="717.569" rx="0.498693" ry="0.560119" fill="white"/>
<ellipse cx="50.3668" cy="779.187" rx="0.498678" ry="0.560181" fill="white"/>
<ellipse cx="125.169" cy="779.187" rx="0.498666" ry="0.560181" fill="white"/>
<ellipse cx="199.971" cy="779.187" rx="0.498679" ry="0.560181" fill="white"/>
<ellipse cx="274.773" cy="779.187" rx="0.498707" ry="0.560181" fill="white"/>
<ellipse cx="349.575" cy="779.187" rx="0.498679" ry="0.560181" fill="white"/>
<ellipse cx="424.377" cy="779.187" rx="0.498679" ry="0.560181" fill="white"/>
<ellipse cx="499.178" cy="779.187" rx="0.498693" ry="0.560181" fill="white"/>
<ellipse cx="573.98" cy="779.187" rx="0.498666" ry="0.560181" fill="white"/>
<ellipse cx="648.782" cy="779.187" rx="0.498666" ry="0.560181" fill="white"/>
<ellipse cx="723.585" cy="779.187" rx="0.498693" ry="0.560181" fill="white"/>
<ellipse cx="20.4459" cy="840.805" rx="0.498678" ry="0.56015" fill="white"/>
<ellipse cx="95.2477" cy="840.805" rx="0.498679" ry="0.56015" fill="white"/>
<ellipse cx="170.049" cy="840.805" rx="0.498679" ry="0.56015" fill="white"/>
<ellipse cx="244.852" cy="840.805" rx="0.498673" ry="0.56015" fill="white"/>
<ellipse cx="319.654" cy="840.805" rx="0.498679" ry="0.56015" fill="white"/>
<ellipse cx="394.456" cy="840.805" rx="0.498721" ry="0.56015" fill="white"/>
<ellipse cx="469.257" cy="840.805" rx="0.498679" ry="0.56015" fill="white"/>
<ellipse cx="544.06" cy="840.805" rx="0.498693" ry="0.56015" fill="white"/>
<ellipse cx="618.862" cy="840.805" rx="0.498666" ry="0.56015" fill="white"/>
<ellipse cx="693.664" cy="840.805" rx="0.498666" ry="0.56015" fill="white"/>
<ellipse cx="50.3668" cy="902.423" rx="0.498678" ry="0.560088" fill="white"/>
<ellipse cx="125.169" cy="902.423" rx="0.498666" ry="0.560088" fill="white"/>
<ellipse cx="199.971" cy="902.423" rx="0.498679" ry="0.560088" fill="white"/>
<ellipse cx="274.773" cy="902.423" rx="0.498707" ry="0.560088" fill="white"/>
<ellipse cx="349.575" cy="902.423" rx="0.498679" ry="0.560088" fill="white"/>
<ellipse cx="424.377" cy="902.423" rx="0.498679" ry="0.560088" fill="white"/>
<ellipse cx="499.178" cy="902.423" rx="0.498693" ry="0.560088" fill="white"/>
<ellipse cx="573.98" cy="902.423" rx="0.498666" ry="0.560088" fill="white"/>
<ellipse cx="648.782" cy="902.423" rx="0.498666" ry="0.560088" fill="white"/>
<ellipse cx="30.4191" cy="958.44" rx="0.498678" ry="0.56015" fill="white"/>
<ellipse cx="105.222" cy="958.44" rx="0.498679" ry="0.56015" fill="white"/>
<ellipse cx="180.024" cy="958.44" rx="0.498679" ry="0.56015" fill="white"/>
<ellipse cx="254.826" cy="958.44" rx="0.498659" ry="0.56015" fill="white"/>
<ellipse cx="329.628" cy="958.44" rx="0.498679" ry="0.56015" fill="white"/>
<ellipse cx="404.429" cy="958.44" rx="0.498721" ry="0.56015" fill="white"/>
<ellipse cx="479.232" cy="958.44" rx="0.498679" ry="0.56015" fill="white"/>
<ellipse cx="554.034" cy="958.44" rx="0.498666" ry="0.56015" fill="white"/>
<ellipse cx="628.836" cy="958.44" rx="0.498666" ry="0.56015" fill="white"/>
<ellipse cx="628.836" cy="958.44" rx="0.498666" ry="0.56015" fill="white"/>
<ellipse cx="723.585" cy="902.423" rx="0.498693" ry="0.560088" fill="white"/>
<ellipse cx="37.4007" cy="79.5433" rx="0.99736" ry="1.12033" fill="white"/>
<ellipse cx="187.005" cy="85.1448" rx="0.997363" ry="1.12032" fill="white"/>
<ellipse cx="336.609" cy="79.5433" rx="0.997363" ry="1.12033" fill="white"/>
<ellipse cx="486.213" cy="73.9416" rx="0.997322" ry="1.12032" fill="white"/>
<ellipse cx="635.817" cy="79.5433" rx="0.997363" ry="1.12033" fill="white"/>
<ellipse cx="785.421" cy="85.1448" rx="0.997254" ry="1.12032" fill="white"/>
<ellipse cx="97.243" cy="191.576" rx="0.997353" ry="1.12033" fill="white"/>
<ellipse cx="246.847" cy="197.178" rx="0.997336" ry="1.12033" fill="white"/>
<ellipse cx="396.451" cy="191.576" rx="0.997322" ry="1.12033" fill="white"/>
<ellipse cx="546.055" cy="185.974" rx="0.997363" ry="1.12033" fill="white"/>
<ellipse cx="695.659" cy="191.576" rx="0.997336" ry="1.12033" fill="white"/>
<ellipse cx="845.263" cy="197.178" rx="0.997363" ry="1.12033" fill="white"/>
<ellipse cx="72.3084" cy="304.729" rx="0.997362" ry="1.12033" fill="white"/>
<ellipse cx="221.913" cy="310.33" rx="0.997363" ry="1.12033" fill="white"/>
<ellipse cx="371.517" cy="304.729" rx="0.997363" ry="1.12033" fill="white"/>
<ellipse cx="521.12" cy="299.127" rx="0.99739" ry="1.12031" fill="white"/>
<ellipse cx="670.724" cy="304.729" rx="0.997336" ry="1.12033" fill="white"/>
<ellipse cx="820.329" cy="309.21" rx="0.997363" ry="1.12033" fill="white"/>
<ellipse cx="47.3743" cy="416.762" rx="0.997362" ry="1.12033" fill="white"/>
<ellipse cx="196.979" cy="422.363" rx="0.997356" ry="1.12033" fill="white"/>
<ellipse cx="346.583" cy="416.762" rx="0.99735" ry="1.12033" fill="white"/>
<ellipse cx="496.187" cy="411.16" rx="0.997418" ry="1.12033" fill="white"/>
<ellipse cx="645.791" cy="416.762" rx="0.997363" ry="1.12033" fill="white"/>
<ellipse cx="795.395" cy="421.243" rx="0.997254" ry="1.12033" fill="white"/>
<ellipse cx="127.163" cy="528.794" rx="0.99737" ry="1.12033" fill="white"/>
<ellipse cx="276.768" cy="534.396" rx="0.997363" ry="1.12036" fill="white"/>
<ellipse cx="426.371" cy="528.794" rx="0.99735" ry="1.12033" fill="white"/>
<ellipse cx="575.975" cy="523.192" rx="0.997363" ry="1.12033" fill="white"/>
<ellipse cx="725.58" cy="528.794" rx="0.997363" ry="1.12033" fill="white"/>
<ellipse cx="875.183" cy="533.276" rx="0.997254" ry="1.12033" fill="white"/>
<ellipse cx="33.9104" cy="640.827" rx="0.99736" ry="1.12033" fill="white"/>
<ellipse cx="183.514" cy="646.428" rx="0.997356" ry="1.12033" fill="white"/>
<ellipse cx="333.119" cy="640.827" rx="0.997363" ry="1.12033" fill="white"/>
<ellipse cx="482.722" cy="635.225" rx="0.997363" ry="1.12033" fill="white"/>
<ellipse cx="632.327" cy="640.827" rx="0.997363" ry="1.12033" fill="white"/>
<ellipse cx="781.93" cy="645.308" rx="0.997281" ry="1.12036" fill="white"/>
<ellipse cx="45.3797" cy="737.175" rx="0.997358" ry="1.12033" fill="white"/>
<ellipse cx="194.984" cy="742.777" rx="0.997363" ry="1.12033" fill="white"/>
<ellipse cx="344.588" cy="737.175" rx="0.997363" ry="1.12033" fill="white"/>
<ellipse cx="494.192" cy="731.573" rx="0.997336" ry="1.12033" fill="white"/>
<ellipse cx="643.796" cy="737.175" rx="0.997363" ry="1.12033" fill="white"/>
<ellipse cx="793.4" cy="742.777" rx="0.997363" ry="1.12033" fill="white"/>
<ellipse cx="81.7835" cy="857.05" rx="0.99736" ry="1.12033" fill="white"/>
<ellipse cx="231.388" cy="862.652" rx="0.997336" ry="1.1203" fill="white"/>
<ellipse cx="380.992" cy="857.05" rx="0.997363" ry="1.12033" fill="white"/>
<ellipse cx="530.595" cy="851.449" rx="0.997308" ry="1.12033" fill="white"/>
<ellipse cx="680.199" cy="857.05" rx="0.997336" ry="1.12033" fill="white"/>
<ellipse cx="829.804" cy="862.652" rx="0.99739" ry="1.1203" fill="white"/>
<ellipse cx="718.598" cy="956.759" rx="0.997363" ry="1.12036" fill="white"/>
<ellipse cx="147.11" cy="34.7301" rx="0.99735" ry="1.12032" fill="white"/>
<ellipse cx="296.715" cy="29.1286" rx="0.99735" ry="1.12032" fill="white"/>
<ellipse cx="446.319" cy="23.5269" rx="0.99735" ry="1.12033" fill="white"/>
<ellipse cx="595.923" cy="29.1286" rx="0.997363" ry="1.12032" fill="white"/>
<ellipse cx="745.527" cy="34.7301" rx="0.99739" ry="1.12032" fill="white"/>
<ellipse cx="117.19" cy="146.763" rx="0.99736" ry="1.12035" fill="white"/>
<ellipse cx="266.794" cy="141.161" rx="0.997363" ry="1.12033" fill="white"/>
<ellipse cx="416.398" cy="135.56" rx="0.997404" ry="1.12033" fill="white"/>
<ellipse cx="566.002" cy="141.161" rx="0.99739" ry="1.12033" fill="white"/>
<ellipse cx="715.606" cy="146.763" rx="0.997336" ry="1.12035" fill="white"/>
<ellipse cx="27.4275" cy="254.314" rx="0.997361" ry="1.12033" fill="white"/>
<ellipse cx="177.032" cy="259.916" rx="0.997356" ry="1.12031" fill="white"/>
<ellipse cx="326.636" cy="254.314" rx="0.997363" ry="1.12033" fill="white"/>
<ellipse cx="476.24" cy="248.712" rx="0.997377" ry="1.12033" fill="white"/>
<ellipse cx="625.843" cy="254.314" rx="0.997336" ry="1.12033" fill="white"/>
<ellipse cx="775.448" cy="258.796" rx="0.997363" ry="1.12033" fill="white"/>
<ellipse cx="152.097" cy="371.948" rx="0.997356" ry="1.12033" fill="white"/>
<ellipse cx="301.701" cy="366.347" rx="0.99735" ry="1.1203" fill="white"/>
<ellipse cx="451.306" cy="360.745" rx="0.997404" ry="1.12033" fill="white"/>
<ellipse cx="600.909" cy="366.347" rx="0.997363" ry="1.1203" fill="white"/>
<ellipse cx="750.513" cy="371.948" rx="0.997363" ry="1.12033" fill="white"/>
<ellipse cx="127.163" cy="483.981" rx="0.99737" ry="1.12033" fill="white"/>
<ellipse cx="276.768" cy="478.379" rx="0.997363" ry="1.12033" fill="white"/>
<ellipse cx="426.371" cy="472.778" rx="0.99735" ry="1.12033" fill="white"/>
<ellipse cx="575.975" cy="478.379" rx="0.997363" ry="1.12033" fill="white"/>
<ellipse cx="725.58" cy="483.981" rx="0.997363" ry="1.12033" fill="white"/>
<ellipse cx="57.3484" cy="590.412" rx="0.99736" ry="1.1203" fill="white"/>
<ellipse cx="206.952" cy="596.014" rx="0.997363" ry="1.12033" fill="white"/>
<ellipse cx="356.556" cy="590.412" rx="0.997363" ry="1.1203" fill="white"/>
<ellipse cx="506.16" cy="584.81" rx="0.997418" ry="1.12033" fill="white"/>
<ellipse cx="655.764" cy="590.412" rx="0.99739" ry="1.1203" fill="white"/>
<ellipse cx="805.368" cy="594.893" rx="0.997363" ry="1.12033" fill="white"/>
<ellipse cx="113.7" cy="706.926" rx="0.99736" ry="1.12033" fill="white"/>
<ellipse cx="263.303" cy="701.325" rx="0.997377" ry="1.12033" fill="white"/>
<ellipse cx="412.908" cy="695.723" rx="0.997404" ry="1.12033" fill="white"/>
<ellipse cx="562.511" cy="701.325" rx="0.997363" ry="1.12033" fill="white"/>
<ellipse cx="712.115" cy="706.926" rx="0.997363" ry="1.12033" fill="white"/>
<ellipse cx="125.169" cy="804.395" rx="0.99735" ry="1.12033" fill="white"/>
<ellipse cx="274.773" cy="798.793" rx="0.99735" ry="1.1203" fill="white"/>
<ellipse cx="424.377" cy="793.191" rx="0.997404" ry="1.12036" fill="white"/>
<ellipse cx="573.981" cy="798.793" rx="0.997363" ry="1.1203" fill="white"/>
<ellipse cx="723.585" cy="804.395" rx="0.997363" ry="1.12033" fill="white"/>
<ellipse cx="11.9685" cy="918.668" rx="0.997357" ry="1.1203" fill="white"/>
<ellipse cx="161.573" cy="924.27" rx="0.997356" ry="1.1203" fill="white"/>
<ellipse cx="311.176" cy="918.668" rx="0.997363" ry="1.1203" fill="white"/>
<ellipse cx="460.78" cy="913.067" rx="0.997322" ry="1.1203" fill="white"/>
<ellipse cx="610.384" cy="918.668" rx="0.997363" ry="1.1203" fill="white"/>
<ellipse cx="759.989" cy="924.27" rx="0.997281" ry="1.1203" fill="white"/>
<ellipse cx="752.243" cy="0.560165" rx="0.498677" ry="0.560165" fill="white"/>
<ellipse cx="827.047" cy="0.560165" rx="0.498679" ry="0.560165" fill="white"/>
<ellipse cx="901.848" cy="0.560165" rx="0.498679" ry="0.560165" fill="white"/>
<ellipse cx="976.65" cy="0.560165" rx="0.498673" ry="0.560165" fill="white"/>
<ellipse cx="1051.45" cy="0.560165" rx="0.498679" ry="0.560165" fill="white"/>
<ellipse cx="1126.25" cy="0.560165" rx="0.498679" ry="0.560165" fill="white"/>
<ellipse cx="1201.06" cy="0.560165" rx="0.498625" ry="0.560165" fill="white"/>
<ellipse cx="1275.86" cy="0.560165" rx="0.498666" ry="0.560165" fill="white"/>
<ellipse cx="1350.66" cy="0.560165" rx="0.498693" ry="0.560165" fill="white"/>
<ellipse cx="1425.46" cy="0.560165" rx="0.498693" ry="0.560165" fill="white"/>
<ellipse cx="787.151" cy="56.5764" rx="0.498679" ry="0.560165" fill="white"/>
<ellipse cx="861.953" cy="56.5764" rx="0.49869" ry="0.560165" fill="white"/>
<ellipse cx="936.755" cy="56.5764" rx="0.498679" ry="0.560165" fill="white"/>
<ellipse cx="1011.56" cy="56.5764" rx="0.498666" ry="0.560165" fill="white"/>
<ellipse cx="1086.36" cy="56.5764" rx="0.498693" ry="0.560165" fill="white"/>
<ellipse cx="1161.16" cy="56.5764" rx="0.498679" ry="0.560165" fill="white"/>
<ellipse cx="1235.96" cy="56.5764" rx="0.498693" ry="0.560165" fill="white"/>
<ellipse cx="1310.77" cy="56.5764" rx="0.498666" ry="0.560165" fill="white"/>
<ellipse cx="1385.57" cy="56.5764" rx="0.498693" ry="0.560165" fill="white"/>
<ellipse cx="1460.37" cy="56.5764" rx="0.498693" ry="0.560165" fill="white"/>
<ellipse cx="772.192" cy="112.593" rx="0.49868" ry="0.560165" fill="white"/>
<ellipse cx="846.992" cy="112.593" rx="0.498679" ry="0.560165" fill="white"/>
<ellipse cx="921.794" cy="112.593" rx="0.498679" ry="0.560165" fill="white"/>
<ellipse cx="996.597" cy="112.593" rx="0.498693" ry="0.560165" fill="white"/>
<ellipse cx="1071.4" cy="112.593" rx="0.498679" ry="0.560165" fill="white"/>
<ellipse cx="1146.2" cy="112.593" rx="0.498679" ry="0.560165" fill="white"/>
<ellipse cx="1221" cy="112.593" rx="0.498666" ry="0.560165" fill="white"/>
<ellipse cx="1295.81" cy="112.593" rx="0.498693" ry="0.560165" fill="white"/>
<ellipse cx="1370.61" cy="112.593" rx="0.498693" ry="0.560165" fill="white"/>
<ellipse cx="1445.41" cy="112.593" rx="0.498666" ry="0.560165" fill="white"/>
<ellipse cx="787.151" cy="168.609" rx="0.498679" ry="0.560165" fill="white"/>
<ellipse cx="861.953" cy="168.609" rx="0.49869" ry="0.560165" fill="white"/>
<ellipse cx="936.755" cy="168.609" rx="0.498679" ry="0.560165" fill="white"/>
<ellipse cx="1011.56" cy="168.609" rx="0.498666" ry="0.560165" fill="white"/>
<ellipse cx="1086.36" cy="168.609" rx="0.498693" ry="0.560165" fill="white"/>
<ellipse cx="1161.16" cy="168.609" rx="0.498679" ry="0.560165" fill="white"/>
<ellipse cx="1235.96" cy="168.609" rx="0.498693" ry="0.560165" fill="white"/>
<ellipse cx="1310.77" cy="168.609" rx="0.498666" ry="0.560165" fill="white"/>
<ellipse cx="1385.57" cy="168.609" rx="0.498693" ry="0.560165" fill="white"/>
<ellipse cx="1460.37" cy="168.609" rx="0.498693" ry="0.560165" fill="white"/>
<ellipse cx="762.217" cy="225.746" rx="0.498678" ry="0.560165" fill="white"/>
<ellipse cx="837.019" cy="225.746" rx="0.498679" ry="0.560165" fill="white"/>
<ellipse cx="911.821" cy="225.746" rx="0.498673" ry="0.560165" fill="white"/>
<ellipse cx="986.623" cy="225.746" rx="0.4987" ry="0.560165" fill="white"/>
<ellipse cx="1061.43" cy="225.746" rx="0.498679" ry="0.560165" fill="white"/>
<ellipse cx="1136.23" cy="225.746" rx="0.498679" ry="0.560165" fill="white"/>
<ellipse cx="1211.03" cy="225.746" rx="0.498721" ry="0.560165" fill="white"/>
<ellipse cx="1285.83" cy="225.746" rx="0.498666" ry="0.560165" fill="white"/>
<ellipse cx="1360.63" cy="225.746" rx="0.498693" ry="0.560165" fill="white"/>
<ellipse cx="1435.44" cy="225.746" rx="0.498666" ry="0.560165" fill="white"/>
<ellipse cx="792.138" cy="281.762" rx="0.498678" ry="0.560165" fill="white"/>
<ellipse cx="866.94" cy="281.762" rx="0.498679" ry="0.560165" fill="white"/>
<ellipse cx="941.742" cy="281.762" rx="0.4987" ry="0.560165" fill="white"/>
<ellipse cx="1016.54" cy="281.762" rx="0.498679" ry="0.560165" fill="white"/>
<ellipse cx="1091.35" cy="281.762" rx="0.498679" ry="0.560165" fill="white"/>
<ellipse cx="1166.15" cy="281.762" rx="0.498721" ry="0.560165" fill="white"/>
<ellipse cx="1240.95" cy="281.762" rx="0.498611" ry="0.560165" fill="white"/>
<ellipse cx="1315.75" cy="281.762" rx="0.498693" ry="0.560165" fill="white"/>
<ellipse cx="1390.55" cy="281.762" rx="0.498666" ry="0.560165" fill="white"/>
<ellipse cx="782.165" cy="337.778" rx="0.498678" ry="0.560165" fill="white"/>
<ellipse cx="856.965" cy="337.778" rx="0.498666" ry="0.560165" fill="white"/>
<ellipse cx="931.768" cy="337.778" rx="0.498679" ry="0.560165" fill="white"/>
<ellipse cx="1006.57" cy="337.778" rx="0.498707" ry="0.560165" fill="white"/>
<ellipse cx="1081.37" cy="337.778" rx="0.498679" ry="0.560165" fill="white"/>
<ellipse cx="1156.18" cy="337.778" rx="0.498625" ry="0.560165" fill="white"/>
<ellipse cx="1230.98" cy="337.778" rx="0.498721" ry="0.560165" fill="white"/>
<ellipse cx="1305.78" cy="337.778" rx="0.498693" ry="0.560165" fill="white"/>
<ellipse cx="1380.58" cy="337.778" rx="0.498693" ry="0.560165" fill="white"/>
<ellipse cx="1455.38" cy="337.778" rx="0.498666" ry="0.560165" fill="white"/>
<ellipse cx="812.086" cy="393.795" rx="0.498683" ry="0.56015" fill="white"/>
<ellipse cx="886.887" cy="393.795" rx="0.498679" ry="0.56015" fill="white"/>
<ellipse cx="961.689" cy="393.795" rx="0.4987" ry="0.56015" fill="white"/>
<ellipse cx="1036.49" cy="393.795" rx="0.498679" ry="0.56015" fill="white"/>
<ellipse cx="1111.29" cy="393.795" rx="0.498666" ry="0.56015" fill="white"/>
<ellipse cx="1186.1" cy="393.795" rx="0.498721" ry="0.56015" fill="white"/>
<ellipse cx="1260.9" cy="393.795" rx="0.498693" ry="0.56015" fill="white"/>
<ellipse cx="1335.7" cy="393.795" rx="0.498693" ry="0.56015" fill="white"/>
<ellipse cx="1410.5" cy="393.795" rx="0.498666" ry="0.56015" fill="white"/>
<ellipse cx="1485.3" cy="393.795" rx="0.498857" ry="0.56015" fill="white"/>
<ellipse cx="772.192" cy="449.811" rx="0.49868" ry="0.56015" fill="white"/>
<ellipse cx="846.992" cy="449.811" rx="0.498679" ry="0.56015" fill="white"/>
<ellipse cx="921.794" cy="449.811" rx="0.498679" ry="0.56015" fill="white"/>
<ellipse cx="996.597" cy="449.811" rx="0.498693" ry="0.56015" fill="white"/>
<ellipse cx="1071.4" cy="449.811" rx="0.498679" ry="0.56015" fill="white"/>
<ellipse cx="1146.2" cy="449.811" rx="0.498679" ry="0.56015" fill="white"/>
<ellipse cx="1221" cy="449.811" rx="0.498666" ry="0.56015" fill="white"/>
<ellipse cx="1295.81" cy="449.811" rx="0.498693" ry="0.56015" fill="white"/>
<ellipse cx="1370.61" cy="449.811" rx="0.498693" ry="0.56015" fill="white"/>
<ellipse cx="1445.41" cy="449.811" rx="0.498666" ry="0.56015" fill="white"/>
<ellipse cx="787.151" cy="505.827" rx="0.498679" ry="0.56015" fill="white"/>
<ellipse cx="861.953" cy="505.827" rx="0.49869" ry="0.56015" fill="white"/>
<ellipse cx="936.755" cy="505.827" rx="0.498679" ry="0.56015" fill="white"/>
<ellipse cx="1011.56" cy="505.827" rx="0.498666" ry="0.56015" fill="white"/>
<ellipse cx="1086.36" cy="505.827" rx="0.498693" ry="0.56015" fill="white"/>
<ellipse cx="1161.16" cy="505.827" rx="0.498679" ry="0.56015" fill="white"/>
<ellipse cx="1235.96" cy="505.827" rx="0.498693" ry="0.56015" fill="white"/>
<ellipse cx="1310.77" cy="505.827" rx="0.498666" ry="0.56015" fill="white"/>
<ellipse cx="1385.57" cy="505.827" rx="0.498693" ry="0.56015" fill="white"/>
<ellipse cx="1460.37" cy="505.827" rx="0.498693" ry="0.56015" fill="white"/>
<ellipse cx="822.059" cy="567.445" rx="0.498676" ry="0.56015" fill="white"/>
<ellipse cx="896.861" cy="567.445" rx="0.498679" ry="0.56015" fill="white"/>
<ellipse cx="971.663" cy="567.445" rx="0.498673" ry="0.56015" fill="white"/>
<ellipse cx="1046.46" cy="567.445" rx="0.498679" ry="0.56015" fill="white"/>
<ellipse cx="1121.27" cy="567.445" rx="0.498721" ry="0.56015" fill="white"/>
<ellipse cx="1196.07" cy="567.445" rx="0.498625" ry="0.56015" fill="white"/>
<ellipse cx="1270.87" cy="567.445" rx="0.498693" ry="0.56015" fill="white"/>
<ellipse cx="1345.67" cy="567.445" rx="0.498666" ry="0.56015" fill="white"/>
<ellipse cx="1420.48" cy="567.445" rx="0.498666" ry="0.56015" fill="white"/>
<ellipse cx="1495.28" cy="567.445" rx="0.498693" ry="0.56015" fill="white"/>
<ellipse cx="792.138" cy="629.063" rx="0.498678" ry="0.560181" fill="white"/>
<ellipse cx="866.94" cy="629.063" rx="0.498679" ry="0.560181" fill="white"/>
<ellipse cx="941.742" cy="629.063" rx="0.4987" ry="0.560181" fill="white"/>
<ellipse cx="1016.54" cy="629.063" rx="0.498679" ry="0.560181" fill="white"/>
<ellipse cx="1091.35" cy="629.063" rx="0.498679" ry="0.560181" fill="white"/>
<ellipse cx="1166.15" cy="629.063" rx="0.498721" ry="0.560181" fill="white"/>
<ellipse cx="1240.95" cy="629.063" rx="0.498611" ry="0.560181" fill="white"/>
<ellipse cx="1315.75" cy="629.063" rx="0.498693" ry="0.560181" fill="white"/>
<ellipse cx="1390.55" cy="629.063" rx="0.498666" ry="0.560181" fill="white"/>
<ellipse cx="1465.36" cy="629.063" rx="0.498666" ry="0.560181" fill="white"/>
<ellipse cx="832.032" cy="689.561" rx="0.498676" ry="0.560181" fill="white"/>
<ellipse cx="906.835" cy="689.561" rx="0.498673" ry="0.560181" fill="white"/>
<ellipse cx="981.637" cy="689.561" rx="0.4987" ry="0.560181" fill="white"/>
<ellipse cx="1056.44" cy="689.561" rx="0.498666" ry="0.560181" fill="white"/>
<ellipse cx="1131.24" cy="689.561" rx="0.498666" ry="0.560181" fill="white"/>
<ellipse cx="1206.04" cy="689.561" rx="0.498679" ry="0.560181" fill="white"/>
<ellipse cx="1280.84" cy="689.561" rx="0.498693" ry="0.560181" fill="white"/>
<ellipse cx="1355.65" cy="689.561" rx="0.498666" ry="0.560181" fill="white"/>
<ellipse cx="1430.45" cy="689.561" rx="0.498693" ry="0.560181" fill="white"/>
<ellipse cx="802.112" cy="751.179" rx="0.498678" ry="0.560181" fill="white"/>
<ellipse cx="876.914" cy="751.179" rx="0.498679" ry="0.560181" fill="white"/>
<ellipse cx="951.715" cy="751.179" rx="0.498686" ry="0.560181" fill="white"/>
<ellipse cx="1026.52" cy="751.179" rx="0.498679" ry="0.560181" fill="white"/>
<ellipse cx="1101.32" cy="751.179" rx="0.498666" ry="0.560181" fill="white"/>
<ellipse cx="1176.12" cy="751.179" rx="0.498666" ry="0.560181" fill="white"/>
<ellipse cx="1250.92" cy="751.179" rx="0.498693" ry="0.560181" fill="white"/>
<ellipse cx="1325.73" cy="751.179" rx="0.498693" ry="0.560181" fill="white"/>
<ellipse cx="1400.53" cy="751.179" rx="0.498666" ry="0.560181" fill="white"/>
<ellipse cx="1475.33" cy="751.179" rx="0.498693" ry="0.560181" fill="white"/>
<ellipse cx="772.192" cy="812.797" rx="0.49868" ry="0.56015" fill="white"/>
<ellipse cx="846.992" cy="812.797" rx="0.498679" ry="0.56015" fill="white"/>
<ellipse cx="921.794" cy="812.797" rx="0.498679" ry="0.56015" fill="white"/>
<ellipse cx="996.597" cy="812.797" rx="0.498693" ry="0.56015" fill="white"/>
<ellipse cx="1071.4" cy="812.797" rx="0.498679" ry="0.56015" fill="white"/>
<ellipse cx="1146.2" cy="812.797" rx="0.498679" ry="0.56015" fill="white"/>
<ellipse cx="1221" cy="812.797" rx="0.498666" ry="0.56015" fill="white"/>
<ellipse cx="1295.81" cy="812.797" rx="0.498693" ry="0.56015" fill="white"/>
<ellipse cx="1370.61" cy="812.797" rx="0.498693" ry="0.56015" fill="white"/>
<ellipse cx="1445.41" cy="812.797" rx="0.498666" ry="0.56015" fill="white"/>
<ellipse cx="802.112" cy="874.415" rx="0.498678" ry="0.56015" fill="white"/>
<ellipse cx="876.914" cy="874.415" rx="0.498679" ry="0.56015" fill="white"/>
<ellipse cx="951.715" cy="874.415" rx="0.498686" ry="0.56015" fill="white"/>
<ellipse cx="1026.52" cy="874.415" rx="0.498679" ry="0.56015" fill="white"/>
<ellipse cx="1101.32" cy="874.415" rx="0.498666" ry="0.56015" fill="white"/>
<ellipse cx="1176.12" cy="874.415" rx="0.498666" ry="0.56015" fill="white"/>
<ellipse cx="1250.92" cy="874.415" rx="0.498693" ry="0.56015" fill="white"/>
<ellipse cx="1325.73" cy="874.415" rx="0.498693" ry="0.56015" fill="white"/>
<ellipse cx="1400.53" cy="874.415" rx="0.498666" ry="0.56015" fill="white"/>
<ellipse cx="782.165" cy="930.431" rx="0.498678" ry="0.56015" fill="white"/>
<ellipse cx="856.965" cy="930.431" rx="0.498666" ry="0.56015" fill="white"/>
<ellipse cx="931.768" cy="930.431" rx="0.498679" ry="0.56015" fill="white"/>
<ellipse cx="1006.57" cy="930.431" rx="0.498707" ry="0.56015" fill="white"/>
<ellipse cx="1081.37" cy="930.431" rx="0.498679" ry="0.56015" fill="white"/>
<ellipse cx="1156.18" cy="930.431" rx="0.498625" ry="0.56015" fill="white"/>
<ellipse cx="1230.98" cy="930.431" rx="0.498721" ry="0.56015" fill="white"/>
<ellipse cx="1305.78" cy="930.431" rx="0.498693" ry="0.56015" fill="white"/>
<ellipse cx="1380.58" cy="930.431" rx="0.498693" ry="0.56015" fill="white"/>
<ellipse cx="1380.58" cy="930.431" rx="0.498693" ry="0.56015" fill="white"/>
<ellipse cx="1475.33" cy="874.415" rx="0.498693" ry="0.56015" fill="white"/>
<ellipse cx="777.178" cy="6.16171" rx="0.498679" ry="0.560165" fill="white"/>
<ellipse cx="851.979" cy="6.16171" rx="0.498679" ry="0.560165" fill="white"/>
<ellipse cx="926.781" cy="6.16171" rx="0.498673" ry="0.560165" fill="white"/>
<ellipse cx="1001.58" cy="6.16171" rx="0.498652" ry="0.560165" fill="white"/>
<ellipse cx="1076.39" cy="6.16171" rx="0.498679" ry="0.560165" fill="white"/>
<ellipse cx="1151.19" cy="6.16171" rx="0.498625" ry="0.560165" fill="white"/>
<ellipse cx="1225.99" cy="6.16171" rx="0.498693" ry="0.560165" fill="white"/>
<ellipse cx="1300.79" cy="6.16171" rx="0.498666" ry="0.560165" fill="white"/>
<ellipse cx="1375.59" cy="6.16171" rx="0.498666" ry="0.560165" fill="white"/>
<ellipse cx="1450.4" cy="6.16171" rx="0.498693" ry="0.560165" fill="white"/>
<ellipse cx="812.086" cy="62.1781" rx="0.498683" ry="0.560165" fill="white"/>
<ellipse cx="886.887" cy="62.1781" rx="0.498679" ry="0.560165" fill="white"/>
<ellipse cx="961.689" cy="62.1781" rx="0.4987" ry="0.560165" fill="white"/>
<ellipse cx="1036.49" cy="62.1781" rx="0.498679" ry="0.560165" fill="white"/>
<ellipse cx="1111.29" cy="62.1781" rx="0.498666" ry="0.560165" fill="white"/>
<ellipse cx="1186.1" cy="62.1781" rx="0.498721" ry="0.560165" fill="white"/>
<ellipse cx="1260.9" cy="62.1781" rx="0.498693" ry="0.560165" fill="white"/>
<ellipse cx="1335.7" cy="62.1781" rx="0.498693" ry="0.560165" fill="white"/>
<ellipse cx="1410.5" cy="62.1781" rx="0.498666" ry="0.560165" fill="white"/>
<ellipse cx="1485.3" cy="62.1781" rx="0.498857" ry="0.560165" fill="white"/>
<ellipse cx="797.125" cy="118.194" rx="0.498679" ry="0.560165" fill="white"/>
<ellipse cx="871.927" cy="118.194" rx="0.498679" ry="0.560165" fill="white"/>
<ellipse cx="946.729" cy="118.194" rx="0.498659" ry="0.560165" fill="white"/>
<ellipse cx="1021.53" cy="118.194" rx="0.498666" ry="0.560165" fill="white"/>
<ellipse cx="1096.33" cy="118.194" rx="0.498679" ry="0.560165" fill="white"/>
<ellipse cx="1171.13" cy="118.194" rx="0.498679" ry="0.560165" fill="white"/>
<ellipse cx="1245.94" cy="118.194" rx="0.498638" ry="0.560165" fill="white"/>
<ellipse cx="1320.74" cy="118.194" rx="0.498666" ry="0.560165" fill="white"/>
<ellipse cx="1395.54" cy="118.194" rx="0.498693" ry="0.560165" fill="white"/>
<ellipse cx="1470.34" cy="118.194" rx="0.498693" ry="0.560165" fill="white"/>
<ellipse cx="812.086" cy="174.211" rx="0.498683" ry="0.560165" fill="white"/>
<ellipse cx="886.887" cy="174.211" rx="0.498679" ry="0.560165" fill="white"/>
<ellipse cx="961.689" cy="174.211" rx="0.4987" ry="0.560165" fill="white"/>
<ellipse cx="1036.49" cy="174.211" rx="0.498679" ry="0.560165" fill="white"/>
<ellipse cx="1111.29" cy="174.211" rx="0.498666" ry="0.560165" fill="white"/>
<ellipse cx="1186.1" cy="174.211" rx="0.498721" ry="0.560165" fill="white"/>
<ellipse cx="1260.9" cy="174.211" rx="0.498693" ry="0.560165" fill="white"/>
<ellipse cx="1335.7" cy="174.211" rx="0.498693" ry="0.560165" fill="white"/>
<ellipse cx="1410.5" cy="174.211" rx="0.498666" ry="0.560165" fill="white"/>
<ellipse cx="1485.3" cy="174.211" rx="0.498857" ry="0.560165" fill="white"/>
<ellipse cx="787.151" cy="231.347" rx="0.498679" ry="0.560165" fill="white"/>
<ellipse cx="861.953" cy="231.347" rx="0.49869" ry="0.560165" fill="white"/>
<ellipse cx="936.755" cy="231.347" rx="0.498679" ry="0.560165" fill="white"/>
<ellipse cx="1011.56" cy="231.347" rx="0.498666" ry="0.560165" fill="white"/>
<ellipse cx="1086.36" cy="231.347" rx="0.498693" ry="0.560165" fill="white"/>
<ellipse cx="1161.16" cy="231.347" rx="0.498679" ry="0.560165" fill="white"/>
<ellipse cx="1235.96" cy="231.347" rx="0.498693" ry="0.560165" fill="white"/>
<ellipse cx="1310.77" cy="231.347" rx="0.498666" ry="0.560165" fill="white"/>
<ellipse cx="1385.57" cy="231.347" rx="0.498693" ry="0.560165" fill="white"/>
<ellipse cx="1460.37" cy="231.347" rx="0.498693" ry="0.560165" fill="white"/>
<ellipse cx="817.072" cy="287.364" rx="0.498679" ry="0.560165" fill="white"/>
<ellipse cx="891.874" cy="287.364" rx="0.498679" ry="0.560165" fill="white"/>
<ellipse cx="966.676" cy="287.364" rx="0.498673" ry="0.560165" fill="white"/>
<ellipse cx="1041.48" cy="287.364" rx="0.498693" ry="0.560165" fill="white"/>
<ellipse cx="1116.28" cy="287.364" rx="0.498679" ry="0.560165" fill="white"/>
<ellipse cx="1191.08" cy="287.364" rx="0.498679" ry="0.560165" fill="white"/>
<ellipse cx="1265.88" cy="287.364" rx="0.498666" ry="0.560165" fill="white"/>
<ellipse cx="1340.69" cy="287.364" rx="0.498693" ry="0.560165" fill="white"/>
<ellipse cx="1415.49" cy="287.364" rx="0.498693" ry="0.560165" fill="white"/>
<ellipse cx="807.099" cy="343.38" rx="0.498673" ry="0.560165" fill="white"/>
<ellipse cx="881.9" cy="343.38" rx="0.498686" ry="0.560165" fill="white"/>
<ellipse cx="956.703" cy="343.38" rx="0.498652" ry="0.560165" fill="white"/>
<ellipse cx="1031.51" cy="343.38" rx="0.498679" ry="0.560165" fill="white"/>
<ellipse cx="1106.31" cy="343.38" rx="0.498679" ry="0.560165" fill="white"/>
<ellipse cx="1181.11" cy="343.38" rx="0.498679" ry="0.560165" fill="white"/>
<ellipse cx="1255.91" cy="343.38" rx="0.498721" ry="0.560165" fill="white"/>
<ellipse cx="1330.71" cy="343.38" rx="0.498666" ry="0.560165" fill="white"/>
<ellipse cx="1405.52" cy="343.38" rx="0.498693" ry="0.560165" fill="white"/>
<ellipse cx="1480.32" cy="343.38" rx="0.498583" ry="0.560165" fill="white"/>
<ellipse cx="837.019" cy="399.396" rx="0.498679" ry="0.56015" fill="white"/>
<ellipse cx="911.821" cy="399.396" rx="0.498673" ry="0.56015" fill="white"/>
<ellipse cx="986.623" cy="399.396" rx="0.4987" ry="0.56015" fill="white"/>
<ellipse cx="1061.43" cy="399.396" rx="0.498679" ry="0.56015" fill="white"/>
<ellipse cx="1136.23" cy="399.396" rx="0.498679" ry="0.56015" fill="white"/>
<ellipse cx="1211.03" cy="399.396" rx="0.498721" ry="0.56015" fill="white"/>
<ellipse cx="1285.83" cy="399.396" rx="0.498666" ry="0.56015" fill="white"/>
<ellipse cx="1360.63" cy="399.396" rx="0.498693" ry="0.56015" fill="white"/>
<ellipse cx="1435.44" cy="399.396" rx="0.498666" ry="0.56015" fill="white"/>
<ellipse cx="1510.24" cy="398.276" rx="0.498556" ry="0.56015" fill="white"/>
<ellipse cx="797.125" cy="455.413" rx="0.498679" ry="0.560181" fill="white"/>
<ellipse cx="871.927" cy="455.413" rx="0.498679" ry="0.560181" fill="white"/>
<ellipse cx="946.729" cy="455.413" rx="0.498659" ry="0.560181" fill="white"/>
<ellipse cx="1021.53" cy="455.413" rx="0.498666" ry="0.560181" fill="white"/>
<ellipse cx="1096.33" cy="455.413" rx="0.498679" ry="0.560181" fill="white"/>
<ellipse cx="1171.13" cy="455.413" rx="0.498679" ry="0.560181" fill="white"/>
<ellipse cx="1245.94" cy="455.413" rx="0.498638" ry="0.560181" fill="white"/>
<ellipse cx="1320.74" cy="455.413" rx="0.498666" ry="0.560181" fill="white"/>
<ellipse cx="1395.54" cy="455.413" rx="0.498693" ry="0.560181" fill="white"/>
<ellipse cx="1470.34" cy="455.413" rx="0.498693" ry="0.560181" fill="white"/>
<ellipse cx="812.086" cy="511.429" rx="0.498683" ry="0.560181" fill="white"/>
<ellipse cx="886.887" cy="511.429" rx="0.498679" ry="0.560181" fill="white"/>
<ellipse cx="961.689" cy="511.429" rx="0.4987" ry="0.560181" fill="white"/>
<ellipse cx="1036.49" cy="511.429" rx="0.498679" ry="0.560181" fill="white"/>
<ellipse cx="1111.29" cy="511.429" rx="0.498666" ry="0.560181" fill="white"/>
<ellipse cx="1186.1" cy="511.429" rx="0.498721" ry="0.560181" fill="white"/>
<ellipse cx="1260.9" cy="511.429" rx="0.498693" ry="0.560181" fill="white"/>
<ellipse cx="1335.7" cy="511.429" rx="0.498693" ry="0.560181" fill="white"/>
<ellipse cx="1410.5" cy="511.429" rx="0.498666" ry="0.560181" fill="white"/>
<ellipse cx="1485.3" cy="511.429" rx="0.498857" ry="0.560181" fill="white"/>
<ellipse cx="846.992" cy="573.047" rx="0.498679" ry="0.56015" fill="white"/>
<ellipse cx="921.794" cy="573.047" rx="0.498679" ry="0.56015" fill="white"/>
<ellipse cx="996.597" cy="573.047" rx="0.498693" ry="0.56015" fill="white"/>
<ellipse cx="1071.4" cy="573.047" rx="0.498679" ry="0.56015" fill="white"/>
<ellipse cx="1146.2" cy="573.047" rx="0.498679" ry="0.56015" fill="white"/>
<ellipse cx="1221" cy="573.047" rx="0.498666" ry="0.56015" fill="white"/>
<ellipse cx="1295.81" cy="573.047" rx="0.498693" ry="0.56015" fill="white"/>
<ellipse cx="1370.61" cy="573.047" rx="0.498693" ry="0.56015" fill="white"/>
<ellipse cx="1445.41" cy="573.047" rx="0.498666" ry="0.56015" fill="white"/>
<ellipse cx="1520.21" cy="571.927" rx="0.498693" ry="0.560181" fill="white"/>
<ellipse cx="817.072" cy="634.665" rx="0.498679" ry="0.56015" fill="white"/>
<ellipse cx="891.874" cy="634.665" rx="0.498679" ry="0.56015" fill="white"/>
<ellipse cx="966.676" cy="634.665" rx="0.498673" ry="0.56015" fill="white"/>
<ellipse cx="1041.48" cy="634.665" rx="0.498693" ry="0.56015" fill="white"/>
<ellipse cx="1116.28" cy="634.665" rx="0.498679" ry="0.56015" fill="white"/>
<ellipse cx="1191.08" cy="634.665" rx="0.498679" ry="0.56015" fill="white"/>
<ellipse cx="1265.88" cy="634.665" rx="0.498666" ry="0.56015" fill="white"/>
<ellipse cx="1340.69" cy="634.665" rx="0.498693" ry="0.56015" fill="white"/>
<ellipse cx="1415.49" cy="634.665" rx="0.498693" ry="0.56015" fill="white"/>
<ellipse cx="1490.29" cy="634.665" rx="0.498693" ry="0.56015" fill="white"/>
<ellipse cx="856.966" cy="695.163" rx="0.498666" ry="0.56015" fill="white"/>
<ellipse cx="931.768" cy="695.163" rx="0.498679" ry="0.56015" fill="white"/>
<ellipse cx="1006.57" cy="695.163" rx="0.498707" ry="0.56015" fill="white"/>
<ellipse cx="1081.37" cy="695.163" rx="0.498679" ry="0.56015" fill="white"/>
<ellipse cx="1156.18" cy="695.163" rx="0.498625" ry="0.56015" fill="white"/>
<ellipse cx="1230.98" cy="695.163" rx="0.498721" ry="0.56015" fill="white"/>
<ellipse cx="1305.78" cy="695.163" rx="0.498693" ry="0.56015" fill="white"/>
<ellipse cx="1380.58" cy="695.163" rx="0.498693" ry="0.56015" fill="white"/>
<ellipse cx="1455.38" cy="695.163" rx="0.498666" ry="0.56015" fill="white"/>
<ellipse cx="827.046" cy="756.781" rx="0.498679" ry="0.560181" fill="white"/>
<ellipse cx="901.848" cy="756.781" rx="0.498679" ry="0.560181" fill="white"/>
<ellipse cx="976.65" cy="756.781" rx="0.498673" ry="0.560181" fill="white"/>
<ellipse cx="1051.45" cy="756.781" rx="0.498679" ry="0.560181" fill="white"/>
<ellipse cx="1126.25" cy="756.781" rx="0.498679" ry="0.560181" fill="white"/>
<ellipse cx="1201.06" cy="756.781" rx="0.498625" ry="0.560181" fill="white"/>
<ellipse cx="1275.86" cy="756.781" rx="0.498666" ry="0.560181" fill="white"/>
<ellipse cx="1350.66" cy="756.781" rx="0.498693" ry="0.560181" fill="white"/>
<ellipse cx="1425.46" cy="756.781" rx="0.498693" ry="0.560181" fill="white"/>
<ellipse cx="1500.27" cy="756.781" rx="0.498693" ry="0.560181" fill="white"/>
<ellipse cx="797.125" cy="818.399" rx="0.498679" ry="0.560181" fill="white"/>
<ellipse cx="871.927" cy="818.399" rx="0.498679" ry="0.560181" fill="white"/>
<ellipse cx="946.729" cy="818.399" rx="0.498659" ry="0.560181" fill="white"/>
<ellipse cx="1021.53" cy="818.399" rx="0.498666" ry="0.560181" fill="white"/>
<ellipse cx="1096.33" cy="818.399" rx="0.498679" ry="0.560181" fill="white"/>
<ellipse cx="1171.13" cy="818.399" rx="0.498679" ry="0.560181" fill="white"/>
<ellipse cx="1245.94" cy="818.399" rx="0.498638" ry="0.560181" fill="white"/>
<ellipse cx="1320.74" cy="818.399" rx="0.498666" ry="0.560181" fill="white"/>
<ellipse cx="1395.54" cy="818.399" rx="0.498693" ry="0.560181" fill="white"/>
<ellipse cx="1470.34" cy="818.399" rx="0.498693" ry="0.560181" fill="white"/>
<ellipse cx="827.046" cy="880.017" rx="0.498679" ry="0.56015" fill="white"/>
<ellipse cx="901.848" cy="880.017" rx="0.498679" ry="0.56015" fill="white"/>
<ellipse cx="976.65" cy="880.017" rx="0.498673" ry="0.56015" fill="white"/>
<ellipse cx="1051.45" cy="880.017" rx="0.498679" ry="0.56015" fill="white"/>
<ellipse cx="1126.25" cy="880.017" rx="0.498679" ry="0.56015" fill="white"/>
<ellipse cx="1201.06" cy="880.017" rx="0.498625" ry="0.56015" fill="white"/>
<ellipse cx="1275.86" cy="880.017" rx="0.498666" ry="0.56015" fill="white"/>
<ellipse cx="1350.66" cy="880.017" rx="0.498693" ry="0.56015" fill="white"/>
<ellipse cx="1425.46" cy="880.017" rx="0.498693" ry="0.56015" fill="white"/>
<ellipse cx="807.099" cy="936.033" rx="0.498673" ry="0.56015" fill="white"/>
<ellipse cx="881.9" cy="936.033" rx="0.498686" ry="0.56015" fill="white"/>
<ellipse cx="956.703" cy="936.033" rx="0.498652" ry="0.56015" fill="white"/>
<ellipse cx="1031.51" cy="936.033" rx="0.498679" ry="0.56015" fill="white"/>
<ellipse cx="1106.31" cy="936.033" rx="0.498679" ry="0.56015" fill="white"/>
<ellipse cx="1181.11" cy="936.033" rx="0.498679" ry="0.56015" fill="white"/>
<ellipse cx="1255.91" cy="936.033" rx="0.498721" ry="0.56015" fill="white"/>
<ellipse cx="1330.71" cy="936.033" rx="0.498666" ry="0.56015" fill="white"/>
<ellipse cx="1405.52" cy="936.033" rx="0.498693" ry="0.56015" fill="white"/>
<ellipse cx="1405.52" cy="936.033" rx="0.498693" ry="0.56015" fill="white"/>
<ellipse cx="1500.27" cy="880.017" rx="0.498693" ry="0.56015" fill="white"/>
<ellipse cx="724.318" cy="28.5684" rx="0.498678" ry="0.560165" fill="white"/>
<ellipse cx="799.119" cy="28.5684" rx="0.498678" ry="0.560165" fill="white"/>
<ellipse cx="873.923" cy="28.5684" rx="0.498693" ry="0.560165" fill="white"/>
<ellipse cx="948.723" cy="28.5684" rx="0.498659" ry="0.560165" fill="white"/>
<ellipse cx="1023.53" cy="28.5684" rx="0.498679" ry="0.560165" fill="white"/>
<ellipse cx="1098.33" cy="28.5684" rx="0.498679" ry="0.560165" fill="white"/>
<ellipse cx="1173.13" cy="28.5684" rx="0.498721" ry="0.560165" fill="white"/>
<ellipse cx="1247.93" cy="28.5684" rx="0.498693" ry="0.560165" fill="white"/>
<ellipse cx="1322.73" cy="28.5684" rx="0.498666" ry="0.560165" fill="white"/>
<ellipse cx="1397.54" cy="28.5684" rx="0.498666" ry="0.560165" fill="white"/>
<ellipse cx="759.226" cy="84.5846" rx="0.498678" ry="0.560165" fill="white"/>
<ellipse cx="834.027" cy="84.5846" rx="0.498679" ry="0.560165" fill="white"/>
<ellipse cx="908.83" cy="84.5846" rx="0.498679" ry="0.560165" fill="white"/>
<ellipse cx="983.63" cy="84.5846" rx="0.498659" ry="0.560165" fill="white"/>
<ellipse cx="1058.43" cy="84.5846" rx="0.498666" ry="0.560165" fill="white"/>
<ellipse cx="1133.23" cy="84.5846" rx="0.498693" ry="0.560165" fill="white"/>
<ellipse cx="1208.04" cy="84.5846" rx="0.498721" ry="0.560165" fill="white"/>
<ellipse cx="1282.84" cy="84.5846" rx="0.498666" ry="0.560165" fill="white"/>
<ellipse cx="1357.64" cy="84.5846" rx="0.498693" ry="0.560165" fill="white"/>
<ellipse cx="1432.44" cy="84.5846" rx="0.498666" ry="0.560165" fill="white"/>
<ellipse cx="744.265" cy="140.601" rx="0.498678" ry="0.560165" fill="white"/>
<ellipse cx="819.067" cy="140.601" rx="0.498679" ry="0.560165" fill="white"/>
<ellipse cx="893.868" cy="140.601" rx="0.498679" ry="0.560165" fill="white"/>
<ellipse cx="968.671" cy="140.601" rx="0.498673" ry="0.560165" fill="white"/>
<ellipse cx="1043.47" cy="140.601" rx="0.498679" ry="0.560165" fill="white"/>
<ellipse cx="1118.28" cy="140.601" rx="0.498721" ry="0.560165" fill="white"/>
<ellipse cx="1193.08" cy="140.601" rx="0.498679" ry="0.560165" fill="white"/>
<ellipse cx="1267.88" cy="140.601" rx="0.498693" ry="0.560165" fill="white"/>
<ellipse cx="1342.68" cy="140.601" rx="0.498666" ry="0.560165" fill="white"/>
<ellipse cx="1417.48" cy="140.601" rx="0.498666" ry="0.560165" fill="white"/>
<ellipse cx="759.226" cy="196.617" rx="0.498678" ry="0.560165" fill="white"/>
<ellipse cx="834.027" cy="196.617" rx="0.498679" ry="0.560165" fill="white"/>
<ellipse cx="908.83" cy="196.617" rx="0.498679" ry="0.560165" fill="white"/>
<ellipse cx="983.63" cy="196.617" rx="0.498659" ry="0.560165" fill="white"/>
<ellipse cx="1058.43" cy="196.617" rx="0.498666" ry="0.560165" fill="white"/>
<ellipse cx="1133.23" cy="196.617" rx="0.498693" ry="0.560165" fill="white"/>
<ellipse cx="1208.04" cy="196.617" rx="0.498721" ry="0.560165" fill="white"/>
<ellipse cx="1282.84" cy="196.617" rx="0.498666" ry="0.560165" fill="white"/>
<ellipse cx="1357.64" cy="196.617" rx="0.498693" ry="0.560165" fill="white"/>
<ellipse cx="1432.44" cy="196.617" rx="0.498666" ry="0.560165" fill="white"/>
<ellipse cx="734.292" cy="253.754" rx="0.498678" ry="0.560165" fill="white"/>
<ellipse cx="809.093" cy="253.754" rx="0.498671" ry="0.560165" fill="white"/>
<ellipse cx="883.895" cy="253.754" rx="0.498679" ry="0.560165" fill="white"/>
<ellipse cx="958.697" cy="253.754" rx="0.498679" ry="0.560165" fill="white"/>
<ellipse cx="1033.5" cy="253.754" rx="0.498679" ry="0.560165" fill="white"/>
<ellipse cx="1108.3" cy="253.754" rx="0.498679" ry="0.560165" fill="white"/>
<ellipse cx="1183.1" cy="253.754" rx="0.498625" ry="0.560165" fill="white"/>
<ellipse cx="1257.9" cy="253.754" rx="0.498666" ry="0.560165" fill="white"/>
<ellipse cx="1332.71" cy="253.754" rx="0.498666" ry="0.560165" fill="white"/>
<ellipse cx="1407.51" cy="253.754" rx="0.498693" ry="0.560165" fill="white"/>
<ellipse cx="764.212" cy="309.77" rx="0.498678" ry="0.560165" fill="white"/>
<ellipse cx="839.014" cy="309.77" rx="0.498679" ry="0.560165" fill="white"/>
<ellipse cx="913.816" cy="309.77" rx="0.498679" ry="0.560165" fill="white"/>
<ellipse cx="988.618" cy="309.77" rx="0.498679" ry="0.560165" fill="white"/>
<ellipse cx="1063.42" cy="309.77" rx="0.498679" ry="0.560165" fill="white"/>
<ellipse cx="1138.22" cy="309.77" rx="0.498625" ry="0.560165" fill="white"/>
<ellipse cx="1213.02" cy="309.77" rx="0.498679" ry="0.560165" fill="white"/>
<ellipse cx="1287.83" cy="309.77" rx="0.498666" ry="0.560165" fill="white"/>
<ellipse cx="1362.63" cy="309.77" rx="0.498693" ry="0.560165" fill="white"/>
<ellipse cx="754.238" cy="365.786" rx="0.498678" ry="0.56015" fill="white"/>
<ellipse cx="829.04" cy="365.786" rx="0.498679" ry="0.56015" fill="white"/>
<ellipse cx="903.842" cy="365.786" rx="0.498679" ry="0.56015" fill="white"/>
<ellipse cx="978.644" cy="365.786" rx="0.498659" ry="0.56015" fill="white"/>
<ellipse cx="1053.45" cy="365.786" rx="0.498679" ry="0.56015" fill="white"/>
<ellipse cx="1128.25" cy="365.786" rx="0.498721" ry="0.56015" fill="white"/>
<ellipse cx="1203.05" cy="365.786" rx="0.498679" ry="0.56015" fill="white"/>
<ellipse cx="1277.85" cy="365.786" rx="0.498666" ry="0.56015" fill="white"/>
<ellipse cx="1352.65" cy="365.786" rx="0.498666" ry="0.56015" fill="white"/>
<ellipse cx="1427.46" cy="365.786" rx="0.498693" ry="0.56015" fill="white"/>
<ellipse cx="784.16" cy="421.803" rx="0.498679" ry="0.560181" fill="white"/>
<ellipse cx="858.961" cy="421.803" rx="0.498679" ry="0.560181" fill="white"/>
<ellipse cx="933.763" cy="421.803" rx="0.498679" ry="0.560181" fill="white"/>
<ellipse cx="1008.57" cy="421.803" rx="0.498679" ry="0.560181" fill="white"/>
<ellipse cx="1083.37" cy="421.803" rx="0.498679" ry="0.560181" fill="white"/>
<ellipse cx="1158.17" cy="421.803" rx="0.498679" ry="0.560181" fill="white"/>
<ellipse cx="1232.97" cy="421.803" rx="0.498611" ry="0.560181" fill="white"/>
<ellipse cx="1307.77" cy="421.803" rx="0.498666" ry="0.560181" fill="white"/>
<ellipse cx="1382.58" cy="421.803" rx="0.498693" ry="0.560181" fill="white"/>
<ellipse cx="1457.38" cy="421.803" rx="0.498666" ry="0.560181" fill="white"/>
<ellipse cx="744.265" cy="477.819" rx="0.498678" ry="0.56015" fill="white"/>
<ellipse cx="819.067" cy="477.819" rx="0.498679" ry="0.56015" fill="white"/>
<ellipse cx="893.868" cy="477.819" rx="0.498679" ry="0.56015" fill="white"/>
<ellipse cx="968.671" cy="477.819" rx="0.498673" ry="0.56015" fill="white"/>
<ellipse cx="1043.47" cy="477.819" rx="0.498679" ry="0.56015" fill="white"/>
<ellipse cx="1118.28" cy="477.819" rx="0.498721" ry="0.56015" fill="white"/>
<ellipse cx="1193.08" cy="477.819" rx="0.498679" ry="0.56015" fill="white"/>
<ellipse cx="1267.88" cy="477.819" rx="0.498693" ry="0.56015" fill="white"/>
<ellipse cx="1342.68" cy="477.819" rx="0.498666" ry="0.56015" fill="white"/>
<ellipse cx="1417.48" cy="477.819" rx="0.498666" ry="0.56015" fill="white"/>
<ellipse cx="759.226" cy="533.836" rx="0.498678" ry="0.560181" fill="white"/>
<ellipse cx="834.027" cy="533.836" rx="0.498679" ry="0.560181" fill="white"/>
<ellipse cx="908.83" cy="533.836" rx="0.498679" ry="0.560181" fill="white"/>
<ellipse cx="983.63" cy="533.836" rx="0.498659" ry="0.560181" fill="white"/>
<ellipse cx="1058.43" cy="533.836" rx="0.498666" ry="0.560181" fill="white"/>
<ellipse cx="1133.23" cy="533.836" rx="0.498693" ry="0.560181" fill="white"/>
<ellipse cx="1208.04" cy="533.836" rx="0.498721" ry="0.560181" fill="white"/>
<ellipse cx="1282.84" cy="533.836" rx="0.498666" ry="0.560181" fill="white"/>
<ellipse cx="1357.64" cy="533.836" rx="0.498693" ry="0.560181" fill="white"/>
<ellipse cx="1432.44" cy="533.836" rx="0.498666" ry="0.560181" fill="white"/>
<ellipse cx="794.133" cy="595.453" rx="0.498678" ry="0.56015" fill="white"/>
<ellipse cx="868.935" cy="595.453" rx="0.498666" ry="0.56015" fill="white"/>
<ellipse cx="943.737" cy="595.453" rx="0.498686" ry="0.56015" fill="white"/>
<ellipse cx="1018.54" cy="595.453" rx="0.498679" ry="0.56015" fill="white"/>
<ellipse cx="1093.34" cy="595.453" rx="0.498666" ry="0.56015" fill="white"/>
<ellipse cx="1168.14" cy="595.453" rx="0.498679" ry="0.56015" fill="white"/>
<ellipse cx="1242.95" cy="595.453" rx="0.498721" ry="0.56015" fill="white"/>
<ellipse cx="1317.75" cy="595.453" rx="0.498693" ry="0.56015" fill="white"/>
<ellipse cx="1392.55" cy="595.453" rx="0.498666" ry="0.56015" fill="white"/>
<ellipse cx="1467.35" cy="595.453" rx="0.498666" ry="0.56015" fill="white"/>
<ellipse cx="764.212" cy="657.071" rx="0.498678" ry="0.560181" fill="white"/>
<ellipse cx="839.014" cy="657.071" rx="0.498679" ry="0.560181" fill="white"/>
<ellipse cx="913.816" cy="657.071" rx="0.498679" ry="0.560181" fill="white"/>
<ellipse cx="988.618" cy="657.071" rx="0.498679" ry="0.560181" fill="white"/>
<ellipse cx="1063.42" cy="657.071" rx="0.498679" ry="0.560181" fill="white"/>
<ellipse cx="1138.22" cy="657.071" rx="0.498625" ry="0.560181" fill="white"/>
<ellipse cx="1213.02" cy="657.071" rx="0.498679" ry="0.560181" fill="white"/>
<ellipse cx="1287.83" cy="657.071" rx="0.498666" ry="0.560181" fill="white"/>
<ellipse cx="1362.63" cy="657.071" rx="0.498693" ry="0.560181" fill="white"/>
<ellipse cx="1437.43" cy="657.071" rx="0.498666" ry="0.560181" fill="white"/>
<ellipse cx="804.107" cy="717.569" rx="0.498683" ry="0.560119" fill="white"/>
<ellipse cx="878.909" cy="717.569" rx="0.498666" ry="0.560119" fill="white"/>
<ellipse cx="953.71" cy="717.569" rx="0.498707" ry="0.560119" fill="white"/>
<ellipse cx="1028.51" cy="717.569" rx="0.498679" ry="0.560119" fill="white"/>
<ellipse cx="1103.32" cy="717.569" rx="0.498666" ry="0.560119" fill="white"/>
<ellipse cx="1178.12" cy="717.569" rx="0.498693" ry="0.560119" fill="white"/>
<ellipse cx="1252.92" cy="717.569" rx="0.498721" ry="0.560119" fill="white"/>
<ellipse cx="1327.72" cy="717.569" rx="0.498666" ry="0.560119" fill="white"/>
<ellipse cx="1402.52" cy="717.569" rx="0.498693" ry="0.560119" fill="white"/>
<ellipse cx="774.186" cy="779.187" rx="0.498678" ry="0.560181" fill="white"/>
<ellipse cx="848.988" cy="779.187" rx="0.498666" ry="0.560181" fill="white"/>
<ellipse cx="923.79" cy="779.187" rx="0.498679" ry="0.560181" fill="white"/>
<ellipse cx="998.592" cy="779.187" rx="0.498707" ry="0.560181" fill="white"/>
<ellipse cx="1073.39" cy="779.187" rx="0.498679" ry="0.560181" fill="white"/>
<ellipse cx="1148.2" cy="779.187" rx="0.498679" ry="0.560181" fill="white"/>
<ellipse cx="1223" cy="779.187" rx="0.498693" ry="0.560181" fill="white"/>
<ellipse cx="1297.8" cy="779.187" rx="0.498666" ry="0.560181" fill="white"/>
<ellipse cx="1372.6" cy="779.187" rx="0.498666" ry="0.560181" fill="white"/>
<ellipse cx="1447.4" cy="779.187" rx="0.498693" ry="0.560181" fill="white"/>
<ellipse cx="744.265" cy="840.805" rx="0.498678" ry="0.56015" fill="white"/>
<ellipse cx="819.067" cy="840.805" rx="0.498679" ry="0.56015" fill="white"/>
<ellipse cx="893.868" cy="840.805" rx="0.498679" ry="0.56015" fill="white"/>
<ellipse cx="968.671" cy="840.805" rx="0.498673" ry="0.56015" fill="white"/>
<ellipse cx="1043.47" cy="840.805" rx="0.498679" ry="0.56015" fill="white"/>
<ellipse cx="1118.28" cy="840.805" rx="0.498721" ry="0.56015" fill="white"/>
<ellipse cx="1193.08" cy="840.805" rx="0.498679" ry="0.56015" fill="white"/>
<ellipse cx="1267.88" cy="840.805" rx="0.498693" ry="0.56015" fill="white"/>
<ellipse cx="1342.68" cy="840.805" rx="0.498666" ry="0.56015" fill="white"/>
<ellipse cx="1417.48" cy="840.805" rx="0.498666" ry="0.56015" fill="white"/>
<ellipse cx="774.186" cy="902.423" rx="0.498678" ry="0.560088" fill="white"/>
<ellipse cx="848.988" cy="902.423" rx="0.498666" ry="0.560088" fill="white"/>
<ellipse cx="923.79" cy="902.423" rx="0.498679" ry="0.560088" fill="white"/>
<ellipse cx="998.592" cy="902.423" rx="0.498707" ry="0.560088" fill="white"/>
<ellipse cx="1073.39" cy="902.423" rx="0.498679" ry="0.560088" fill="white"/>
<ellipse cx="1148.2" cy="902.423" rx="0.498679" ry="0.560088" fill="white"/>
<ellipse cx="1223" cy="902.423" rx="0.498693" ry="0.560088" fill="white"/>
<ellipse cx="1297.8" cy="902.423" rx="0.498666" ry="0.560088" fill="white"/>
<ellipse cx="1372.6" cy="902.423" rx="0.498666" ry="0.560088" fill="white"/>
<ellipse cx="754.238" cy="958.44" rx="0.498678" ry="0.56015" fill="white"/>
<ellipse cx="829.04" cy="958.44" rx="0.498679" ry="0.56015" fill="white"/>
<ellipse cx="903.842" cy="958.44" rx="0.498679" ry="0.56015" fill="white"/>
<ellipse cx="978.644" cy="958.44" rx="0.498659" ry="0.56015" fill="white"/>
<ellipse cx="1053.45" cy="958.44" rx="0.498679" ry="0.56015" fill="white"/>
<ellipse cx="1128.25" cy="958.44" rx="0.498721" ry="0.56015" fill="white"/>
<ellipse cx="1203.05" cy="958.44" rx="0.498679" ry="0.56015" fill="white"/>
<ellipse cx="1277.85" cy="958.44" rx="0.498666" ry="0.56015" fill="white"/>
<ellipse cx="1352.65" cy="958.44" rx="0.498666" ry="0.56015" fill="white"/>
<ellipse cx="1352.65" cy="958.44" rx="0.498666" ry="0.56015" fill="white"/>
<ellipse cx="1447.4" cy="902.423" rx="0.498693" ry="0.560088" fill="white"/>
<ellipse cx="761.221" cy="79.5433" rx="0.99736" ry="1.12033" fill="white"/>
<ellipse cx="910.824" cy="85.1448" rx="0.997363" ry="1.12032" fill="white"/>
<ellipse cx="1060.43" cy="79.5433" rx="0.997363" ry="1.12033" fill="white"/>
<ellipse cx="1210.03" cy="73.9416" rx="0.997322" ry="1.12032" fill="white"/>
<ellipse cx="1359.64" cy="79.5433" rx="0.997363" ry="1.12033" fill="white"/>
<ellipse cx="1509.24" cy="85.1448" rx="0.997254" ry="1.12032" fill="white"/>
<ellipse cx="821.062" cy="191.576" rx="0.997353" ry="1.12033" fill="white"/>
<ellipse cx="970.665" cy="197.178" rx="0.997336" ry="1.12033" fill="white"/>
<ellipse cx="1120.27" cy="191.576" rx="0.997322" ry="1.12033" fill="white"/>
<ellipse cx="1269.87" cy="185.974" rx="0.997363" ry="1.12033" fill="white"/>
<ellipse cx="1419.48" cy="191.576" rx="0.997336" ry="1.12033" fill="white"/>
<ellipse cx="1569.08" cy="197.178" rx="0.997363" ry="1.12033" fill="white"/>
<ellipse cx="796.128" cy="304.729" rx="0.997362" ry="1.12033" fill="white"/>
<ellipse cx="945.731" cy="310.33" rx="0.997363" ry="1.12033" fill="white"/>
<ellipse cx="1095.34" cy="304.729" rx="0.997363" ry="1.12033" fill="white"/>
<ellipse cx="1244.94" cy="299.127" rx="0.99739" ry="1.12031" fill="white"/>
<ellipse cx="1394.54" cy="304.729" rx="0.997336" ry="1.12033" fill="white"/>
<ellipse cx="1544.15" cy="309.21" rx="0.997363" ry="1.12033" fill="white"/>
<ellipse cx="771.194" cy="416.762" rx="0.997362" ry="1.12033" fill="white"/>
<ellipse cx="920.798" cy="422.363" rx="0.997356" ry="1.12033" fill="white"/>
<ellipse cx="1070.4" cy="416.762" rx="0.99735" ry="1.12033" fill="white"/>
<ellipse cx="1220.01" cy="411.16" rx="0.997418" ry="1.12033" fill="white"/>
<ellipse cx="1369.61" cy="416.762" rx="0.997363" ry="1.12033" fill="white"/>
<ellipse cx="1519.21" cy="421.243" rx="0.997254" ry="1.12033" fill="white"/>
<ellipse cx="850.983" cy="528.794" rx="0.99737" ry="1.12033" fill="white"/>
<ellipse cx="1000.59" cy="534.396" rx="0.997363" ry="1.12036" fill="white"/>
<ellipse cx="1150.19" cy="528.794" rx="0.99735" ry="1.12033" fill="white"/>
<ellipse cx="1299.79" cy="523.192" rx="0.997363" ry="1.12033" fill="white"/>
<ellipse cx="1449.4" cy="528.794" rx="0.997363" ry="1.12033" fill="white"/>
<ellipse cx="1599" cy="533.276" rx="0.997254" ry="1.12033" fill="white"/>
<ellipse cx="757.729" cy="640.827" rx="0.99736" ry="1.12033" fill="white"/>
<ellipse cx="907.333" cy="646.428" rx="0.997356" ry="1.12033" fill="white"/>
<ellipse cx="1056.94" cy="640.827" rx="0.997363" ry="1.12033" fill="white"/>
<ellipse cx="1206.54" cy="635.225" rx="0.997363" ry="1.12033" fill="white"/>
<ellipse cx="1356.14" cy="640.827" rx="0.997363" ry="1.12033" fill="white"/>
<ellipse cx="1505.75" cy="645.308" rx="0.997281" ry="1.12036" fill="white"/>
<ellipse cx="769.199" cy="737.175" rx="0.997358" ry="1.12033" fill="white"/>
<ellipse cx="918.803" cy="742.777" rx="0.997363" ry="1.12033" fill="white"/>
<ellipse cx="1068.41" cy="737.175" rx="0.997363" ry="1.12033" fill="white"/>
<ellipse cx="1218.01" cy="731.573" rx="0.997336" ry="1.12033" fill="white"/>
<ellipse cx="1367.61" cy="737.175" rx="0.997363" ry="1.12033" fill="white"/>
<ellipse cx="1517.22" cy="742.777" rx="0.997363" ry="1.12033" fill="white"/>
<ellipse cx="805.603" cy="857.05" rx="0.99736" ry="1.12033" fill="white"/>
<ellipse cx="955.205" cy="862.652" rx="0.997336" ry="1.1203" fill="white"/>
<ellipse cx="1104.81" cy="857.05" rx="0.997363" ry="1.12033" fill="white"/>
<ellipse cx="1254.42" cy="851.449" rx="0.997308" ry="1.12033" fill="white"/>
<ellipse cx="1404.02" cy="857.05" rx="0.997336" ry="1.12033" fill="white"/>
<ellipse cx="1553.62" cy="862.652" rx="0.99739" ry="1.1203" fill="white"/>
<ellipse cx="1442.42" cy="956.759" rx="0.997363" ry="1.12036" fill="white"/>
<ellipse cx="870.929" cy="34.7301" rx="0.99735" ry="1.12032" fill="white"/>
<ellipse cx="1020.53" cy="29.1286" rx="0.99735" ry="1.12032" fill="white"/>
<ellipse cx="1170.14" cy="23.5269" rx="0.99735" ry="1.12033" fill="white"/>
<ellipse cx="1319.74" cy="29.1286" rx="0.997363" ry="1.12032" fill="white"/>
<ellipse cx="1469.35" cy="34.7301" rx="0.99739" ry="1.12032" fill="white"/>
<ellipse cx="841.008" cy="146.763" rx="0.99736" ry="1.12035" fill="white"/>
<ellipse cx="990.613" cy="141.161" rx="0.997363" ry="1.12033" fill="white"/>
<ellipse cx="1140.22" cy="135.56" rx="0.997404" ry="1.12033" fill="white"/>
<ellipse cx="1289.82" cy="141.161" rx="0.99739" ry="1.12033" fill="white"/>
<ellipse cx="1439.43" cy="146.763" rx="0.997336" ry="1.12035" fill="white"/>
<ellipse cx="751.246" cy="254.314" rx="0.997361" ry="1.12033" fill="white"/>
<ellipse cx="900.851" cy="259.916" rx="0.997356" ry="1.12031" fill="white"/>
<ellipse cx="1050.45" cy="254.314" rx="0.997363" ry="1.12033" fill="white"/>
<ellipse cx="1200.06" cy="248.712" rx="0.997377" ry="1.12033" fill="white"/>
<ellipse cx="1349.66" cy="254.314" rx="0.997336" ry="1.12033" fill="white"/>
<ellipse cx="1499.27" cy="258.796" rx="0.997363" ry="1.12033" fill="white"/>
<ellipse cx="875.915" cy="371.948" rx="0.997356" ry="1.12033" fill="white"/>
<ellipse cx="1025.52" cy="366.347" rx="0.99735" ry="1.1203" fill="white"/>
<ellipse cx="1175.12" cy="360.745" rx="0.997404" ry="1.12033" fill="white"/>
<ellipse cx="1324.73" cy="366.347" rx="0.997363" ry="1.1203" fill="white"/>
<ellipse cx="1474.33" cy="371.948" rx="0.997363" ry="1.12033" fill="white"/>
<ellipse cx="850.983" cy="483.981" rx="0.99737" ry="1.12033" fill="white"/>
<ellipse cx="1000.59" cy="478.379" rx="0.997363" ry="1.12033" fill="white"/>
<ellipse cx="1150.19" cy="472.778" rx="0.99735" ry="1.12033" fill="white"/>
<ellipse cx="1299.79" cy="478.379" rx="0.997363" ry="1.12033" fill="white"/>
<ellipse cx="1449.4" cy="483.981" rx="0.997363" ry="1.12033" fill="white"/>
<ellipse cx="781.167" cy="590.412" rx="0.99736" ry="1.1203" fill="white"/>
<ellipse cx="930.771" cy="596.014" rx="0.997363" ry="1.12033" fill="white"/>
<ellipse cx="1080.37" cy="590.412" rx="0.997363" ry="1.1203" fill="white"/>
<ellipse cx="1229.98" cy="584.81" rx="0.997418" ry="1.12033" fill="white"/>
<ellipse cx="1379.58" cy="590.412" rx="0.99739" ry="1.1203" fill="white"/>
<ellipse cx="1529.19" cy="594.893" rx="0.997363" ry="1.12033" fill="white"/>
<ellipse cx="837.518" cy="706.926" rx="0.99736" ry="1.12033" fill="white"/>
<ellipse cx="987.121" cy="701.325" rx="0.997377" ry="1.12033" fill="white"/>
<ellipse cx="1136.73" cy="695.723" rx="0.997404" ry="1.12033" fill="white"/>
<ellipse cx="1286.33" cy="701.325" rx="0.997363" ry="1.12033" fill="white"/>
<ellipse cx="1435.93" cy="706.926" rx="0.997363" ry="1.12033" fill="white"/>
<ellipse cx="848.988" cy="804.395" rx="0.99735" ry="1.12033" fill="white"/>
<ellipse cx="998.591" cy="798.793" rx="0.99735" ry="1.1203" fill="white"/>
<ellipse cx="1148.2" cy="793.191" rx="0.997404" ry="1.12036" fill="white"/>
<ellipse cx="1297.8" cy="798.793" rx="0.997363" ry="1.1203" fill="white"/>
<ellipse cx="1447.4" cy="804.395" rx="0.997363" ry="1.12033" fill="white"/>
<ellipse cx="735.788" cy="918.668" rx="0.997357" ry="1.1203" fill="white"/>
<ellipse cx="885.391" cy="924.27" rx="0.997356" ry="1.1203" fill="white"/>
<ellipse cx="1034.99" cy="918.668" rx="0.997363" ry="1.1203" fill="white"/>
<ellipse cx="1184.6" cy="913.067" rx="0.997322" ry="1.1203" fill="white"/>
<ellipse cx="1334.2" cy="918.668" rx="0.997363" ry="1.1203" fill="white"/>
<ellipse cx="1483.81" cy="924.27" rx="0.997281" ry="1.1203" fill="white"/>
</svg>
